SplineFontDB: 1.0
FontName: DBThaiText-BoldOblique
FullName: DBThaiText Bold Oblique
FamilyName: DBThaiText
Weight: Bold
Copyright: Typeface (c) The Monotype Corporation plc. Data (c) The Monotype Corporation plc/Type Solutions Inc. 1990-1992. All Rights Reserved\n\nModified by TLWG
Version: 2.0 : Dec 10, 2003
ItalicAngle: -12
UnderlinePosition: -50
UnderlineWidth: 60
Ascent: 800
Descent: 200
NeedsXUIDChange: 1
FSType: 0
PfmFamily: 33
TTFWeight: 700
TTFWidth: 5
Panose: 2 0 8 3 0 0 0 0 0 0
LineGap: 266
VLineGap: 0
OS2WinAscent: 0
OS2WinAOffset: 1
OS2WinDescent: 0
OS2WinDOffset: 1
HheadAscent: 0
HheadAOffset: 1
HheadDescent: 0
HheadDOffset: 1
ScriptLang: 3
 1 latn 1 dflt 
 1 thai 4 KUY  PAL  THA  dflt 
 1 thai 1 PAL  
ContextSub: glyph 0 2 ' RQD' 0 0 0 1
 String: 15 uni0E0D uni0E10
 BString: 0 
 FString: 0 
 1
  SeqLookup: 0 'G000'
EndFPST
ChainSub: coverage 0 1 'ccmp' 0 0 0 1
 1 1 0
  Coverage: 39 uni0E48 uni0E49 uni0E4A uni0E4B uni0E4C
  BCoverage: 414 uni0E01 uni0E02 uni0E03 uni0E04 uni0E05 uni0E06 uni0E07 uni0E08 uni0E09 uni0E0A uni0E0B uni0E0C uni0E0D uni0E0E uni0E0F uni0E10 uni0E11 uni0E12 uni0E13 uni0E14 uni0E15 uni0E16 uni0E17 uni0E18 uni0E19 uni0E1A uni0E1B uni0E1C uni0E1D uni0E1E uni0E1F uni0E20 uni0E21 uni0E22 uni0E23 uni0E24 uni0E25 uni0E26 uni0E27 uni0E28 uni0E29 uni0E2A uni0E2B uni0E2C uni0E2D uni0E2E uni0E10.descless uni0E0D.descless dottedcircle
 1
  SeqLookup: 0 'loww'
EndFPST
ChainSub: coverage 0 1 'ccmp' 0 0 0 1
 1 2 0
  Coverage: 39 uni0E48 uni0E49 uni0E4A uni0E4B uni0E4C
  BCoverage: 23 uni0E38 uni0E39 uni0E3A
  BCoverage: 414 uni0E01 uni0E02 uni0E03 uni0E04 uni0E05 uni0E06 uni0E07 uni0E08 uni0E09 uni0E0A uni0E0B uni0E0C uni0E0D uni0E0E uni0E0F uni0E10 uni0E11 uni0E12 uni0E13 uni0E14 uni0E15 uni0E16 uni0E17 uni0E18 uni0E19 uni0E1A uni0E1B uni0E1C uni0E1D uni0E1E uni0E1F uni0E20 uni0E21 uni0E22 uni0E23 uni0E24 uni0E25 uni0E26 uni0E27 uni0E28 uni0E29 uni0E2A uni0E2B uni0E2C uni0E2D uni0E2E uni0E10.descless uni0E0D.descless dottedcircle
 1

StartChar: .notdef
Encoding: 0 -1 0
Width: 871
VWidth: 2048
Flags: W
HStem: -46 114<193 747> 1395 114<383 937>
DStem: 383 1509 474 1395 52 -46 193 68 937 1395 1077 1509 655 68 747 -46
Fore
52 -46 m 1
 383 1509 l 1
 1077 1509 l 1
 747 -46 l 1
 52 -46 l 1
193 68 m 1
 655 68 l 1
 937 1395 l 1
 474 1395 l 1
 193 68 l 1
EndSplineSet
EndChar
StartChar: exclam
Encoding: 33 33 3
Width: 308
Flags: W
HStem: 0 21G<104 244>
DStem: 133 136 273 136 104 0 244 0 249 680 389 680 207 483 347 483
Fore
181 193 m 1
 207 483 l 1
 249 680 l 1
 389 680 l 1
 347 483 l 1
 244 193 l 1
 181 193 l 1
133 136 m 1
 273 136 l 1
 244 0 l 1
 104 0 l 1
 133 136 l 1
EndSplineSet
EndChar
StartChar: quotedbl
Encoding: 34 34 4
Width: 439
VWidth: 2048
Flags: W
Fore
173 439 m 1
 164 568 l 1
 187 679 l 1
 326 679 l 1
 303 568 l 1
 235 439 l 1
 173 439 l 1
381 439 m 1
 373 568 l 1
 396 679 l 1
 536 679 l 5
 513 568 l 1
 444 439 l 1
 381 439 l 1
EndSplineSet
EndChar
StartChar: numbersign
Encoding: 35 35 5
Width: 517
Flags: W
HStem: 133 106<53 116 257 309 452 519> 354 104<137 206 538 590>
DStem: 116 133 216 133 52 -28 149 -28 206 354 304 354 160 239 257 239 309 133 407 133 244 -28 344 -28 325 648 423 648 248 458 347 458 402 354 500 354 352 239 452 239 516 648 615 648 441 461 538 458
Fore
325 648 m 1
 423 648 l 1
 347 458 l 1
 441 461 l 1
 516 648 l 1
 615 648 l 1
 538 458 l 1
 612 458 l 1
 590 354 l 1
 500 354 l 1
 452 239 l 1
 541 239 l 1
 519 133 l 1
 407 133 l 1
 344 -28 l 1
 244 -28 l 1
 309 133 l 1
 216 133 l 1
 149 -28 l 1
 52 -28 l 1
 116 133 l 1
 32 133 l 1
 54 239 l 1
 160 239 l 1
 206 354 l 1
 116 354 l 1
 138 458 l 1
 248 458 l 1
 325 648 l 1
304 354 m 1
 257 239 l 1
 352 239 l 1
 402 354 l 1
 304 354 l 1
EndSplineSet
EndChar
StartChar: dollar
Encoding: 36 36 6
Width: 517
Flags: W
VStem: 57 126<136 165> 464 120<479 509>
DStem: 223 -20 284 -17 202 -116 264 -116 289 287 345 264 244 78 306 81 348 568 409 566 313 400 370 380
Fore
581 465 m 1
 461 465 l 1
 464 476 464 484 464 493 c 0
 464 510 460 525 452 536 c 0
 436 552 422 563 409 566 c 1
 370 380 l 1
 429 364 474 341 505 312 c 0
 523 290 535 262 535 229 c 0
 535 218 534 204 531 191 c 0
 522 149 506 115 486 88 c 0
 465 61 445 41 420 28 c 0
 396 13 373 1 348 -3 c 0
 322 -10 300 -14 284 -17 c 1
 264 -116 l 1
 202 -116 l 1
 223 -20 l 1
 212 -17 202 -16 191 -14 c 0
 181 -13 170 -9 155 -3 c 0
 139 1 126 7 116 14 c 0
 106 23 94 33 83 48 c 0
 64 72 57 102 57 136 c 0
 57 154 58 173 62 193 c 1
 184 193 l 1
 184 183 183 174 183 165 c 0
 183 154 184 144 186 135 c 0
 188 119 194 109 200 102 c 0
 207 96 213 90 223 87 c 0
 231 81 239 80 244 78 c 1
 289 287 l 1
 239 297 197 316 170 345 c 0
 146 368 133 397 133 432 c 0
 133 444 135 455 138 468 c 0
 148 525 175 570 218 605 c 0
 258 639 306 657 368 663 c 1
 380 713 l 1
 441 713 l 1
 429 663 l 1
 532 655 584 605 584 509 c 0
 584 496 584 481 581 465 c 1
313 400 m 1
 348 568 l 1
 299 560 268 529 255 478 c 1
 255 476 255 474 255 471 c 0
 255 461 257 452 258 444 c 0
 261 434 265 426 276 419 c 0
 286 412 299 405 313 400 c 1
345 264 m 1
 306 81 l 1
 310 84 319 87 326 90 c 0
 338 93 348 99 358 103 c 0
 367 109 376 115 383 125 c 0
 392 135 396 146 402 161 c 0
 403 171 405 180 405 188 c 0
 405 226 386 252 345 264 c 1
EndSplineSet
EndChar
StartChar: percent
Encoding: 37 37 7
Width: 827
Flags: W
HStem: -12 92<631 651> 236 93<683 703> 315 92<258 278> 564 93<310 331>
VStem: 119 96<445 470> 374 96<506 522> 493 96<120 144> 745 97<177 197>
DStem: 706 660 779 660 188 -16 262 -16
Fore
262 -16 m 1x9f
 188 -16 l 1
 706 660 l 1
 779 660 l 1
 262 -16 l 1x9f
497 160 m 0
 508 204 532 244 573 278 c 0
 612 313 657 329 703 329 c 0xdf
 751 329 786 313 813 278 c 0
 834 254 842 228 842 197 c 0
 842 186 841 173 838 160 c 0
 828 112 803 71 763 38 c 0
 721 4 677 -12 631 -12 c 0
 584 -12 547 3 522 38 c 0
 502 62 493 90 493 120 c 0
 493 133 494 146 497 160 c 0
123 484 m 0
 133 532 158 571 200 606 c 0
 241 641 283 657 331 657 c 0
 378 657 415 641 441 606 c 0
 460 581 470 552 470 522 c 0
 470 510 468 497 465 484 c 0
 455 438 429 396 389 364 c 0
 348 331 306 315 258 315 c 0xbf
 210 315 174 331 148 364 c 0
 128 387 119 415 119 445 c 0
 119 458 120 471 123 484 c 0
590 160 m 0
 589 154 589 148 589 144 c 0
 589 128 593 115 602 103 c 0
 613 88 631 80 651 80 c 0
 673 80 695 88 712 103 c 0
 729 119 740 138 744 160 c 0
 745 165 745 171 745 177 c 0
 745 190 742 203 734 213 c 0
 721 228 706 236 684 236 c 0xdf
 664 236 642 228 625 213 c 0
 608 199 594 180 590 160 c 0
216 484 m 0
 215 478 215 474 215 470 c 0
 215 455 219 441 228 431 c 0
 239 416 258 407 278 407 c 0xbf
 300 407 319 416 338 431 c 0
 355 445 367 464 371 484 c 0
 373 492 374 499 374 506 c 0
 374 519 370 532 362 542 c 0
 351 557 334 564 312 564 c 0
 291 564 270 557 251 542 c 0
 233 526 220 506 216 484 c 0
EndSplineSet
EndChar
StartChar: ampersand
Encoding: 38 38 8
Width: 671
Flags: W
HStem: -17 105<271 293> 329 20G<563 670> 576 104<422 445>
VStem: 83 127<130 175> 229 129<490 516>
DStem: 320 297 434 367 412 142 506 241
Fore
563 349 m 1
 670 349 l 1
 663 315 650 278 629 242 c 0
 610 206 587 175 560 151 c 1
 647 0 l 1
 496 0 l 1
 464 58 l 1
 428 33 397 13 374 1 c 0
 349 -10 313 -17 271 -17 c 0
 267 -17 262 -17 260 -17 c 0
 203 -17 158 1 123 33 c 0
 97 58 83 90 83 130 c 0
 83 145 86 161 88 178 c 0
 90 181 93 194 100 219 c 0
 113 249 129 274 149 294 c 0
 170 315 191 331 215 342 c 0
 238 354 258 365 277 376 c 1
 264 392 257 405 249 416 c 0
 242 428 236 442 233 461 c 0
 231 470 229 480 229 490 c 0
 229 497 231 508 232 516 c 0
 236 538 245 560 261 581 c 0
 281 613 309 638 341 655 c 0
 373 671 409 680 445 680 c 0
 486 680 518 671 544 651 c 0
 570 631 581 602 581 567 c 0
 580 552 579 541 577 531 c 0
 568 493 552 464 529 439 c 0
 505 415 473 392 434 367 c 1
 506 241 l 1
 519 249 529 262 539 280 c 0
 552 299 558 316 561 331 c 0
 563 336 563 342 563 349 c 1
368 477 m 2
 392 441 l 1
 402 447 413 452 422 457 c 0
 429 463 436 467 444 476 c 0
 451 483 457 494 463 509 c 0
 464 519 465 528 465 536 c 0
 465 544 464 551 463 557 c 0
 460 568 447 576 422 576 c 0
 390 576 371 564 361 542 c 1
 360 534 358 525 358 516 c 0
 358 503 361 489 368 477 c 2
412 142 m 1
 320 297 l 1
 286 277 261 264 246 255 c 0
 229 242 219 223 213 197 c 0
 212 190 210 183 210 175 c 0
 210 152 219 130 236 112 c 0
 251 97 270 88 291 88 c 0
 322 88 364 106 412 142 c 1
EndSplineSet
EndChar
StartChar: quotesingle
Encoding: 39 39 9
Width: 207
VWidth: 2048
Flags: W
Fore
173 439 m 1
 164 568 l 1
 187 679 l 1
 326 679 l 1
 303 568 l 1
 235 439 l 1
 173 439 l 1
EndSplineSet
EndChar
StartChar: parenleft
Encoding: 40 40 10
Width: 308
Flags: W
Fore
334 680 m 1
 426 680 l 1
 374 613 331 547 293 481 c 0
 254 415 228 351 215 287 c 0
 210 268 207 254 207 246 c 0
 200 199 196 149 196 100 c 0
 196 71 197 42 200 13 c 0
 204 -67 219 -135 241 -188 c 1
 148 -188 l 1
 128 -130 115 -93 107 -72 c 0
 102 -51 94 -23 88 13 c 0
 83 48 80 84 78 119 c 0
 80 155 81 199 90 246 c 0
 100 290 113 335 132 377 c 0
 149 419 171 458 193 494 c 0
 216 531 236 563 258 587 c 0
 277 610 302 642 334 680 c 1
EndSplineSet
EndChar
StartChar: parenright
Encoding: 41 41 11
Width: 308
Flags: W
VStem: 222 113<386 416.134>
Fore
167 680 m 1
 258 680 l 1
 290 606 312 538 326 474 c 0
 332 447 335 416 335 386 c 0
 335 342 329 296 318 246 c 0
 297 160 268 87 232 28 c 0
 196 -30 142 -103 72 -188 c 1
 -19 -188 l 1
 26 -135 71 -67 112 13 c 0
 149 91 180 168 200 246 c 0
 203 254 206 267 209 283 c 0
 218 318 220 351 222 386 c 0
 222 418 218 452 215 489 c 0
 209 526 204 558 196 587 c 0
 188 615 178 645 167 680 c 1
EndSplineSet
EndChar
StartChar: asterisk
Encoding: 42 42 12
Width: 361
Flags: W
DStem: 229 500 270 450 138 409 188 358 270 450 336 500 320 358 390 409 286 680 358 680 261 566 334 566
Fore
188 358 m 1
 138 409 l 1
 229 500 l 1
 136 536 l 1
 174 602 l 1
 261 566 l 1
 286 680 l 1
 358 680 l 1
 334 566 l 1
 435 602 l 1
 447 536 l 1
 336 500 l 1
 390 409 l 1
 320 358 l 1
 270 450 l 1
 188 358 l 1
EndSplineSet
EndChar
StartChar: plus
Encoding: 43 43 13
Width: 543
Flags: W
HStem: 277 112<128 276 410 558>
DStem: 276 277 387 277 239 106 351 106 335 558 447 558 299 389 410 389
Fore
335 558 m 5
 447 558 l 5
 410 389 l 5
 581 389 l 5
 558 277 l 5
 387 277 l 5
 351 106 l 5
 239 106 l 5
 276 277 l 5
 106 277 l 5
 129 389 l 5
 299 389 l 5
 335 558 l 5
EndSplineSet
EndChar
StartChar: comma
Encoding: 44 44 14
Width: 319
Flags: W
Fore
261 71 m 0
 254 26 228 -12 191 -39 c 0
 154 -68 120 -86 90 -88 c 1
 83 -65 l 1
 106 -54 125 -45 139 -35 c 0
 154 -25 165 -9 174 13 c 1
 155 13 141 17 125 28 c 0
 115 36 109 48 109 68 c 0
 109 72 110 78 110 84 c 0
 115 103 125 119 141 135 c 0
 155 148 173 154 193 154 c 0
 222 154 241 146 251 130 c 0
 260 120 264 107 264 91 c 0
 264 86 262 78 261 71 c 0
EndSplineSet
EndChar
StartChar: hyphen
Encoding: 45 45 15
Width: 308
Flags: W
HStem: 193 127<92 319>
Fore
93 320 m 1
 347 320 l 1
 319 193 l 1
 65 193 l 1
 93 320 l 1
EndSplineSet
EndChar
StartChar: period
Encoding: 46 46 16
Width: 232
Flags: W
HStem: 0 21G<102 124>
Fore
113 0 m 0
 91 0 75 7 67 20 c 0
 61 29 58 39 58 52 c 0
 58 57 58 62 59 68 c 0
 64 87 72 103 87 116 c 0
 102 129 120 136 142 136 c 0
 164 136 178 129 187 116 c 0
 193 107 196 99 196 86 c 0
 196 80 196 74 194 68 c 0
 190 49 181 33 167 20 c 0
 152 7 135 0 113 0 c 0
EndSplineSet
EndChar
StartChar: slash
Encoding: 47 47 17
Width: 258
Flags: W
HStem: -13 21G<-1 58>
DStem: 341 667 397 667 -1 -13 58 -13
Fore
341 667 m 1
 397 667 l 1
 58 -13 l 1
 -1 -13 l 1
 341 667 l 1
EndSplineSet
EndChar
StartChar: zero
Encoding: 48 48 18
Width: 517
Flags: W
HStem: -22 121<249 274> 557 119<373 397>
VStem: 77 129<142 187> 442 129<489 513>
Fore
249 -22 m 0
 219 -22 188 -16 162 -4 c 0
 138 7 117 22 104 42 c 0
 87 72 77 115 77 167 c 0
 77 212 84 265 97 328 c 0
 126 464 170 557 225 610 c 0
 248 632 274 647 304 658 c 0
 334 670 367 676 397 676 c 0
 468 676 518 654 544 610 c 0
 561 581 571 541 571 489 c 0
 571 444 564 390 551 328 c 0
 522 193 478 99 423 42 c 0
 378 0 320 -22 249 -22 c 0
274 99 m 0
 315 99 345 113 362 142 c 0
 381 175 402 238 420 328 c 0
 435 399 442 452 442 489 c 0
 442 497 442 506 441 513 c 0
 435 542 413 557 373 557 c 0
 355 557 336 554 320 545 c 0
 304 538 293 528 286 513 c 0
 265 480 245 418 226 328 c 0
 212 260 206 206 206 171 c 0
 206 160 206 149 207 142 c 1
 210 113 232 99 274 99 c 0
EndSplineSet
EndChar
StartChar: one
Encoding: 49 49 19
Width: 517
Flags: W
HStem: 0 21G<222 352> 457 87<180 204.748>
DStem: 319 457 493 660 222 0 352 0
Fore
493 660 m 1
 352 0 l 1
 222 0 l 1
 319 457 l 1
 161 457 l 1
 180 544 l 1
 204 544 232 547 261 554 c 0
 291 558 313 567 332 579 c 0
 371 603 397 631 406 660 c 1
 493 660 l 1
EndSplineSet
EndChar
StartChar: two
Encoding: 50 50 20
Width: 517
Flags: W
HStem: 0 117<223 477> 568 109<374 400>
VStem: 448 133<495 518>
Fore
502 117 m 1
 477 0 l 1
 28 0 l 1
 41 46 58 86 75 119 c 0
 96 154 128 188 177 222 c 0
 212 246 255 270 299 300 c 0
 342 328 371 349 387 364 c 0
 419 394 438 426 445 458 c 0
 448 470 448 483 448 499 c 0
 448 500 448 503 448 505 c 0
 448 525 442 541 429 551 c 0
 412 563 396 568 374 568 c 0
 368 568 360 567 351 566 c 0
 304 555 273 512 255 432 c 1
 129 432 l 1
 146 512 180 571 226 615 c 0
 270 654 329 677 400 677 c 0
 403 677 407 677 412 677 c 0
 523 671 581 616 581 516 c 0
 581 492 579 465 571 436 c 0
 557 373 484 304 368 235 c 0
 289 186 241 146 223 117 c 1
 502 117 l 1
EndSplineSet
EndChar
StartChar: three
Encoding: 51 51 21
Width: 517
Flags: W
HStem: -22 106<245 291> 294 89<265 293> 571 105<370 406>
VStem: 64 126<144 164> 393 135<213 241> 442 126<505 534>
Fore
68 193 m 1xf8
 193 193 l 1
 191 181 190 170 190 161 c 0
 190 154 191 148 191 144 c 0
 193 133 197 122 203 113 c 0
 209 104 219 97 232 91 c 0
 249 87 268 84 291 84 c 1
 307 88 322 97 332 104 c 0
 364 129 383 157 390 191 c 0
 392 199 393 206 393 213 c 0xf8
 393 235 384 252 368 267 c 0
 348 286 313 294 265 294 c 1
 284 383 l 1
 320 383 351 390 378 402 c 0
 405 413 420 432 429 458 c 0
 435 471 439 481 439 487 c 0
 441 494 442 502 442 509 c 0
 442 516 441 522 441 529 c 0
 435 542 429 552 418 560 c 0
 406 567 390 571 370 571 c 0
 367 571 364 571 360 571 c 0
 328 571 303 558 289 539 c 0
 274 518 264 489 252 452 c 1
 133 452 l 1
 144 500 160 539 180 570 c 0
 199 602 232 629 280 654 c 0
 307 667 348 676 406 676 c 0
 419 676 l 0
 471 676 509 660 531 635 c 0
 554 615 566 590 567 566 c 0
 568 555 568 545 568 534 c 0xf4
 568 516 567 496 563 474 c 1
 551 445 541 425 528 409 c 0
 513 393 492 376 463 354 c 1
 492 332 510 310 521 283 c 0
 525 273 528 258 528 241 c 0
 528 222 525 199 518 173 c 0
 506 125 476 80 434 39 c 0
 389 -1 325 -22 245 -22 c 0
 210 -22 181 -16 154 -9 c 0
 128 0 104 20 86 51 c 0
 74 72 65 96 64 117 c 0
 64 141 64 165 68 193 c 1xf8
EndSplineSet
EndChar
StartChar: four
Encoding: 52 52 22
Width: 517
Flags: W
HStem: 0 21G<287 418> 146 106<170 318 471 518>
DStem: 318 146 448 146 287 0 418 0 399 528 558 660 341 252 471 252 406 660 399 528 78 257 170 252
Fore
406 660 m 1
 558 660 l 1
 471 252 l 1
 541 252 l 1
 518 146 l 1
 448 146 l 1
 418 0 l 1
 287 0 l 1
 318 146 l 1
 54 146 l 1
 78 257 l 1
 406 660 l 1
399 528 m 1
 170 252 l 1
 341 252 l 1
 399 528 l 1
EndSplineSet
EndChar
StartChar: five
Encoding: 53 53 23
Width: 517
Flags: W
HStem: -22 110<249 271> 341 104<316 371> 544 116<245 573>
VStem: 400 135<258 280>
DStem: 245 660 302 544 107 293 249 407
Fore
61 173 m 1
 190 173 l 1
 190 167 190 162 190 158 c 0
 190 148 190 139 191 130 c 0
 193 119 200 110 213 102 c 0
 226 93 245 88 271 88 c 0
 304 90 332 103 354 128 c 0
 373 152 387 180 394 215 c 0
 399 232 400 246 400 260 c 0
 400 277 397 290 392 302 c 0
 377 326 352 341 316 341 c 0
 313 341 312 341 310 341 c 0
 273 341 244 323 226 293 c 1
 107 293 l 1
 245 660 l 1
 597 660 l 1
 573 544 l 1
 302 544 l 1
 249 407 l 1
 277 423 300 432 316 438 c 0
 335 442 354 445 371 445 c 0
 393 445 418 442 441 434 c 0
 480 419 509 392 525 352 c 0
 532 331 535 306 535 280 c 0
 535 261 534 242 529 222 c 0
 516 167 492 119 461 81 c 0
 435 51 407 28 376 12 c 0
 341 -7 300 -16 249 -22 c 1
 206 -22 175 -16 155 -9 c 0
 136 0 117 13 99 29 c 0
 83 48 71 64 64 81 c 0
 59 97 55 110 55 123 c 0
 55 125 55 128 55 129 c 0
 57 142 58 157 61 173 c 1
EndSplineSet
EndChar
StartChar: six
Encoding: 54 54 24
Width: 517
Flags: W
HStem: 336 100<326 396> 574 103<389 413>
VStem: 80 116<138 187> 412 124<252 278>
Fore
580 513 m 1
 460 513 l 1
 455 552 434 571 396 574 c 0
 368 574 345 567 323 554 c 0
 303 542 289 528 281 512 c 0
 265 487 254 457 246 423 c 0
 244 406 244 394 244 387 c 1
 264 402 286 415 307 423 c 0
 331 431 361 436 396 436 c 0
 455 436 496 409 521 357 c 0
 531 334 536 307 536 278 c 0
 536 261 535 242 531 223 c 0
 521 178 508 141 486 110 c 0
 457 65 423 33 389 13 c 0
 351 -9 307 -20 258 -22 c 0
 255 -22 254 -22 252 -22 c 0
 203 -22 162 -6 132 23 c 0
 102 54 83 91 80 138 c 0
 80 146 80 155 80 165 c 0
 80 213 86 267 99 329 c 0
 113 394 132 452 158 502 c 0
 184 552 219 594 262 628 c 0
 306 660 357 677 413 677 c 0
 429 677 442 677 450 676 c 0
 512 667 551 645 567 613 c 0
 577 589 583 564 583 539 c 0
 583 531 581 522 580 513 c 1
231 277 m 0
 216 257 204 235 200 210 c 0
 197 197 196 186 196 174 c 0
 196 155 200 139 206 125 c 0
 216 104 238 93 267 88 c 1
 300 88 326 99 349 117 c 0
 380 146 399 178 407 219 c 0
 410 232 412 244 412 254 c 0
 412 270 409 284 405 297 c 0
 392 323 364 336 326 336 c 0
 309 335 291 329 274 319 c 0
 258 312 242 297 231 277 c 0
EndSplineSet
EndChar
StartChar: seven
Encoding: 55 55 25
Width: 517
Flags: W
HStem: 0 21G<123 254> 544 116<167 470>
Fore
168 660 m 1
 632 660 l 1
 610 558 l 1
 567 518 528 476 490 432 c 0
 452 390 422 345 390 300 c 0
 360 254 334 206 310 157 c 0
 289 109 268 55 254 0 c 1
 123 0 l 1
 145 65 168 123 191 171 c 0
 213 218 239 262 265 303 c 0
 291 342 322 381 354 419 c 0
 387 458 425 500 470 544 c 1
 144 544 l 1
 168 660 l 1
EndSplineSet
EndChar
StartChar: eight
Encoding: 56 56 26
Width: 517
Flags: W
HStem: -22 109<249 269> 307 89<320 334> 577 100<369 405>
VStem: 57 136<138 164> 146 115<457 475> 394 144<223 241> 464 115<511 525>
Fore
476 93 m 1xe4
 450 55 413 28 371 9 c 0
 331 -10 290 -22 249 -22 c 0
 246 -22 245 -22 242 -22 c 0
 199 -22 162 -10 129 12 c 0
 94 30 74 59 62 96 c 0
 58 109 57 123 57 138 c 0xf4
 57 154 58 171 62 191 c 0
 78 268 125 325 200 361 c 1
 180 380 165 400 154 419 c 0
 148 432 146 447 146 461 c 0
 146 471 146 481 149 493 c 0
 157 522 168 551 188 577 c 0
 210 608 239 632 274 651 c 0
 309 668 347 677 384 677 c 0
 474 677 534 652 557 603 c 0
 571 577 579 551 579 525 c 0xea
 579 515 577 503 574 492 c 0
 568 461 555 434 531 409 c 0
 509 386 483 368 457 361 c 1
 489 351 510 331 525 302 c 0
 534 283 538 262 538 241 c 0
 538 228 536 215 534 202 c 0
 525 161 505 125 476 93 c 1xe4
403 418 m 1
 419 426 432 438 441 452 c 0
 452 467 460 481 463 496 c 0
 464 502 464 509 464 513 c 0
 464 526 461 538 454 547 c 0
 444 566 422 577 389 577 c 0
 386 577 384 577 381 577 c 0
 349 577 323 567 304 552 c 0
 283 538 270 516 264 492 c 0
 262 484 261 477 261 470 c 0xea
 261 452 267 436 277 423 c 0
 289 407 306 396 334 396 c 0
 336 396 338 396 341 396 c 0
 367 396 390 405 403 418 c 1
348 117 m 0
 355 125 365 136 373 152 c 0
 381 168 389 186 393 202 c 0
 394 209 394 218 394 225 c 0
 394 239 392 254 387 265 c 0
 377 291 355 306 320 307 c 0
 290 307 262 299 239 277 c 0
 219 260 204 232 197 199 c 0
 194 186 193 174 193 164 c 0xf4
 193 148 196 135 200 125 c 1
 216 102 238 87 267 87 c 0
 268 87 270 87 273 87 c 0
 300 87 326 99 348 117 c 0
EndSplineSet
EndChar
StartChar: nine
Encoding: 57 57 27
Width: 517
Flags: W
HStem: -22 103<228 249> 215 111<281 318> 568 112<363 386>
VStem: 65 129<123 144> 113 119<380 409> 450 120<469 491>
Fore
68 154 m 1xf4
 196 154 l 1
 194 149 194 145 194 139 c 0xf4
 194 129 197 117 206 104 c 0
 218 90 232 81 249 81 c 0
 300 81 339 103 365 144 c 0
 386 177 399 209 405 236 c 0
 406 245 407 252 407 260 c 0
 407 264 406 268 406 273 c 1
 383 251 357 235 328 223 c 0
 313 218 297 215 281 215 c 0
 260 215 244 215 232 218 c 0
 171 229 132 267 119 328 c 0
 116 344 113 361 113 380 c 0xec
 113 399 116 420 120 442 c 0
 130 493 149 534 175 568 c 0
 202 600 233 628 271 648 c 0
 306 670 345 680 386 680 c 0
 393 680 403 679 418 677 c 0
 432 677 452 671 476 663 c 0
 496 651 516 635 534 616 c 0
 551 596 561 574 563 550 c 1
 567 526 570 500 570 471 c 0
 570 435 566 396 557 352 c 0
 545 300 531 251 510 203 c 0
 489 155 468 117 448 90 c 0
 415 46 378 14 339 0 c 0
 300 -14 262 -22 228 -22 c 0
 164 -22 119 -1 94 38 c 0
 74 68 65 96 65 123 c 0
 65 133 65 144 68 154 c 1xf4
435 539 m 1
 422 558 397 568 364 568 c 0
 336 568 309 555 280 529 c 1
 258 508 244 478 236 442 c 0
 233 431 232 419 232 409 c 0xec
 232 389 238 371 249 357 c 0
 264 336 287 326 318 326 c 0
 347 326 374 338 397 358 c 0
 422 380 438 407 445 442 c 0
 448 457 450 470 450 483 c 0
 450 490 450 496 448 503 c 0
 447 521 442 532 435 539 c 1
EndSplineSet
EndChar
StartChar: colon
Encoding: 58 58 28
Width: 282
Flags: W
HStem: 0 130<151 178> 396 130<235 262>
Fore
151 0 m 0
 129 0 116 7 107 20 c 0
 100 28 97 36 97 48 c 0
 97 54 99 59 100 65 c 0
 103 84 112 99 126 112 c 0
 141 125 157 130 178 130 c 0
 200 130 215 125 223 112 c 0
 231 103 233 93 233 81 c 0
 233 75 233 71 232 65 c 0
 228 48 219 33 204 20 c 0
 190 7 173 0 151 0 c 0
235 396 m 0
 213 396 200 403 191 416 c 0
 186 425 183 435 183 447 c 0
 183 451 183 457 184 463 c 0
 187 478 196 493 210 506 c 0
 225 519 241 526 262 526 c 0
 284 526 299 519 307 508 c 0
 313 497 318 487 318 476 c 0
 318 471 316 467 316 463 c 0
 312 444 303 429 289 416 c 0
 274 403 257 396 235 396 c 0
EndSplineSet
EndChar
StartChar: semicolon
Encoding: 59 59 29
Width: 319
Flags: W
HStem: 13 141<174 193> 352 144<239 270>
Fore
239 352 m 0
 216 352 200 358 191 374 c 0
 186 384 181 396 181 409 c 0
 181 415 181 419 183 425 c 0
 187 444 199 461 213 476 c 0
 228 490 246 496 270 496 c 0
 294 496 310 490 319 476 c 0
 325 465 328 454 328 442 c 0
 328 436 328 431 326 425 c 0
 322 405 312 389 297 374 c 0
 281 358 262 352 239 352 c 0
261 71 m 0
 254 26 228 -12 191 -39 c 0
 154 -68 120 -86 90 -88 c 1
 83 -65 l 1
 106 -54 125 -45 139 -35 c 0
 154 -25 165 -9 174 13 c 1
 155 13 141 17 125 28 c 0
 115 36 109 48 109 68 c 0
 109 72 110 78 110 84 c 0
 115 103 125 119 141 135 c 0
 155 148 173 154 193 154 c 0
 222 154 241 146 251 130 c 0
 260 120 264 107 264 91 c 0
 264 86 262 78 261 71 c 0
EndSplineSet
EndChar
StartChar: less
Encoding: 60 60 30
Width: 543
Flags: W
DStem: 97 277 271 332 516 106 541 228 612 558 586 436 120 389 271 332
Fore
97 277 m 5
 120 389 l 5
 612 558 l 5
 586 436 l 5
 271 332 l 5
 541 228 l 5
 516 106 l 5
 97 277 l 5
EndSplineSet
EndChar
StartChar: equal
Encoding: 61 61 31
Width: 543
Flags: W
HStem: 162 115<105 534> 389 110<151 581>
Fore
152 499 m 5
 605 499 l 5
 581 389 l 5
 129 389 l 5
 152 499 l 5
106 277 m 5
 558 277 l 5
 534 162 l 5
 81 162 l 5
 106 277 l 5
EndSplineSet
EndChar
StartChar: greater
Encoding: 62 62 32
Width: 543
Flags: W
DStem: 130 436 157 558 400 332 576 389 400 332 552 277 86 228 61 106
Fore
157 558 m 5
 576 389 l 5
 552 277 l 5
 61 106 l 5
 86 228 l 5
 400 332 l 5
 130 436 l 5
 157 558 l 5
EndSplineSet
EndChar
StartChar: question
Encoding: 63 63 33
Width: 569
Flags: W
HStem: 0 21G<223 362> 571 124<405 428>
VStem: 486 140<503 531>
DStem: 252 136 392 136 223 0 362 0
Fore
381 187 m 1
 268 187 l 1
 278 235 296 273 319 303 c 0
 344 331 377 361 420 389 c 0
 454 409 477 442 484 484 c 0
 486 492 486 497 486 503 c 0
 486 522 480 538 470 550 c 0
 455 564 435 571 410 571 c 0
 383 571 355 563 331 541 c 0
 307 519 291 490 283 450 c 1
 157 450 l 1
 174 529 210 594 268 645 c 1
 316 679 370 695 428 695 c 0
 464 695 496 690 523 679 c 0
 554 667 576 652 589 634 c 0
 613 605 626 570 626 531 c 0
 626 516 624 500 621 484 c 0
 612 447 597 413 577 386 c 0
 571 378 566 370 555 361 c 0
 544 351 535 344 528 339 c 0
 518 332 510 326 500 320 c 0
 492 315 480 307 468 300 c 0
 438 280 418 265 407 251 c 0
 394 235 387 213 381 187 c 1
223 0 m 1
 252 136 l 1
 392 136 l 1
 362 0 l 1
 223 0 l 1
EndSplineSet
EndChar
StartChar: at
Encoding: 64 64 34
Width: 907
Flags: W
HStem: -128 82<414 461> 54 74<659 676> 418 65<562 581> 618 77<595 630>
VStem: 68 94<167 200> 281 95<181 206> 877 86<394 425>
Fore
702 476 m 1
 784 476 l 1
 645 193 l 1
 644 183 642 173 642 164 c 0
 642 155 l 0
 642 154 642 152 642 152 c 0
 642 142 648 136 654 130 c 0
 658 129 666 128 674 128 c 0
 692 128 705 130 718 139 c 1
 738 148 758 161 777 178 c 0
 798 199 812 215 821 229 c 0
 847 267 864 304 873 345 c 0
 876 362 877 378 877 396 c 0
 877 400 877 406 877 412 c 0
 877 436 869 463 850 493 c 0
 832 525 809 547 786 566 c 0
 738 600 677 618 599 618 c 0
 574 618 547 615 518 609 c 0
 483 603 445 584 402 557 c 0
 361 529 322 496 289 463 c 0
 225 399 184 323 167 239 c 0
 164 226 162 213 162 200 c 0
 162 188 164 178 164 168 c 0
 167 144 168 123 175 103 c 0
 184 86 190 71 200 59 c 0
 233 13 286 -17 357 -36 c 0
 383 -42 410 -46 442 -46 c 0
 505 -46 571 -35 641 -12 c 1
 651 -86 l 1
 590 -113 513 -128 419 -128 c 0
 389 -128 365 -126 344 -123 c 0
 315 -117 287 -113 264 -104 c 0
 236 -97 212 -84 186 -62 c 0
 158 -42 133 -16 110 17 c 0
 91 48 80 81 72 119 c 0
 70 139 68 158 68 177 c 0
 68 194 70 210 72 225 c 0
 80 262 90 294 104 325 c 0
 115 354 130 383 152 413 c 0
 171 442 193 470 216 494 c 0
 252 532 296 570 347 606 c 0
 399 641 448 664 502 679 c 0
 542 690 584 695 628 695 c 0
 706 695 773 677 826 641 c 0
 916 580 963 503 963 413 c 0
 963 387 960 361 954 336 c 0
 944 289 925 246 900 209 c 0
 854 142 805 99 751 74 c 0
 722 61 693 54 664 54 c 0
 642 54 626 58 608 62 c 0
 584 68 568 87 555 116 c 1
 519 90 490 72 467 64 c 0
 445 55 425 51 403 51 c 0
 387 51 368 58 344 68 c 0
 320 80 303 97 293 117 c 0
 286 139 281 160 281 181 c 0
 281 191 281 202 284 213 c 0
 286 219 289 231 294 246 c 0
 323 323 371 381 431 423 c 0
 487 464 536 483 581 483 c 0
 593 483 605 481 613 478 c 0
 651 468 671 450 673 419 c 1
 702 476 l 1
425 126 m 1
 457 126 486 135 509 152 c 1
 538 171 561 197 581 232 c 0
 603 268 618 302 624 331 c 0
 625 338 626 345 626 352 c 0
 626 383 610 405 580 415 c 0
 573 416 568 418 564 418 c 0
 550 418 532 413 515 405 c 0
 497 396 480 383 461 368 c 0
 444 354 428 335 413 310 c 0
 399 286 384 261 380 236 c 0
 377 226 376 215 376 206 c 0
 376 190 378 177 384 164 c 0
 392 144 405 130 425 126 c 1
EndSplineSet
EndChar
StartChar: A
Encoding: 65 65 35
Width: 671
Flags: W
HStem: 0 21G<25 167 513 655> 136 116<313 494>
DStem: 406 680 452 516 25 0 313 252 406 680 244 136 25 0 167 0 452 516 568 680 486 252 655 0
Fore
568 680 m 1
 655 0 l 1
 513 0 l 1
 494 136 l 1
 244 136 l 1
 167 0 l 1
 25 0 l 1
 406 680 l 1
 568 680 l 1
452 516 m 1
 313 252 l 1
 486 252 l 1
 452 516 l 1
EndSplineSet
EndChar
StartChar: B
Encoding: 66 66 36
Width: 671
Flags: W
HStem: 0 116<241 414> 291 116<303 466> 564 116<222 517>
VStem: 532 134<219 238> 574 136<501 526>
DStem: 222 680 336 564 77 0 303 407 222 680 278 291 77 0 241 116
Fore
77 0 m 1xf0
 222 680 l 1
 523 680 l 2
 548 680 576 676 608 667 c 0
 637 658 660 645 674 628 c 1
 690 613 702 596 706 581 c 0
 709 576 709 563 710 544 c 0
 710 526 l 0
 710 515 710 506 710 502 c 0xe8
 705 477 695 454 679 429 c 0
 663 405 641 381 615 362 c 1
 632 348 647 326 655 302 c 0
 663 281 667 260 667 236 c 0
 667 231 666 225 666 219 c 1
 657 180 647 148 628 119 c 0
 610 91 589 67 560 46 c 0
 515 14 457 0 383 0 c 2
 77 0 l 1xf0
336 564 m 1
 303 407 l 1
 463 407 l 2
 492 407 516 415 535 429 c 0
 555 444 567 463 571 484 c 0
 573 493 574 500 574 508 c 0
 574 545 550 564 502 564 c 2
 336 564 l 1
278 291 m 1
 241 116 l 1
 405 116 l 2
 432 116 458 122 483 133 c 0
 506 144 523 171 529 212 c 0
 532 222 532 231 532 238 c 0xf0
 532 255 526 268 515 276 c 0
 500 287 477 291 445 291 c 2
 278 291 l 1
EndSplineSet
EndChar
StartChar: C
Encoding: 67 67 37
Width: 671
Flags: W
HStem: -22 121<344 367> 574 116<465 499>
VStem: 99 139<215 244> 600 140<450 494>
Fore
552 232 m 1
 689 232 l 1
 682 199 666 164 641 129 c 0
 615 93 586 65 557 45 c 0
 532 26 499 12 461 0 c 0
 422 -13 383 -22 344 -22 c 0
 341 -22 339 -22 336 -22 c 0
 262 -22 207 1 165 41 c 0
 123 84 103 141 99 215 c 0
 99 246 102 287 112 335 c 0
 123 386 138 428 157 464 c 0
 232 615 347 690 499 690 c 0
 573 690 629 671 673 638 c 0
 718 602 740 554 740 494 c 0
 740 480 738 465 735 450 c 1
 600 450 l 1
 600 454 602 460 602 465 c 0
 602 476 600 489 596 502 c 0
 587 521 576 538 554 552 c 0
 534 566 503 574 465 574 c 0
 457 574 l 0
 425 574 396 560 367 541 c 0
 338 519 315 494 297 465 c 0
 280 438 262 399 251 348 c 0
 244 319 241 293 239 270 c 0
 238 261 238 252 238 242 c 0
 238 231 239 218 242 204 c 0
 252 161 277 128 310 110 c 0
 328 102 345 99 361 99 c 0
 378 99 400 102 423 106 c 0
 467 117 497 136 513 157 c 0
 529 178 544 204 552 232 c 1
EndSplineSet
EndChar
StartChar: D
Encoding: 68 68 38
Width: 671
Flags: W
HStem: 0 116<236 378> 564 116<218 473>
VStem: 577 145<432 460>
DStem: 218 680 332 564 72 0 236 116
Fore
72 0 m 1
 218 680 l 1
 534 680 l 2
 558 680 583 676 608 666 c 0
 629 655 652 639 671 615 c 0
 692 592 703 560 715 521 c 0
 719 503 722 483 722 460 c 0
 722 432 719 403 712 370 c 0
 700 315 684 265 664 223 c 0
 642 180 619 146 596 119 c 0
 564 81 531 54 492 33 c 0
 454 12 415 0 378 0 c 2
 72 0 l 1
332 564 m 1
 236 116 l 1
 348 116 l 2
 418 116 474 148 515 209 c 0
 535 242 555 290 568 352 c 0
 574 383 577 410 577 434 c 0
 577 461 573 484 566 502 c 0
 554 526 541 542 523 551 c 0
 506 558 484 564 458 564 c 2
 332 564 l 1
EndSplineSet
EndChar
StartChar: E
Encoding: 69 69 39
Width: 620
Flags: W
HStem: 0 116<238 581> 291 116<300 602> 564 116<219 686>
DStem: 219 680 334 564 74 0 300 407 219 680 276 291 74 0 238 116
Fore
219 680 m 1
 710 680 l 1
 686 564 l 1
 334 564 l 1
 300 407 l 1
 626 407 l 1
 602 291 l 1
 276 291 l 1
 238 116 l 1
 606 116 l 1
 581 0 l 1
 74 0 l 1
 219 680 l 1
EndSplineSet
EndChar
StartChar: F
Encoding: 70 70 40
Width: 569
Flags: W
HStem: 0 21G<68 209> 291 116<296 568> 564 116<213 666>
DStem: 213 680 329 564 68 0 296 407 213 680 271 291 68 0 209 0
Fore
213 680 m 1
 690 680 l 1
 666 564 l 1
 329 564 l 1
 296 407 l 1
 593 407 l 1
 568 291 l 1
 271 291 l 1
 209 0 l 1
 68 0 l 1
 213 680 l 1
EndSplineSet
EndChar
StartChar: G
Encoding: 71 71 41
Width: 723
Flags: W
HStem: -22 113<345 371> 249 116<467 599> 576 114<483 511>
VStem: 100 136<242 267>
Fore
444 249 m 1
 468 365 l 1
 741 365 l 1
 663 -3 l 1
 579 -3 l 1
 580 81 l 1
 557 61 536 42 519 30 c 1
 502 16 477 4 444 -4 c 0
 416 -14 381 -22 345 -22 c 0
 342 -22 338 -22 335 -22 c 0
 303 -22 278 -14 261 -9 c 1
 239 -4 225 3 213 12 c 0
 199 20 187 29 177 41 c 0
 167 52 160 61 155 65 c 0
 129 99 113 138 104 186 c 0
 102 204 100 223 100 244 c 0
 100 273 103 304 110 335 c 0
 126 406 157 474 203 534 c 0
 249 594 307 641 374 667 c 0
 415 683 460 690 509 690 c 0
 552 690 590 684 626 676 c 0
 663 666 692 645 715 616 c 0
 747 577 763 532 763 483 c 0
 763 477 761 470 761 464 c 1
 632 464 l 1
 629 502 616 529 590 547 c 0
 564 566 531 576 490 576 c 0
 448 576 406 563 364 538 c 1
 335 516 309 487 289 450 c 0
 270 413 254 374 245 332 c 0
 239 306 236 283 236 261 c 0
 236 244 238 228 242 215 c 0
 265 141 307 100 371 91 c 1
 442 91 496 115 539 155 c 0
 567 184 587 213 599 249 c 1
 444 249 l 1
EndSplineSet
EndChar
StartChar: H
Encoding: 72 72 42
Width: 671
Flags: W
HStem: 0 21G<64 203 471 613> 307 118<293 536>
DStem: 209 680 348 680 64 0 293 425 209 680 268 307 64 0 203 0 536 307 758 680 471 0 613 0 616 680 758 680 561 425 613 0
Fore
64 0 m 1
 209 680 l 1
 348 680 l 1
 293 425 l 1
 561 425 l 1
 616 680 l 1
 758 680 l 1
 613 0 l 1
 471 0 l 1
 536 307 l 1
 268 307 l 1
 203 0 l 1
 64 0 l 1
EndSplineSet
EndChar
StartChar: I
Encoding: 73 73 43
Width: 258
Flags: W
HStem: 0 21G<59 199>
DStem: 204 680 344 680 59 0 199 0
Fore
344 680 m 1
 199 0 l 1
 59 0 l 1
 204 680 l 1
 344 680 l 1
EndSplineSet
EndChar
StartChar: J
Encoding: 74 74 44
Width: 517
Flags: W
HStem: -22 119<239 254>
VStem: 57 142<133 154>
DStem: 458 680 597 680 349 173 487 162
Fore
458 680 m 1
 597 680 l 1
 487 162 l 2
 477 116 452 77 413 42 c 0
 370 3 315 -20 249 -22 c 0
 245 -22 242 -22 238 -22 c 0
 183 -22 142 -12 115 3 c 0
 96 14 81 29 72 48 c 0
 64 65 58 86 58 106 c 0
 57 115 57 123 57 133 c 0
 57 146 58 160 61 174 c 2
 77 251 l 1
 216 251 l 1
 202 181 l 2
 200 173 199 162 199 154 c 0
 199 142 200 132 203 123 c 0
 209 106 226 97 254 97 c 0
 257 97 258 97 261 97 c 0
 287 97 309 106 323 122 c 0
 336 136 345 152 349 173 c 2
 458 680 l 1
EndSplineSet
EndChar
StartChar: K
Encoding: 75 75 45
Width: 671
Flags: W
HStem: 0 21G<68 209 500 668>
DStem: 213 680 354 680 68 0 290 381 213 680 255 218 68 0 209 0 342 294 455 386 500 0 668 0 621 680 786 680 290 381 455 386
Fore
68 0 m 1
 213 680 l 1
 354 680 l 1
 290 381 l 1
 621 680 l 1
 786 680 l 1
 455 386 l 1
 668 0 l 1
 500 0 l 1
 342 294 l 1
 255 218 l 1
 209 0 l 1
 68 0 l 1
EndSplineSet
EndChar
StartChar: L
Encoding: 76 76 46
Width: 569
Flags: W
HStem: 0 116<239 539>
DStem: 219 680 360 680 74 0 239 116
Fore
219 680 m 1
 360 680 l 1
 239 116 l 1
 564 116 l 1
 539 0 l 1
 74 0 l 1
 219 680 l 1
EndSplineSet
EndChar
StartChar: M
Encoding: 77 77 47
Width: 775
Flags: W
HStem: 0 21G<61 202 323 463 583 724>
DStem: 206 680 319 551 61 0 202 0 700 551 869 680 583 0 724 0
Fore
463 0 m 1
 323 0 l 1
 319 551 l 1
 202 0 l 1
 61 0 l 1
 206 680 l 1
 410 680 l 1
 426 157 l 1
 664 680 l 1
 869 680 l 1
 724 0 l 1
 583 0 l 1
 700 551 l 1
 463 0 l 1
EndSplineSet
EndChar
StartChar: N
Encoding: 78 78 48
Width: 671
Flags: W
HStem: 0 21G<64 203 478 616>
DStem: 209 680 304 474 64 0 203 0 304 474 347 680 478 0 522 213 622 680 761 680 522 213 616 0
Fore
209 680 m 1
 347 680 l 1
 522 213 l 1
 622 680 l 1
 761 680 l 1
 616 0 l 1
 478 0 l 1
 304 474 l 1
 203 0 l 1
 64 0 l 1
 209 680 l 1
EndSplineSet
EndChar
StartChar: O
Encoding: 79 79 49
Width: 723
Flags: W
HStem: -22 122<361 389> 568 124<483 512>
VStem: 100 136<233.818 267> 637 134<393 427>
Fore
763 335 m 0
 753 286 732 236 703 187 c 0
 674 136 642 96 605 64 c 0
 539 7 458 -22 361 -22 c 0
 264 -22 194 7 151 64 c 0
 126 96 113 136 104 187 c 0
 102 209 100 229 100 251 c 0
 100 278 103 307 109 335 c 0
 120 386 141 436 168 483 c 0
 197 532 228 574 267 606 c 0
 334 664 415 692 512 692 c 0
 539 692 566 689 592 683 c 0
 619 677 644 667 666 654 c 0
 687 642 705 626 721 606 c 0
 744 574 758 532 767 483 c 0
 770 463 771 441 771 419 c 0
 771 392 768 364 763 335 c 0
387 100 m 0
 436 100 480 115 521 146 c 0
 547 165 570 191 589 226 c 0
 608 261 621 297 628 335 c 0
 634 361 637 386 637 410 c 0
 637 420 637 432 635 442 c 0
 631 477 619 503 602 522 c 0
 573 554 535 568 486 568 c 0
 435 568 392 554 351 522 c 0
 325 503 303 477 284 444 c 0
 265 409 252 373 244 335 c 0
 239 309 236 284 236 261 c 0
 236 249 236 238 238 228 c 0
 242 193 252 165 270 146 c 0
 299 115 336 100 387 100 c 0
EndSplineSet
EndChar
StartChar: P
Encoding: 80 80 50
Width: 620
Flags: W
HStem: 0 21G<71 212> 242 116<289 446> 564 116<216 488>
VStem: 558 138<510 526>
DStem: 216 680 332 564 71 0 289 358 216 680 262 242 71 0 212 0
Fore
71 0 m 1
 216 680 l 1
 519 680 l 2
 560 680 596 671 629 660 c 0
 663 647 684 618 693 570 c 0
 695 557 696 542 696 526 c 0
 696 509 695 490 690 468 c 0
 680 425 666 389 648 364 c 0
 593 283 519 242 428 242 c 2
 262 242 l 1
 212 0 l 1
 71 0 l 1
332 564 m 1
 289 358 l 1
 444 358 l 2
 478 358 506 378 532 416 c 0
 532 419 536 428 544 441 c 0
 548 452 552 464 555 476 c 0
 558 489 558 500 558 512 c 0
 554 545 528 564 481 564 c 2
 332 564 l 1
EndSplineSet
EndChar
StartChar: Q
Encoding: 81 81 51
Width: 723
Flags: W
HStem: -22 122<362 391> 568 124<485 513>
VStem: 103 135<247 269> 639 137<396 430>
Fore
641 96 m 1
 700 25 l 1
 612 -51 l 1
 550 25 l 1
 490 -7 428 -22 362 -22 c 0
 268 -22 199 7 154 64 c 0
 130 96 116 136 107 186 c 0
 104 206 103 228 103 249 c 0
 103 277 106 306 112 335 c 0
 123 387 144 438 171 484 c 0
 200 532 232 574 270 606 c 0
 338 664 419 692 513 692 c 0
 560 692 600 684 637 670 c 0
 673 655 702 634 722 606 c 0
 748 571 764 531 771 483 c 0
 774 464 776 445 776 425 c 0
 776 396 773 365 766 335 c 0
 757 290 741 248 719 204 c 0
 697 164 670 126 641 96 c 1
470 117 m 1
 415 184 l 1
 502 261 l 1
 564 187 l 1
 593 225 618 274 631 335 c 0
 637 360 639 383 639 406 c 0
 639 419 638 431 637 444 c 0
 632 477 621 503 603 522 c 0
 576 554 538 568 487 568 c 0
 438 568 394 554 354 522 c 0
 329 503 306 477 287 442 c 0
 268 407 254 373 245 335 c 0
 241 312 238 289 238 267 c 0
 238 254 239 241 241 228 c 0
 245 193 257 165 273 146 c 0
 302 115 339 100 389 100 c 0
 418 100 447 106 470 117 c 1
EndSplineSet
EndChar
StartChar: R
Encoding: 82 82 52
Width: 671
Flags: W
HStem: 0 21G<74 215 480 631> 268 118<297 443> 564 116<219 539>
VStem: 474 145<41 59> 505 142<212 229>
DStem: 219 680 335 564 74 0 297 386 219 680 271 268 74 0 215 0
Fore
74 0 m 1xe8
 219 680 l 1
 597 680 l 2
 619 680 638 676 660 667 c 0
 680 658 696 645 709 631 c 0
 722 615 729 594 729 571 c 0
 729 564 731 554 731 545 c 0
 731 538 731 529 729 518 c 0
 728 508 728 500 726 492 c 0
 722 470 715 451 708 434 c 0
 693 406 679 387 661 373 c 0
 644 357 622 342 592 328 c 1
 597 325 602 319 610 315 c 0
 618 310 625 304 632 299 c 0
 638 291 641 283 645 273 c 0
 647 265 648 258 648 251 c 0
 648 245 647 239 647 232 c 0
 647 231 647 231 647 229 c 0xe8
 647 219 641 196 635 160 c 0
 628 119 625 93 622 81 c 0
 621 71 619 64 619 57 c 0
 619 52 619 49 621 46 c 0
 625 38 628 30 637 25 c 1
 631 0 l 1
 480 0 l 1
 476 14 474 28 474 41 c 0xf0
 474 49 474 57 476 64 c 2
 505 200 l 1
 505 204 505 207 505 212 c 0
 505 222 503 231 502 239 c 0
 496 249 487 257 476 262 c 0
 465 267 451 268 435 268 c 2
 271 268 l 1
 215 0 l 1
 74 0 l 1xe8
335 564 m 1
 297 386 l 1
 487 386 l 2
 508 386 528 393 550 412 c 0
 571 429 586 454 592 487 c 0
 593 496 594 505 594 512 c 0
 594 547 571 564 523 564 c 2
 335 564 l 1
EndSplineSet
EndChar
StartChar: S
Encoding: 83 83 53
Width: 620
Flags: W
HStem: -23 114<287 342> 471 21G<536 668> 580 110<414 447>
VStem: 71 135<168 186> 145 132<444 471> 538 138<490 529>
Fore
668 471 m 1xec
 536 471 l 1
 538 477 538 484 538 490 c 0
 538 502 536 513 532 525 c 0
 526 541 513 554 496 566 c 0
 476 576 451 580 420 580 c 0
 342 580 296 554 281 502 c 0
 278 489 277 478 277 471 c 0xec
 277 465 277 460 278 457 c 0
 284 450 294 441 309 434 c 1
 313 429 322 425 342 419 c 0
 364 413 387 409 416 403 c 0
 445 399 463 393 470 392 c 0
 544 378 593 355 616 325 c 0
 632 303 639 277 639 248 c 0
 639 235 638 220 635 204 c 0
 628 171 612 136 590 103 c 0
 568 71 542 45 510 26 c 0
 457 -4 384 -22 287 -23 c 0
 265 -23 238 -17 207 -10 c 0
 175 -1 149 10 130 26 c 0
 106 48 88 74 80 104 c 0
 74 126 71 149 71 171 c 0
 71 181 71 191 72 202 c 1
 209 202 l 1
 207 194 206 187 206 180 c 0xf4
 206 162 212 146 222 130 c 0
 244 104 283 91 342 91 c 0
 362 91 384 96 407 102 c 0
 429 106 445 115 457 123 c 0
 476 138 489 157 494 184 c 0
 496 191 497 197 497 203 c 0
 497 216 493 228 484 238 c 0
 478 249 464 257 448 264 c 0
 431 270 405 277 373 283 c 0
 342 289 316 293 294 299 c 0
 270 303 251 307 233 315 c 0
 210 323 193 335 177 349 c 0
 162 364 154 386 148 409 c 0
 145 420 145 432 145 444 c 0
 145 461 146 481 152 503 c 1
 170 560 204 606 252 641 c 0
 300 673 365 690 447 690 c 0
 486 690 526 686 567 676 c 0
 606 666 638 641 658 605 c 0
 670 583 676 558 676 529 c 0
 676 512 673 493 668 471 c 1xec
EndSplineSet
EndChar
StartChar: T
Encoding: 84 84 54
Width: 569
Flags: W
HStem: 0 21G<219 358> 564 116<157 339 158 677>
DStem: 339 564 478 564 219 0 358 0
Fore
158 680 m 1
 702 680 l 1
 677 564 l 1
 478 564 l 1
 358 0 l 1
 219 0 l 1
 339 564 l 1
 133 564 l 1
 158 680 l 1
EndSplineSet
EndChar
StartChar: U
Encoding: 85 85 55
Width: 671
Flags: W
HStem: -22 122<337 363>
VStem: 110 144<164 184>
DStem: 216 680 357 680 116 212 257 210 615 680 754 680 515 210 654 212
Fore
615 680 m 1
 754 680 l 1
 654 212 l 2
 634 116 579 46 483 7 c 0
 435 -13 386 -22 338 -22 c 0
 290 -22 249 -13 212 1 c 1
 145 44 110 97 110 164 c 0
 110 180 113 196 116 212 c 2
 216 680 l 1
 357 680 l 1
 257 210 l 2
 255 200 254 191 254 184 c 0
 254 164 260 148 268 133 c 0
 280 112 312 100 361 100 c 0
 410 100 447 112 471 133 c 0
 494 154 508 180 515 210 c 2
 615 680 l 1
EndSplineSet
EndChar
StartChar: V
Encoding: 86 86 56
Width: 620
Flags: W
HStem: 0 21G<252 373>
Fore
608 680 m 1
 748 680 l 1
 373 0 l 1
 252 0 l 1
 168 680 l 1
 307 680 l 1
 348 167 l 1
 608 680 l 1
EndSplineSet
EndChar
StartChar: W
Encoding: 87 87 57
Width: 878
Flags: W
HStem: 0 21G<202 328 552 679>
VStem: 550 101<0 680>
DStem: 512 680 550 518 302 171 328 0
Fore
157 680 m 1
 306 680 l 1
 302 171 l 1
 512 680 l 1
 660 680 l 1
 651 164 l 1
 866 680 l 1
 1014 680 l 1
 679 0 l 1
 552 0 l 1
 550 518 l 1
 328 0 l 1
 202 0 l 1
 157 680 l 1
EndSplineSet
EndChar
StartChar: X
Encoding: 88 88 58
Width: 620
Flags: W
HStem: 0 21G<22 186 444 608>
Fore
175 680 m 1
 339 680 l 1
 413 461 l 1
 584 680 l 1
 748 680 l 1
 467 348 l 1
 608 0 l 1
 444 0 l 1
 364 231 l 1
 186 0 l 1
 22 0 l 1
 309 342 l 1
 175 680 l 1
EndSplineSet
EndChar
StartChar: Y
Encoding: 89 89 59
Width: 620
Flags: W
HStem: 0 21G<249 389>
DStem: 303 252 442 252 249 0 389 0
Fore
594 680 m 1
 751 680 l 1
 442 252 l 1
 389 0 l 1
 249 0 l 1
 303 252 l 1
 170 680 l 1
 325 680 l 1
 402 387 l 1
 594 680 l 1
EndSplineSet
MinimumDistance: x6,1 
EndChar
StartChar: Z
Encoding: 90 90 60
Width: 569
Flags: W
HStem: 0 116<216 539> 563 117<172 494>
DStem: 494 563 660 564 52 116 216 116
Fore
173 680 m 1
 684 680 l 1
 660 564 l 1
 216 116 l 1
 564 116 l 1
 539 0 l 1
 28 0 l 1
 52 116 l 1
 494 563 l 1
 148 564 l 1
 173 680 l 1
EndSplineSet
EndChar
StartChar: bracketleft
Encoding: 91 91 61
Width: 308
Flags: W
HStem: 587 93<207 412>
DStem: 207 680 309 587 22 -188 165 -91
Fore
412 587 m 1
 309 587 l 1
 165 -91 l 1
 268 -91 l 1
 246 -188 l 1
 22 -188 l 1
 207 680 l 1
 432 680 l 1
 412 587 l 1
EndSplineSet
EndChar
StartChar: backslash
Encoding: 92 92 62
Width: 258
Flags: W
DStem: 129 660 200 660 196 -20 264 -20
Fore
129 660 m 1
 200 660 l 1
 264 -20 l 1
 196 -20 l 1
 129 660 l 1
EndSplineSet
EndChar
StartChar: bracketright
Encoding: 93 93 63
Width: 308
Flags: W
HStem: -188 97<-4 202>
DStem: 244 587 387 680 100 -91 202 -188
Fore
141 587 m 1
 161 680 l 1
 387 680 l 1
 202 -188 l 1
 -25 -188 l 1
 -3 -91 l 1
 100 -91 l 1
 244 587 l 1
 141 587 l 1
EndSplineSet
EndChar
StartChar: asciicircum
Encoding: 94 94 64
Width: 543
Flags: W
DStem: 351 648 386 531 112 252 216 252 386 531 465 648 435 252 541 252
Fore
112 252 m 1
 351 648 l 1
 465 648 l 1
 541 252 l 1
 435 252 l 1
 386 531 l 1
 216 252 l 1
 112 252 l 1
EndSplineSet
EndChar
StartChar: underscore
Encoding: 95 95 65
Width: 517
Flags: W
HStem: -187 65<-49 500>
Fore
513 -122 m 1
 500 -187 l 1
 -61 -187 l 1
 -48 -122 l 1
 513 -122 l 1
EndSplineSet
EndChar
StartChar: grave
Encoding: 96 96 66
Width: 378
VWidth: 2048
Flags: W
HStem: 550 129<184 450>
Fore
450 550 m 5
 336 550 l 1
 184 679 l 1
 370 679 l 1
 450 550 l 5
EndSplineSet
EndChar
StartChar: a
Encoding: 97 97 67
Width: 517
Flags: W
HStem: -22 109<151 262> 419 94<338 360>
VStem: 416 122<374 396>
Fore
489 0 m 1
 351 0 l 1
 347 9 344 17 344 29 c 0
 344 35 345 42 347 51 c 1
 325 33 300 16 268 1 c 0
 238 -13 199 -22 151 -22 c 1
 83 -13 48 22 48 84 c 0
 48 99 49 116 54 135 c 0
 62 175 84 212 112 239 c 0
 138 267 180 286 235 293 c 1
 278 294 323 303 370 316 c 1
 394 326 410 345 416 374 c 0
 416 377 418 380 418 383 c 0
 418 393 412 402 402 407 c 0
 389 416 367 419 338 419 c 0
 304 418 280 409 265 394 c 0
 252 380 242 361 236 338 c 1
 113 338 l 1
 139 454 220 513 358 513 c 0
 409 513 447 506 473 494 c 0
 518 476 538 444 538 396 c 0
 538 383 536 370 534 354 c 2
 474 77 l 2
 473 72 473 68 473 64 c 0
 473 48 480 32 493 17 c 1
 489 0 l 1
381 210 m 2
 387 238 l 1
 368 229 345 223 313 218 c 0
 283 215 264 213 260 212 c 0
 242 209 228 202 213 190 c 0
 199 178 188 164 186 148 c 0
 184 144 184 138 184 129 c 0
 187 122 190 113 194 106 c 0
 197 100 206 96 216 91 c 0
 228 88 242 87 262 87 c 1
 299 91 328 106 344 128 c 0
 361 149 374 175 381 210 c 2
EndSplineSet
EndChar
StartChar: b
Encoding: 98 98 68
Width: 569
Flags: W
HStem: -22 112<309 328> 400 113<380 438>
VStem: 461 136<287 320>
DStem: 200 680 331 680 55 0 278 436
Fore
55 0 m 1
 200 680 l 1
 331 680 l 1
 278 436 l 1
 313 487 368 513 438 513 c 0
 522 512 573 474 589 400 c 0
 594 371 597 345 597 320 c 0
 597 296 594 274 590 252 c 0
 580 204 554 152 519 96 c 0
 499 67 480 45 458 28 c 1
 438 10 416 -1 392 -10 c 0
 365 -17 339 -22 310 -22 c 0
 258 -20 220 4 196 51 c 1
 186 0 l 1
 55 0 l 1
380 400 m 0
 342 400 309 380 281 342 c 0
 258 312 245 278 238 244 c 0
 235 226 232 210 232 194 c 0
 232 177 235 162 239 146 c 0
 251 109 276 90 313 90 c 0
 354 90 387 109 412 146 c 0
 434 177 450 210 457 244 c 0
 460 258 461 274 461 287 c 0
 461 307 458 325 454 342 c 0
 450 364 438 378 426 387 c 0
 412 394 397 400 380 400 c 0
EndSplineSet
EndChar
StartChar: c
Encoding: 99 99 69
Width: 517
Flags: W
HStem: -22 109<255 286> 400 113<345 374>
VStem: 74 136<178 190>
Fore
554 316 m 1
 429 316 l 1
 428 351 422 374 409 383 c 0
 397 393 378 400 351 400 c 0
 349 400 348 400 348 400 c 0
 306 400 271 374 245 326 c 0
 242 320 241 316 238 310 c 0
 235 303 233 293 228 280 c 0
 223 267 219 254 216 241 c 0
 213 222 210 204 210 188 c 0
 210 186 210 181 210 178 c 0
 212 142 218 117 232 106 c 0
 244 96 261 88 286 87 c 0
 309 87 329 91 348 103 c 0
 365 115 383 139 400 177 c 1
 525 177 l 1
 519 148 502 117 477 90 c 0
 454 62 432 39 412 25 c 0
 389 9 367 -3 347 -10 c 0
 323 -16 293 -22 255 -22 c 0
 246 -22 l 0
 202 -22 164 -10 139 10 c 0
 110 30 94 58 84 88 c 0
 77 112 72 132 72 154 c 0
 72 161 72 168 74 175 c 0
 74 193 77 216 83 244 c 0
 94 297 112 339 132 370 c 0
 160 412 186 442 212 464 c 0
 238 484 261 499 286 503 c 0
 307 508 338 513 374 513 c 0
 383 513 l 0
 439 513 478 500 502 484 c 0
 525 468 539 444 550 407 c 0
 554 384 557 362 557 345 c 0
 557 335 555 325 554 316 c 1
EndSplineSet
EndChar
StartChar: d
Encoding: 100 100 70
Width: 569
Flags: W
HStem: -22 112<244 287> 402 111<339 361>
VStem: 72 134<169 203>
DStem: 522 680 652 680 470 436 508 -3
Fore
652 680 m 1
 508 -3 l 1
 377 -3 l 1
 387 51 l 1
 367 26 342 10 318 -1 c 0
 290 -13 265 -22 244 -22 c 0
 235 -22 l 0
 209 -22 187 -16 170 -10 c 0
 148 -1 129 10 116 28 c 0
 103 45 93 67 86 96 c 0
 77 128 72 157 72 186 c 0
 72 203 74 219 78 236 c 0
 88 294 112 349 144 399 c 0
 191 471 258 512 341 513 c 0
 415 513 458 487 470 436 c 1
 522 680 l 1
 652 680 l 1
354 402 m 0
 316 402 283 381 252 344 c 1
 232 312 219 278 212 246 c 0
 207 229 206 210 206 191 c 0
 206 177 207 161 210 146 c 1
 225 109 249 90 287 90 c 0
 325 90 358 109 386 146 c 1
 407 178 422 212 429 246 c 0
 434 264 435 281 435 299 c 0
 435 313 434 329 428 344 c 0
 418 381 392 402 354 402 c 0
EndSplineSet
EndChar
StartChar: e
Encoding: 101 101 71
Width: 517
Flags: W
HStem: -22 108<248 297> 212 88<216 534> 405 108<340 364>
VStem: 420 130<329 348>
Fore
534 212 m 1
 197 212 l 1
 193 191 191 175 191 161 c 0
 191 149 193 139 196 130 c 0
 206 113 219 102 233 96 c 0
 249 88 271 86 297 86 c 1
 318 90 335 97 352 106 c 0
 367 117 378 129 384 142 c 1
 513 142 l 1
 499 112 476 81 447 58 c 0
 416 33 383 13 348 0 c 0
 312 -14 278 -22 248 -22 c 0
 204 -22 164 -9 125 16 c 1
 106 30 90 49 80 71 c 0
 68 91 62 115 59 138 c 0
 61 161 61 180 64 199 c 0
 74 244 83 280 91 306 c 0
 115 367 141 412 175 442 c 0
 210 474 241 493 273 502 c 0
 302 509 332 513 362 513 c 0
 409 513 447 505 476 484 c 0
 502 467 522 442 534 415 c 0
 542 393 548 370 550 348 c 0
 550 323 548 302 547 281 c 0
 544 262 539 239 534 212 c 1
216 300 m 1
 418 300 l 1
 420 310 420 320 420 331 c 0
 420 344 419 358 413 370 c 0
 403 392 383 405 348 405 c 0
 347 405 344 405 342 405 c 0
 309 405 281 393 260 374 c 0
 238 352 222 328 216 300 c 1
EndSplineSet
EndChar
StartChar: f
Encoding: 102 102 72
Width: 308
Flags: W
HStem: 0 21G<84 215> 407 87<116 171 319 378> 581 99<351 412>
DStem: 171 407 302 407 84 0 215 0
Fore
100 407 m 1
 117 494 l 1
 188 494 l 1
 202 554 l 2
 210 593 226 625 252 647 c 0
 278 668 310 680 351 680 c 2
 434 680 l 1
 412 581 l 1
 365 581 l 2
 348 581 336 570 331 547 c 2
 319 494 l 1
 396 494 l 1
 378 407 l 1
 302 407 l 1
 215 0 l 1
 84 0 l 1
 171 407 l 1
 100 407 l 1
EndSplineSet
EndChar
StartChar: g
Encoding: 103 103 73
Width: 569
Flags: W
HStem: -204 89<191 230> -204 145<28 178> -22 106<242 284> 394 119<343 363>
VStem: 26 136<-80 -66>
Fore
489 505 m 1xb8
 612 505 l 1
 502 -13 l 2
 494 -45 480 -74 460 -102 c 0
 439 -128 418 -149 390 -165 c 0
 347 -190 280 -204 191 -204 c 0xb8
 178 -204 l 0
 128 -203 88 -186 59 -155 c 0
 38 -133 26 -107 26 -80 c 0
 26 -74 26 -67 28 -59 c 1
 164 -59 l 1x78
 164 -62 162 -65 162 -68 c 0
 162 -91 186 -107 229 -115 c 1
 265 -115 299 -104 326 -86 c 0
 355 -65 373 -42 377 -17 c 2
 393 52 l 1
 374 36 358 23 345 13 c 0
 331 1 315 -7 299 -12 c 0
 283 -17 262 -22 242 -22 c 0
 207 -22 181 -17 164 -10 c 0
 146 -1 128 13 109 35 c 0
 97 49 88 68 83 90 c 0
 75 112 74 135 72 160 c 0
 74 184 75 209 81 236 c 0
 90 278 106 319 126 357 c 0
 148 396 173 428 202 452 c 0
 248 493 300 513 357 513 c 0
 374 513 390 512 405 506 c 0
 415 502 423 494 434 489 c 0
 439 480 447 474 451 465 c 0
 458 457 464 444 473 429 c 1
 489 505 l 1xb8
351 394 m 0
 312 394 277 377 246 339 c 1
 222 304 207 270 200 239 c 0
 197 225 196 210 196 196 c 0
 196 178 199 160 204 141 c 0
 215 103 244 84 284 84 c 0
 325 84 362 103 392 141 c 0
 413 173 426 204 434 239 c 0
 438 258 439 274 439 291 c 0
 439 307 438 323 434 339 c 1
 418 377 390 394 351 394 c 0
EndSplineSet
EndChar
StartChar: h
Encoding: 104 104 74
Width: 569
Flags: W
HStem: 0 21G<62 193 374 505> 399 114<394 448>
DStem: 207 680 329 680 62 0 277 439 207 680 255 294 62 0 193 0 442 319 583 368 374 0 505 0
Fore
329 680 m 1
 277 439 l 1
 320 489 377 513 448 513 c 0
 492 513 531 502 557 478 c 0
 577 463 587 438 587 407 c 0
 587 396 586 383 583 368 c 2
 505 0 l 1
 374 0 l 1
 442 319 l 2
 444 328 445 335 445 342 c 0
 445 354 444 362 442 373 c 0
 436 386 422 393 394 399 c 1
 361 399 332 390 307 374 c 0
 280 355 262 329 255 294 c 2
 193 0 l 1
 62 0 l 1
 207 680 l 1
 329 680 l 1
EndSplineSet
EndChar
StartChar: i
Encoding: 105 105 75
Width: 258
Flags: W
HStem: 0 21G<62 193>
DStem: 170 505 300 505 62 0 193 0
Fore
183 564 m 1
 207 680 l 1
 338 680 l 1
 313 564 l 1
 183 564 l 1
62 0 m 1
 170 505 l 1
 300 505 l 1
 193 0 l 1
 62 0 l 1
EndSplineSet
EndChar
StartChar: j
Encoding: 106 106 76
Width: 258
Flags: W
HStem: -204 107<-41 10.2518>
DStem: 173 505 302 505 52 -61 174 -93
Fore
186 564 m 1
 210 680 l 1
 339 680 l 1
 315 564 l 1
 186 564 l 1
52 -61 m 2
 173 505 l 1
 302 505 l 1
 174 -93 l 2
 171 -110 165 -125 157 -139 c 0
 145 -154 136 -167 122 -177 c 0
 107 -188 94 -194 77 -197 c 0
 45 -202 7 -204 -41 -204 c 1
 -17 -97 l 1
 6 -97 22 -96 33 -90 c 0
 42 -86 49 -75 52 -61 c 2
EndSplineSet
EndChar
StartChar: k
Encoding: 107 107 77
Width: 517
Flags: W
HStem: 0 21G<55 186 357 512>
DStem: 200 680 331 680 55 0 251 307 200 680 219 157 55 0 186 0 458 505 608 505 251 307 396 313
Fore
200 680 m 1
 331 680 l 1
 251 307 l 1
 458 505 l 1
 608 505 l 1
 396 313 l 1
 512 0 l 1
 357 0 l 1
 286 216 l 1
 219 157 l 1
 186 0 l 1
 55 0 l 1
 200 680 l 1
EndSplineSet
EndChar
StartChar: l
Encoding: 108 108 78
Width: 258
Flags: W
HStem: 0 21G<62 193>
DStem: 207 680 338 680 62 0 193 0
Fore
207 680 m 1
 338 680 l 1
 193 0 l 1
 62 0 l 1
 207 680 l 1
EndSplineSet
EndChar
StartChar: m
Encoding: 109 109 79
Width: 827
Flags: W
HStem: 0 21G<55 186 348 477 638 768> 402 114<657 712>
VStem: 712 136<348 405>
DStem: 162 505 251 310 55 0 186 0 422 348 542 310 348 0 477 0 712 348 842 351 638 0 768 0
Fore
186 0 m 1
 55 0 l 1
 162 505 l 1
 293 505 l 1
 277 429 l 1
 304 461 332 481 355 493 c 0
 380 506 412 513 451 513 c 1
 483 509 502 503 513 493 c 0
 526 483 539 465 555 439 c 1
 577 464 602 483 625 496 c 0
 650 509 677 516 712 516 c 0
 719 516 729 515 748 513 c 0
 816 505 848 467 848 405 c 0
 848 389 847 370 842 351 c 2
 768 0 l 1
 638 0 l 1
 712 348 l 2
 712 351 713 355 713 358 c 0
 713 383 695 396 657 402 c 1
 626 402 600 392 581 373 c 0
 558 351 547 331 542 310 c 2
 477 0 l 1
 348 0 l 1
 422 348 l 1
 420 381 402 400 361 402 c 0
 336 402 313 393 291 377 c 0
 270 362 258 339 251 310 c 2
 186 0 l 1
EndSplineSet
EndChar
StartChar: n
Encoding: 110 110 80
Width: 569
Flags: W
HStem: 0 21G<59 188 378 509> 407 106<370 423>
VStem: 450 137<351 390>
DStem: 167 505 257 323 59 0 188 0 444 310 581 339 378 0 509 0
Fore
59 0 m 1
 167 505 l 1
 296 505 l 1
 280 429 l 1
 299 455 320 477 347 492 c 0
 373 506 399 513 423 513 c 0
 532 513 587 473 587 390 c 0
 587 374 586 358 581 339 c 2
 509 0 l 1
 378 0 l 1
 444 310 l 2
 447 325 450 339 450 351 c 0
 450 362 447 373 444 381 c 0
 436 400 412 407 370 407 c 1
 335 403 310 393 291 377 c 0
 276 362 261 344 257 323 c 2
 188 0 l 1
 59 0 l 1
EndSplineSet
EndChar
StartChar: o
Encoding: 111 111 81
Width: 569
Flags: W
HStem: -23 113<277 302> 402 111<364 390>
VStem: 77 135<170 204> 458 134<293 329>
Fore
277 -23 m 0
 207 -23 152 -1 115 39 c 0
 94 62 84 91 80 129 c 0
 78 142 77 155 77 170 c 0
 77 194 80 219 86 246 c 0
 94 287 109 326 129 364 c 0
 149 402 173 431 202 452 c 0
 255 493 319 513 390 513 c 0
 463 513 516 493 551 452 c 0
 571 429 586 400 590 364 c 0
 592 352 592 341 592 329 c 0
 592 303 589 276 583 246 c 0
 574 204 560 165 541 129 c 0
 519 91 493 62 464 39 c 0
 412 -1 348 -23 277 -23 c 0
367 402 m 0
 326 402 291 383 262 345 c 0
 239 315 223 281 216 246 c 0
 213 232 212 218 212 204 c 0
 212 184 215 165 220 148 c 0
 233 110 260 90 300 90 c 0
 339 90 376 110 407 148 c 1
 431 181 445 215 452 246 c 0
 455 262 458 277 458 293 c 0
 458 310 455 328 450 345 c 0
 436 386 406 402 367 402 c 0
EndSplineSet
EndChar
StartChar: p
Encoding: 112 112 82
Width: 569
Flags: W
HStem: -22 109<307 318> 399 114<378 426>
VStem: 460 133<290 322>
DStem: 161 505 196 52 10 -204 141 -204
Fore
161 505 m 1
 291 505 l 1
 276 429 l 1
 284 439 294 450 309 461 c 0
 319 471 329 480 342 489 c 0
 351 494 364 502 377 506 c 0
 392 512 409 513 426 513 c 0
 484 513 528 493 557 452 c 0
 574 428 586 396 592 358 c 0
 593 347 593 334 593 322 c 0
 593 294 590 265 584 236 c 0
 574 194 561 157 542 123 c 0
 523 87 502 58 473 35 c 0
 447 13 423 -1 400 -10 c 0
 377 -17 351 -22 316 -22 c 0
 294 -22 274 -17 261 -12 c 0
 248 -7 236 1 228 12 c 0
 218 20 207 35 196 52 c 1
 141 -204 l 1
 10 -204 l 1
 161 505 l 1
378 399 m 0
 341 399 306 378 277 341 c 1
 255 304 242 273 235 242 c 0
 232 226 231 210 231 193 c 0
 231 177 232 161 235 144 c 1
 249 106 276 87 313 87 c 0
 351 87 384 106 412 144 c 1
 434 180 448 213 454 242 c 0
 458 258 460 273 460 290 c 0
 460 306 458 322 454 341 c 1
 441 378 416 399 378 399 c 0
EndSplineSet
EndChar
StartChar: q
Encoding: 113 113 83
Width: 569
Flags: W
HStem: -22 100<236 283> 374 20G<332 370>
VStem: 68 134<162 190>
DStem: 389 52 613 503 334 -204 463 -204
Fore
613 503 m 1
 463 -204 l 1
 334 -204 l 1
 389 52 l 1
 370 36 354 23 341 13 c 0
 326 1 310 -7 294 -12 c 0
 277 -17 258 -22 236 -22 c 0
 202 -22 174 -17 158 -10 c 0
 139 -1 120 12 103 35 c 0
 86 58 74 87 71 123 c 0
 70 136 68 149 68 162 c 0
 68 187 71 212 77 236 c 0
 86 278 102 319 122 357 c 0
 144 394 168 428 196 452 c 0
 218 470 241 484 265 496 c 0
 287 508 318 513 351 513 c 0
 387 512 413 505 431 490 c 0
 447 477 460 457 468 429 c 1
 484 503 l 1
 613 503 l 1
351 394 m 0
 313 394 280 376 252 338 c 0
 231 306 215 274 207 238 c 0
 204 222 202 206 202 190 c 0
 202 173 204 155 209 136 c 0
 219 99 245 78 283 78 c 0
 319 78 355 99 383 136 c 0
 405 167 420 202 428 238 c 0
 431 255 434 273 434 289 c 0
 434 306 431 322 426 338 c 0
 415 376 389 394 351 394 c 0
EndSplineSet
EndChar
StartChar: r
Encoding: 114 114 84
Width: 361
Flags: W
HStem: 0 21G<59 188> 383 130<380 452>
DStem: 167 505 249 286 59 0 188 0
Fore
59 0 m 1
 167 505 l 1
 296 505 l 1
 276 407 l 1
 284 425 294 438 306 450 c 0
 316 461 331 471 355 487 c 0
 384 505 415 513 452 513 c 1
 425 380 l 1
 407 381 393 383 380 383 c 0
 351 383 326 377 304 362 c 0
 283 348 262 323 249 286 c 1
 188 0 l 1
 59 0 l 1
EndSplineSet
EndChar
StartChar: s
Encoding: 115 115 85
Width: 517
Flags: W
HStem: -22 99<245 284> 415 98<326 353>
VStem: 420 130<368 387>
Fore
58 149 m 1
 187 149 l 1
 188 130 193 117 203 109 c 0
 210 99 220 91 233 87 c 0
 246 81 264 77 284 77 c 0
 286 77 289 77 290 77 c 0
 341 77 370 97 377 129 c 0
 378 132 378 136 378 139 c 0
 378 145 376 151 374 157 c 0
 371 165 364 171 352 173 c 2
 200 219 l 2
 162 231 138 249 126 270 c 0
 119 284 116 299 116 315 c 0
 116 323 117 332 119 342 c 0
 130 396 160 441 207 476 c 0
 244 500 293 513 349 513 c 0
 352 513 355 513 360 513 c 0
 419 513 467 500 497 477 c 0
 525 457 542 436 547 415 c 0
 548 406 550 397 550 387 c 0
 550 373 547 358 544 342 c 1
 418 342 l 1
 420 352 420 361 420 368 c 0
 420 374 420 380 419 383 c 0
 413 392 403 400 384 406 c 0
 367 412 352 415 338 415 c 0
 316 415 296 409 277 400 c 0
 262 393 254 381 249 364 c 0
 249 355 l 0
 249 342 255 335 271 331 c 2
 450 280 l 2
 464 276 477 267 490 255 c 0
 503 244 512 231 516 213 c 0
 519 202 521 191 521 181 c 0
 521 173 519 165 518 157 c 0
 510 126 497 96 474 64 c 0
 450 33 416 10 374 -4 c 0
 360 -10 338 -13 313 -16 c 0
 287 -20 265 -22 245 -22 c 0
 197 -20 162 -13 138 -1 c 0
 83 25 55 65 55 119 c 0
 55 129 57 139 58 149 c 1
EndSplineSet
EndChar
StartChar: t
Encoding: 116 116 86
Width: 308
Flags: W
HStem: -22 102<212 246> 407 87<116 164 313 367>
DStem: 164 407 296 407 93 78 235 125 212 632 344 632 181 494 313 494
Fore
117 494 m 1
 181 494 l 1
 212 632 l 1
 344 632 l 1
 313 494 l 1
 384 494 l 1
 367 407 l 1
 296 407 l 1
 235 125 l 2
 233 116 232 107 232 102 c 0
 232 87 236 80 246 80 c 2
 294 78 l 1
 277 -10 l 1
 257 -16 233 -22 212 -22 c 0
 207 -22 203 -22 200 -22 c 0
 180 -22 164 -19 152 -14 c 0
 113 -1 93 28 93 74 c 0
 93 78 l 1
 164 407 l 1
 100 407 l 1
 117 494 l 1
EndSplineSet
EndChar
StartChar: u
Encoding: 117 117 87
Width: 569
Flags: W
HStem: 0 21G<374 505>
VStem: 81 139<104 151>
DStem: 161 505 291 505 87 154 225 191 481 505 612 505 412 178 505 0
Fore
612 505 m 1
 505 0 l 1
 374 0 l 1
 387 62 l 1
 362 35 341 13 319 1 c 0
 300 -10 274 -16 245 -22 c 1
 209 -20 178 -16 155 -10 c 0
 130 -3 112 13 97 39 c 0
 87 57 81 77 81 104 c 0
 81 119 83 135 87 154 c 2
 161 505 l 1
 291 505 l 1
 225 191 l 2
 222 177 220 162 220 151 c 0
 220 139 222 130 226 122 c 0
 233 103 258 96 299 96 c 1
 335 100 361 110 377 125 c 0
 393 139 407 157 412 178 c 2
 481 505 l 1
 612 505 l 1
EndSplineSet
EndChar
StartChar: v
Encoding: 118 118 88
Width: 517
Flags: W
HStem: 0 21G<187 325>
Fore
120 505 m 1
 258 505 l 1
 284 135 l 1
 470 505 l 1
 608 505 l 1
 325 0 l 1
 187 0 l 1
 120 505 l 1
EndSplineSet
EndChar
StartChar: w
Encoding: 119 119 89
Width: 723
Flags: W
HStem: 0 21G<146 280 439 574>
VStem: 436 96<151.098 354.906>
DStem: 399 505 436 355 249 151 280 0
Fore
112 505 m 1
 246 505 l 1
 249 151 l 1
 399 505 l 1
 535 505 l 1
 532 151 l 1
 686 505 l 1
 822 505 l 1
 574 0 l 1
 439 0 l 1
 436 355 l 1
 280 0 l 1
 146 0 l 1
 112 505 l 1
EndSplineSet
EndChar
StartChar: x
Encoding: 120 120 90
Width: 517
Flags: W
HStem: 0 21G<14 171 342 499>
DStem: 233 252 291 149 14 0 171 0
Fore
128 505 m 1
 284 505 l 1
 335 352 l 1
 450 505 l 1
 603 505 l 1
 386 252 l 1
 499 0 l 1
 342 0 l 1
 291 149 l 1
 171 0 l 1
 14 0 l 1
 233 252 l 1
 128 505 l 1
EndSplineSet
EndChar
StartChar: y
Encoding: 121 121 91
Width: 517
Flags: W
HStem: -204 105<35 68>
Fore
116 505 m 1
 260 505 l 1
 291 138 l 1
 474 505 l 1
 609 505 l 1
 265 -104 l 1
 255 -126 236 -148 213 -168 c 0
 197 -184 171 -191 133 -197 c 0
 97 -202 65 -204 35 -204 c 1
 58 -99 l 1
 99 -99 126 -93 141 -86 c 0
 164 -74 178 -54 184 -29 c 0
 186 -20 186 -14 186 -7 c 0
 186 -6 186 -3 186 0 c 2
 116 505 l 1
EndSplineSet
EndChar
StartChar: z
Encoding: 122 122 92
Width: 464
Flags: W
HStem: 0 106<204 436> 399 106<144 352>
DStem: 352 399 513 399 44 106 204 106
Fore
145 505 m 1
 536 505 l 1
 513 399 l 1
 204 106 l 1
 460 106 l 1
 436 0 l 1
 20 0 l 1
 44 106 l 1
 352 399 l 1
 122 399 l 1
 145 505 l 1
EndSplineSet
EndChar
StartChar: braceleft
Encoding: 123 123 93
Width: 361
Flags: W
HStem: -188 91<228 254> 206 87<78 97> 589 91<361 419>
VStem: 145 109<167 186>
DStem: 144 152 249 151 99 -61 207 -48 229 552 332 539 184 338 290 341
Fore
78 206 m 1
 97 293 l 1
 148 293 177 307 184 338 c 2
 229 552 l 2
 238 592 255 622 286 645 c 0
 315 668 339 680 361 680 c 2
 439 680 l 1
 419 589 l 1
 386 589 l 2
 367 589 354 584 348 577 c 0
 339 568 335 555 332 539 c 2
 290 341 l 2
 280 290 242 260 183 249 c 1
 206 246 225 238 239 226 c 0
 249 218 254 204 254 186 c 0
 254 175 252 164 249 151 c 2
 207 -48 l 2
 206 -54 206 -59 206 -64 c 0
 206 -72 207 -78 209 -84 c 0
 212 -91 222 -97 241 -97 c 2
 274 -97 l 1
 254 -188 l 1
 175 -188 l 2
 154 -188 135 -177 115 -154 c 0
 102 -138 94 -117 94 -94 c 0
 94 -84 96 -72 99 -61 c 2
 144 152 l 2
 145 157 145 162 145 167 c 0
 145 193 122 206 78 206 c 1
EndSplineSet
EndChar
StartChar: bar
Encoding: 124 124 94
Width: 259
Flags: W
DStem: 238 680 312 680 52 -188 126 -188
Fore
312 680 m 1
 126 -188 l 1
 52 -188 l 1
 238 680 l 1
 312 680 l 1
EndSplineSet
EndChar
StartChar: braceright
Encoding: 125 125 95
Width: 361
Flags: W
HStem: 206 87<368 390>
VStem: 212 111<310 328> 261 112<563 584>
DStem: 175 151 284 152 133 -48 239 -61 258 539 370 552 216 341 325 339
Fore
390 293 m 1xc0
 371 206 l 1
 348 206 331 203 315 194 c 0
 299 187 290 174 284 152 c 2
 239 -61 l 2
 231 -102 210 -133 181 -154 c 0
 152 -177 126 -188 106 -188 c 2
 26 -188 l 1
 46 -97 l 1
 81 -97 l 2
 102 -97 115 -91 120 -84 c 0
 126 -75 130 -64 133 -48 c 2
 175 151 l 2
 188 212 228 244 289 251 c 1
 264 252 244 261 229 273 c 0
 218 280 212 291 212 310 c 0xc0
 212 319 213 329 216 341 c 2
 258 539 l 2
 260 551 261 561 261 570 c 0
 261 573 261 574 261 577 c 0xa0
 258 584 248 590 228 590 c 2
 193 590 l 1
 212 680 l 1xc0
 291 680 l 2
 306 680 319 676 334 667 c 0
 345 657 358 642 367 622 c 0
 371 610 373 599 373 584 c 0xa0
 373 574 373 564 370 552 c 2
 325 339 l 2
 323 335 323 332 323 328 c 0
 323 304 345 293 390 293 c 1xc0
EndSplineSet
EndChar
StartChar: asciitilde
Encoding: 126 126 96
Width: 543
Flags: W
Fore
157 162 m 1
 90 162 l 1
 107 210 130 246 162 270 c 0
 188 290 212 300 236 300 c 0
 254 300 271 293 286 283 c 2
 370 229 l 2
 387 218 402 212 415 212 c 0
 444 212 461 231 470 270 c 1
 541 270 l 1
 536 251 529 232 522 216 c 0
 512 200 496 181 474 164 c 0
 450 142 428 133 406 133 c 0
 387 133 365 139 344 154 c 2
 251 210 l 2
 238 218 225 223 213 223 c 0
 199 223 186 216 178 204 c 0
 170 193 162 180 157 162 c 1
EndSplineSet
EndChar
StartChar: uni0E10.descless
Encoding: 128 63232 97
Width: 517
Flags: W
HStem: 0 21G<319 423> 135 65<204 221> 287 68<236 251> 457 75<513 531> 500 70<336 356>
VStem: 115 69<219 235> 393 97<323 345>
Fore
319 0 m 1xee
 319 3 319 7 319 12 c 0
 319 36 315 68 309 106 c 0
 300 149 296 171 293 171 c 1
 289 165 280 157 264 148 c 0
 248 139 229 135 204 135 c 0
 170 135 144 146 130 167 c 0
 120 183 115 199 115 219 c 0
 115 226 116 235 117 244 c 0
 123 274 139 300 164 320 c 0
 187 342 216 354 251 355 c 0
 281 355 306 349 323 338 c 0
 338 325 345 303 349 274 c 0
 354 261 358 244 362 225 c 0
 367 204 368 194 368 193 c 2
 386 270 l 2
 390 293 393 310 393 325 c 0
 393 336 392 344 387 349 c 0
 378 361 357 370 323 380 c 0
 287 390 252 400 215 406 c 0
 177 413 148 418 129 419 c 1
 138 455 l 1
 171 492 206 519 241 541 c 0
 274 560 312 570 352 570 c 0xee
 384 570 419 566 455 552 c 0
 490 541 515 532 529 532 c 0
 547 532 570 538 594 547 c 1
 594 547 594 538 594 519 c 0
 596 512 596 505 596 497 c 0
 596 487 596 478 594 471 c 1
 563 463 535 457 513 457 c 0xf6
 499 457 486 458 476 461 c 0
 464 464 448 470 426 478 c 0
 403 487 386 492 374 494 c 0
 365 499 352 500 338 500 c 0
 323 500 310 496 294 490 c 0
 278 483 267 477 264 471 c 1
 277 470 297 467 328 463 c 0
 357 457 377 452 392 447 c 0
 444 432 476 413 484 389 c 0
 489 377 490 362 490 345 c 0
 490 325 487 302 481 274 c 2
 423 0 l 1
 319 0 l 1xee
218 200 m 0
 232 200 244 204 251 213 c 0
 262 222 267 231 270 244 c 0
 270 246 271 251 271 254 c 0
 271 261 268 268 264 274 c 0
 260 281 251 287 236 287 c 0
 222 287 210 281 202 274 c 0
 193 265 187 255 186 244 c 0
 184 241 184 238 184 233 c 0
 184 228 186 222 188 215 c 0
 196 206 206 202 218 200 c 0
EndSplineSet
EndChar
StartChar: uni0E34.left
Encoding: 129 63233 98
Width: 0
Flags: W
HStem: 705 68<-365 -334.981> 824 66<-270 -249>
Fore
-244 890 m 0
 -203 890 -171 877 -148 857 c 0
 -126 840 -112 818 -104 793 c 0
 -96 768 -90 742 -90 715 c 0
 -90 699 -91 687 -91 677 c 0
 -91 667 -90 658 -90 652 c 1
 -107 657 -128 666 -161 676 c 0
 -194 683 -233 692 -277 697 c 0
 -306 703 -341 705 -381 705 c 0
 -413 705 -441 703 -465 702 c 0
 -490 700 -509 697 -521 696 c 1
 -500 753 -464 798 -415 834 c 0
 -365 870 -310 890 -249 890 c 0
 -248 890 -245 890 -244 890 c 0
-258 824 m 1
 -289 824 -316 819 -342 808 c 0
 -367 796 -384 784 -392 770 c 1
 -387 771 -377 771 -365 773 c 0
 -354 773 -341 773 -326 773 c 0
 -312 773 -293 771 -268 770 c 0
 -238 767 -212 761 -193 757 c 0
 -177 751 -165 745 -158 742 c 1
 -171 790 -204 818 -258 824 c 1
EndSplineSet
EndChar
StartChar: uni0E35.left
Encoding: 130 63234 99
Width: 0
Flags: W
HStem: 708 69<-362 -297> 828 65<-251 -232>
DStem: -99 953 -12 953 -120 854 -61 726
Fore
-225 893 m 0
 -193 893 -170 884 -154 877 c 0
 -136 867 -125 858 -120 854 c 1
 -99 953 l 1
 -12 953 l 1
 -61 726 l 1
 -59 726 -58 710 -58 679 c 0
 -58 652 l 1
 -75 657 -102 667 -142 679 c 0
 -180 690 -219 696 -255 702 c 0
 -286 706 -320 708 -362 708 c 0
 -387 708 -406 708 -423 706 c 0
 -439 705 -455 705 -471 703 c 0
 -489 702 -497 700 -499 700 c 1
 -487 734 -468 766 -439 796 c 0
 -413 828 -383 848 -344 867 c 0
 -309 882 -271 893 -232 893 c 0
 -229 893 -228 893 -225 893 c 0
-241 828 m 1
 -268 828 -293 822 -319 811 c 0
 -347 799 -364 786 -373 771 c 1
 -367 773 -358 773 -347 774 c 0
 -335 777 -318 777 -297 777 c 0
 -286 777 -268 774 -249 773 c 0
 -218 770 -193 766 -175 760 c 0
 -157 754 -145 748 -139 745 c 1
 -144 767 -152 783 -168 798 c 0
 -183 812 -206 822 -241 828 c 1
EndSplineSet
EndChar
StartChar: uni0E36.left
Encoding: 131 63235 100
Width: 0
Flags: W
HStem: 708 69<-378 -344.862> 828 65<-281 -257> 898 63<-135 -119>
VStem: -112 70<874 882>
Fore
-42 880 m 1
 -52 831 -74 799 -107 784 c 1
 -103 774 -99 758 -94 735 c 0
 -90 710 -90 683 -90 652 c 1
 -109 657 -135 667 -174 679 c 0
 -212 690 -252 696 -289 702 c 0
 -318 706 -354 708 -394 708 c 0
 -419 708 -439 708 -455 706 c 0
 -471 705 -489 705 -505 703 c 0
 -521 702 -531 700 -532 700 c 1
 -521 734 -502 766 -473 796 c 0
 -445 828 -415 848 -376 867 c 0
 -341 883 -300 893 -257 893 c 0
 -252 893 -246 893 -238 892 c 0
 -229 890 -226 890 -226 887 c 1
 -222 902 -209 918 -191 935 c 0
 -173 954 -149 961 -119 961 c 0
 -93 961 -72 954 -59 938 c 0
 -48 924 -42 905 -42 880 c 1
-274 828 m 1
 -302 828 -326 822 -352 811 c 0
 -380 799 -396 789 -405 773 c 1
 -399 774 -390 774 -378 777 c 0
 -367 777 -352 777 -338 777 c 0
 -323 777 -304 774 -281 773 c 0
 -251 770 -226 766 -207 760 c 0
 -190 754 -178 748 -171 745 c 1
 -177 767 -186 783 -200 798 c 0
 -216 812 -239 822 -274 828 c 1
-146 841 m 0
 -138 841 -130 844 -123 850 c 0
 -119 856 -115 861 -112 870 c 0
 -112 874 l 0
 -112 879 -113 884 -116 887 c 0
 -120 895 -125 898 -133 898 c 0
 -151 898 -164 887 -167 870 c 0
 -168 866 -168 863 -168 860 c 0
 -168 847 -161 841 -146 841 c 0
EndSplineSet
EndChar
StartChar: uni0E37.left
Encoding: 132 63236 101
Width: 0
Flags: W
HStem: 708 69<-362 -297> 828 65<-244 -222>
DStem: -94 953 -12 953 -116 850 -61 726
Fore
-116 850 m 1
 -94 953 l 1
 -12 953 l 1
 -61 726 l 1
 -59 726 -58 710 -58 679 c 0
 -58 652 l 1
 -75 657 -102 667 -142 679 c 0
 -180 690 -219 696 -255 702 c 0
 -286 706 -320 708 -362 708 c 0
 -387 708 -406 708 -423 706 c 0
 -439 705 -455 705 -471 703 c 0
 -489 702 -497 700 -499 700 c 1
 -464 779 -419 831 -371 856 c 0
 -320 880 -271 893 -222 893 c 1
 -209 953 l 1
 -132 953 l 1
 -149 873 l 1
 -144 873 -133 866 -116 850 c 1
-241 828 m 1
 -268 828 -293 822 -319 811 c 0
 -347 799 -364 786 -373 771 c 1
 -367 773 -358 773 -347 774 c 0
 -335 777 -318 777 -297 777 c 0
 -286 777 -268 774 -249 773 c 0
 -218 770 -193 766 -175 760 c 0
 -157 754 -145 748 -139 745 c 1
 -144 767 -152 783 -168 798 c 0
 -183 812 -206 822 -241 828 c 1
EndSplineSet
EndChar
StartChar: ellipsis
Encoding: 133 8230 102
Width: 859
VWidth: 2048
Flags: W
Fore
515 51 m 4
 508 12 474 -12 416 -20 c 5
 365 -20 341 0 341 42 c 0
 341 45 341 46 341 49 c 5
 351 99 387 123 445 123 c 4
 470 123 490 115 503 102 c 4
 512 91 518 81 518 67 c 0
 518 62 516 57 515 51 c 4
784 51 m 5
 777 12 744 -12 686 -20 c 5
 638 -20 612 0 612 39 c 0
 612 42 612 46 612 49 c 5
 622 99 657 123 715 123 c 4
 740 123 758 115 774 102 c 5
 782 91 786 81 786 67 c 0
 786 62 786 57 784 51 c 5
246 51 m 4
 236 3 202 -20 145 -20 c 4
 96 -20 71 -3 71 30 c 0
 71 36 72 44 74 51 c 4
 84 99 117 123 175 123 c 4
 223 123 249 106 249 70 c 0
 249 64 248 58 246 51 c 4
EndSplineSet
EndChar
StartChar: uni0E48.low_left
Encoding: 134 63237 103
Width: 0
Flags: W
DStem: -145 908 -49 908 -197 658 -102 658
Fore
-197 658 m 1
 -145 908 l 1
 -49 908 l 1
 -102 658 l 1
 -197 658 l 1
EndSplineSet
EndChar
StartChar: uni0E49.low_left
Encoding: 135 63238 104
Width: 0
Flags: W
HStem: 860 69<-244 -228>
VStem: -351 70<809 822> -216 75<829 845>
Fore
-144 821 m 0
 -151 790 -161 768 -170 754 c 0
 -183 740 -188 731 -194 729 c 1
 -188 731 -183 731 -174 732 c 0
 -164 734 -157 737 -145 742 c 0
 -133 747 -122 753 -109 760 c 0
 -96 768 -86 777 -75 789 c 0
 -51 824 -33 857 -28 884 c 0
 -25 902 -22 915 -22 922 c 1
 71 922 l 1
 46 803 -10 722 -97 684 c 0
 -148 664 -202 652 -260 652 c 0
 -277 652 -291 652 -304 654 c 0
 -318 655 -326 657 -329 658 c 1
 -323 692 l 1
 -318 693 -309 697 -299 706 c 0
 -289 713 -280 721 -277 729 c 1
 -281 729 -290 732 -307 737 c 0
 -323 742 -334 754 -342 771 c 0
 -347 783 -351 796 -351 809 c 0
 -351 816 -349 824 -348 831 c 0
 -342 858 -328 882 -304 899 c 0
 -283 919 -257 929 -228 929 c 0
 -203 929 -184 924 -171 912 c 0
 -158 902 -149 887 -144 870 c 0
 -142 861 -141 854 -141 845 c 0
 -141 837 -142 829 -144 821 c 0
-255 796 m 0
 -245 796 -236 799 -231 806 c 0
 -223 812 -219 821 -216 829 c 0
 -216 831 -216 832 -216 835 c 0
 -216 840 -218 845 -220 850 c 0
 -223 857 -232 860 -242 860 c 0
 -251 860 -260 857 -265 850 c 0
 -274 844 -278 837 -280 829 c 0
 -281 826 -281 824 -281 822 c 0
 -281 816 -280 812 -276 806 c 0
 -273 799 -267 796 -255 796 c 0
EndSplineSet
EndChar
StartChar: uni0E4A.low_left
Encoding: 136 63239 105
Width: 0
Flags: W
HStem: 645 51<-383 -372> 741 49<-364 -344> 816 64<-231 -203>
VStem: -458 65<719 738> -349 56<719 738> -203 70<787 811> -84 71<851 867>
Fore
-383 645 m 0
 -412 647 -431 658 -445 683 c 0
 -452 699 -458 718 -458 738 c 0
 -458 748 -457 760 -454 771 c 0
 -447 803 -431 828 -410 848 c 0
 -389 870 -364 880 -334 880 c 0
 -313 880 -297 877 -291 869 c 0
 -281 860 -276 856 -273 850 c 1
 -268 856 -260 860 -248 869 c 0
 -233 877 -220 880 -203 880 c 0
 -175 880 -154 871 -144 854 c 0
 -136 841 -133 828 -133 811 c 0
 -133 802 -135 792 -136 782 c 0
 -142 755 -155 731 -173 708 c 1
 -167 709 -160 715 -149 721 c 0
 -139 728 -130 735 -122 747 c 0
 -104 770 -94 793 -88 816 c 0
 -86 831 -84 845 -84 860 c 1
 -14 883 l 1
 -13 879 -13 874 -13 867 c 0
 -13 858 -14 848 -17 835 c 0
 -26 789 -46 748 -77 716 c 0
 -100 692 -125 676 -155 667 c 0
 -184 658 -219 655 -261 655 c 1
 -261 657 -260 660 -260 668 c 0
 -260 677 -258 682 -258 682 c 1
 -252 686 -242 695 -231 708 c 0
 -220 721 -212 740 -207 760 c 0
 -204 770 -203 779 -203 787 c 0
 -203 806 -213 816 -231 816 c 0
 -242 816 -252 812 -260 808 c 0
 -268 803 -274 798 -278 795 c 1
 -281 798 -286 803 -296 809 c 0
 -304 816 -316 819 -331 819 c 0
 -357 819 -373 808 -378 783 c 1
 -377 784 -373 784 -365 786 c 0
 -358 789 -351 790 -344 790 c 0
 -322 789 -307 782 -300 768 c 0
 -294 760 -293 750 -293 738 c 0
 -293 729 -293 721 -296 710 c 0
 -299 693 -310 679 -326 666 c 0
 -344 652 -362 645 -383 645 c 0
-364 741 m 0
 -380 741 -389 734 -393 719 c 0
 -393 715 -393 709 -390 705 c 0
 -384 700 -381 696 -374 696 c 0
 -368 696 -364 697 -357 703 c 0
 -352 708 -349 715 -349 719 c 0
 -348 722 -348 724 -348 726 c 0
 -348 729 -348 731 -349 734 c 0
 -355 740 -358 741 -364 741 c 0
EndSplineSet
EndChar
StartChar: uni0E4B.low_left
Encoding: 137 63240 106
Width: 0
Flags: W
HStem: 753 87<-316 -239 -129 -54>
DStem: -239 753 -148 753 -258 658 -167 658 -200 932 -109 932 -220 840 -129 840
Fore
-239 753 m 1
 -334 753 l 1
 -315 840 l 1
 -220 840 l 1
 -200 932 l 1
 -109 932 l 1
 -129 840 l 1
 -35 840 l 1
 -54 753 l 1
 -148 753 l 1
 -167 658 l 1
 -258 658 l 1
 -239 753 l 1
EndSplineSet
EndChar
StartChar: uni0E4C.low_left
Encoding: 138 63241 107
Width: 0
Flags: W
HStem: 658 66<-187 -176> 786 67<-165 -145> 853 72<-145 -86>
VStem: -291 85<745 750> -139 71<764 780>
Fore
0 864 m 0
 -51 856 -99 853 -145 853 c 0
 -117 853 -97 844 -86 826 c 0
 -74 813 -68 798 -68 780 c 0
 -68 774 -68 767 -70 761 c 0
 -74 734 -90 709 -110 690 c 0
 -132 670 -157 658 -187 658 c 0
 -190 658 -191 658 -193 658 c 0
 -229 658 -255 670 -273 690 c 0
 -286 705 -291 724 -291 747 c 0
 -291 755 -291 766 -289 777 c 0
 -274 841 -239 883 -184 908 c 0
 -160 918 -129 924 -86 925 c 0
 -45 929 -16 934 1 941 c 0
 20 947 30 963 36 992 c 1
 119 992 l 1
 113 958 99 931 80 908 c 0
 61 884 33 870 0 864 c 0
-165 786 m 0
 -175 786 -184 783 -191 779 c 1
 -199 771 -203 764 -204 755 c 0
 -206 753 -206 751 -206 748 c 0
 -206 744 -203 740 -200 734 c 0
 -196 728 -188 724 -178 724 c 0
 -170 724 -160 728 -154 734 c 0
 -148 740 -144 747 -141 755 c 0
 -139 760 -139 763 -139 766 c 0
 -139 780 -148 786 -165 786 c 0
EndSplineSet
EndChar
StartChar: uni0E48.low
Encoding: 139 63242 108
Width: 0
Flags: W
DStem: 19 908 115 908 -33 658 62 658
AnchorPoint: "AboveBase" 60.3936 652.5 mark 0
Fore
-33 658 m 1
 19 908 l 1
 115 908 l 1
 62 658 l 1
 -33 658 l 1
EndSplineSet
Substitution: 0 65534 'amni' uni0E4D
EndChar
StartChar: uni0E49.low
Encoding: 140 63243 109
Width: 0
Flags: W
HStem: 860 69<-139 -122>
AnchorPoint: "AboveBase" 60.3936 652.5 mark 0
Fore
-41 821 m 0
 -48 790 -57 767 -68 753 c 0
 -78 740 -84 731 -88 729 c 1
 -86 729 -77 731 -61 735 c 0
 -48 740 -32 744 -16 753 c 0
 0 760 14 773 29 789 c 0
 54 822 70 856 77 887 c 0
 80 903 83 915 83 922 c 1
 174 922 l 1
 149 803 93 722 6 684 c 0
 -44 664 -97 652 -154 652 c 0
 -173 652 -187 652 -200 654 c 0
 -213 655 -222 657 -225 658 c 1
 -219 692 l 1
 -213 693 -204 697 -193 706 c 0
 -184 713 -175 721 -173 729 c 1
 -175 729 -187 732 -204 737 c 0
 -220 742 -231 754 -239 771 c 0
 -246 790 -246 809 -242 831 c 0
 -236 857 -222 880 -200 899 c 0
 -178 919 -152 929 -122 929 c 0
 -88 929 -64 918 -51 895 c 0
 -38 873 -35 848 -41 821 c 0
-151 796 m 0
 -142 796 -133 799 -126 806 c 0
 -119 815 -115 821 -112 829 c 0
 -110 837 -112 844 -116 850 c 0
 -120 857 -129 860 -138 860 c 0
 -148 860 -157 857 -162 850 c 0
 -171 844 -175 837 -177 829 c 0
 -180 821 -178 815 -173 806 c 0
 -170 799 -162 796 -151 796 c 0
EndSplineSet
Substitution: 0 65534 'amni' uni0E4D
EndChar
StartChar: uni0E4A.low
Encoding: 141 63244 110
Width: 0
Flags: W
HStem: 651 57<-249 -228> 755 53<-218 -204> 837 68<-204 -184>
AnchorPoint: "AboveBase" 60.3936 652.5 mark 0
Fore
-249 651 m 0
 -280 651 -302 666 -315 693 c 0
 -328 721 -334 753 -325 786 c 0
 -318 819 -300 847 -277 870 c 0
 -254 893 -225 905 -194 905 c 0
 -183 905 -173 903 -162 899 c 0
 -155 896 -148 893 -142 890 c 0
 -139 886 -138 883 -132 880 c 0
 -129 877 -129 873 -128 871 c 1
 -120 877 -113 883 -99 892 c 0
 -86 899 -70 905 -51 905 c 0
 -20 905 0 895 14 877 c 1
 26 857 28 831 20 796 c 0
 14 768 1 741 -20 716 c 1
 -14 718 -7 722 4 729 c 0
 14 735 25 745 36 758 c 0
 57 782 70 809 75 841 c 0
 80 858 81 877 77 895 c 1
 155 909 l 1
 157 895 157 877 152 858 c 0
 141 805 116 760 83 724 c 0
 59 697 33 680 0 671 c 0
 -33 664 -71 658 -115 658 c 1
 -115 660 -115 664 -113 670 c 0
 -113 679 -112 683 -110 689 c 1
 -104 693 -94 703 -84 718 c 0
 -71 732 -62 751 -58 773 c 0
 -49 815 -58 835 -84 835 c 0
 -97 835 -109 832 -119 826 c 0
 -129 821 -136 816 -142 811 c 1
 -142 811 l 1
 -142 812 -144 815 -146 819 c 0
 -152 824 -160 828 -164 832 c 0
 -173 835 -180 837 -190 837 c 0
 -220 837 -238 824 -245 799 c 1
 -241 802 -235 803 -229 805 c 0
 -222 806 -215 808 -204 808 c 0
 -181 806 -167 798 -158 783 c 0
 -151 767 -148 745 -152 721 c 0
 -157 703 -168 686 -187 671 c 0
 -204 657 -226 651 -249 651 c 0
-218 755 m 0
 -233 755 -245 747 -248 732 c 0
 -251 716 -244 708 -228 708 c 0
 -212 708 -202 716 -199 732 c 0
 -197 740 -197 744 -199 748 c 0
 -203 754 -209 755 -218 755 c 0
EndSplineSet
Substitution: 0 65534 'amni' uni0E4D
EndChar
StartChar: uni0E4B.low
Encoding: 142 63245 111
Width: 0
Flags: W
HStem: 753 87<-178 -100 7 84>
DStem: -100 753 -12 753 -119 658 -30 658 -61 932 28 932 -81 840 7 840
AnchorPoint: "AboveBase" 60.3936 652.5 mark 0
Fore
-100 753 m 1
 -196 753 l 1
 -177 840 l 1
 -81 840 l 1
 -61 932 l 1
 28 932 l 1
 7 840 l 1
 103 840 l 1
 84 753 l 1
 -12 753 l 1
 -30 658 l 1
 -119 658 l 1
 -100 753 l 1
EndSplineSet
Substitution: 0 65534 'amni' uni0E4D
EndChar
StartChar: uni0E4C.low
Encoding: 143 63246 112
Width: 0
Flags: W
HStem: 660 64<-97 -85> 789 64<-72 -54>
AnchorPoint: "AboveBase" 60.3936 652.5 mark 0
Fore
93 864 m 0
 65 858 39 857 13 856 c 0
 -12 854 -35 853 -54 853 c 0
 -25 853 -6 844 7 826 c 1
 22 809 28 789 22 761 c 0
 17 734 1 709 -19 690 c 0
 -42 670 -65 660 -96 660 c 0
 -136 660 -165 671 -181 693 c 0
 -199 715 -206 742 -197 777 c 0
 -191 808 -177 834 -158 857 c 0
 -142 879 -120 896 -93 908 c 0
 -68 918 -36 924 6 928 c 0
 46 929 75 934 96 941 c 0
 112 945 123 963 129 992 c 1
 210 992 l 1
 196 918 155 874 93 864 c 0
-72 789 m 0
 -83 789 -93 784 -100 779 c 0
 -106 771 -112 766 -113 757 c 0
 -115 748 -112 742 -109 734 c 0
 -106 728 -99 724 -87 724 c 0
 -77 724 -68 728 -61 734 c 0
 -55 741 -51 748 -49 757 c 0
 -48 766 -49 773 -52 780 c 1
 -58 784 -64 789 -72 789 c 0
EndSplineSet
EndChar
StartChar: uni0E0D.descless
Encoding: 144 63247 113
Width: 783
Flags: W
HStem: -10 61<196 211> 0 86<360 591> 139 61<228 241> 503 67<387 425>
VStem: 109 62<71 87> 264 61<107 119> 487 93<432 450>
DStem: 484 419 577 405 415 86 510 86 728 557 824 557 638 133 728 106
Fore
824 557 m 1x7e
 728 106 l 2
 721 75 712 52 700 38 c 0
 687 23 671 13 652 9 c 0
 632 3 605 0 570 0 c 2
 342 0 l 1
 361 86 l 1
 415 86 l 1x7e
 484 419 l 2
 486 426 487 432 487 439 c 0
 487 455 480 470 467 480 c 0
 448 494 422 502 387 503 c 0
 373 503 349 500 320 492 c 0
 291 483 267 471 252 457 c 1
 262 455 277 452 299 444 c 0
 319 438 339 428 355 413 c 1
 345 367 l 1
 328 367 309 362 289 351 c 0
 270 339 255 315 248 277 c 2
 231 199 l 1
 232 200 232 200 233 200 c 0
 239 200 l 0
 260 200 278 194 293 186 c 0
 306 175 316 162 320 146 c 0
 323 138 325 128 325 119 c 0
 325 112 323 104 322 96 c 0
 318 77 312 61 300 45 c 0
 287 28 271 14 255 4 c 0
 236 -4 216 -10 196 -10 c 0xbe
 162 -10 138 0 123 22 c 0
 115 35 109 51 109 71 c 0
 109 80 110 88 112 97 c 2
 149 270 l 2
 155 302 165 326 175 344 c 0
 188 362 204 378 226 392 c 1
 220 394 209 400 190 405 c 0
 174 409 154 415 130 416 c 1
 136 447 l 1
 155 468 188 493 236 525 c 0
 284 555 348 570 425 570 c 0
 461 570 490 566 512 554 c 0
 534 542 552 529 561 513 c 0
 571 494 579 477 579 458 c 0
 580 450 580 441 580 434 c 0
 580 423 580 413 577 405 c 2
 510 86 l 1
 589 86 l 2
 608 86 619 88 625 93 c 0
 628 99 632 112 638 133 c 2
 728 557 l 1
 824 557 l 1x7e
209 51 m 0xbe
 216 51 226 52 236 58 c 0
 242 62 249 67 254 74 c 0
 258 80 261 87 262 96 c 0
 264 100 264 104 264 107 c 0
 264 116 262 122 258 128 c 0
 252 136 242 139 228 139 c 0
 213 139 203 135 191 126 c 0
 181 117 175 106 173 96 c 0
 171 93 171 90 171 87 c 0
 171 78 174 71 180 65 c 0
 186 55 194 51 209 51 c 0xbe
EndSplineSet
EndChar
StartChar: quoteleft
Encoding: 145 8216 114
Width: 232
VWidth: 2048
Flags: W
Fore
160 629 m 4
 170 682 194 721 238 754 c 5
 280 786 319 806 354 809 c 5
 361 783 l 5
 331 768 310 757 299 748 c 5
 281 737 267 718 260 695 c 5
 278 695 297 689 312 679 c 4
 325 670 331 657 331 637 c 0
 331 629 331 624 329 615 c 5
 325 594 315 577 296 557 c 5
 280 542 262 536 239 536 c 4
 206 536 183 544 171 560 c 5
 162 573 157 589 157 606 c 0
 157 613 158 621 160 629 c 4
EndSplineSet
EndChar
StartChar: quoteright
Encoding: 146 8217 115
Width: 230
VWidth: 2048
Flags: W
Fore
352 705 m 4
 352 700 l 0
 352 651 332 609 296 574 c 5
 260 534 223 509 187 500 c 5
 177 522 l 5
 203 542 223 557 233 567 c 4
 249 580 261 600 264 625 c 5
 257 624 249 622 242 622 c 0
 229 622 216 625 204 631 c 4
 188 639 177 657 177 686 c 4
 178 706 184 726 199 747 c 4
 213 766 232 774 255 779 c 4
 267 780 276 782 286 782 c 0
 304 782 319 777 328 767 c 5
 344 754 352 735 352 710 c 0
 352 709 352 706 352 705 c 4
EndSplineSet
EndChar
StartChar: quotedblleft
Encoding: 147 8220 116
Width: 468
VWidth: 2048
Flags: W
Fore
158 626 m 4
 165 677 190 718 233 751 c 5
 276 784 313 805 348 809 c 5
 357 784 l 5
 328 768 307 757 294 748 c 4
 276 735 264 718 257 693 c 5
 277 693 294 689 310 679 c 4
 323 671 329 657 329 635 c 0
 329 629 329 622 328 615 c 4
 325 593 313 576 296 557 c 4
 280 542 261 534 238 534 c 4
 236 534 233 534 232 534 c 0
 202 534 181 544 171 558 c 4
 161 573 155 587 155 605 c 0
 155 612 157 619 158 626 c 4
383 632 m 4
 389 682 415 722 458 757 c 5
 497 790 536 809 571 815 c 5
 580 790 l 5
 552 774 531 761 516 753 c 4
 500 741 489 722 478 697 c 5
 497 697 518 693 534 683 c 4
 545 673 551 658 551 634 c 0
 551 629 551 625 551 619 c 4
 547 597 536 580 519 563 c 4
 505 547 484 539 463 539 c 4
 428 539 405 545 394 564 c 5
 384 574 380 589 380 606 c 0
 380 615 380 624 383 632 c 4
EndSplineSet
EndChar
StartChar: quotedblright
Encoding: 148 8221 117
Width: 469
VWidth: 2048
Flags: W
Fore
561 684 m 4
 552 635 528 594 483 563 c 4
 442 529 403 512 368 506 c 5
 361 532 l 5
 390 545 410 558 423 567 c 4
 441 580 455 597 463 621 c 5
 442 621 425 628 410 638 c 4
 397 645 392 660 392 680 c 0
 392 687 392 695 393 702 c 4
 397 722 409 741 426 757 c 4
 441 773 461 782 484 782 c 4
 518 782 539 771 551 754 c 5
 560 742 564 728 564 712 c 0
 564 703 564 695 561 684 c 4
338 684 m 4
 332 635 304 594 260 563 c 5
 219 529 181 512 145 506 c 5
 138 532 l 5
 167 545 187 558 200 567 c 4
 219 579 229 596 241 621 c 5
 222 621 204 628 187 638 c 4
 175 645 168 660 168 680 c 0
 168 686 170 693 171 702 c 4
 175 722 186 741 203 757 c 4
 218 773 239 782 262 782 c 4
 296 782 318 771 329 754 c 5
 338 745 342 732 342 715 c 0
 342 706 341 696 338 684 c 4
EndSplineSet
EndChar
StartChar: bullet
Encoding: 149 8226 118
Width: 294
VWidth: 2048
Flags: W
HStem: 458 20G<224 258.5>
Fore
174 164 m 0
 125 164 88 180 68 212 c 0
 54 232 46 257 46 283 c 0
 46 294 48 307 51 320 c 0
 57 349 68 376 84 399 c 0
 104 423 128 444 151 457 c 0
 177 471 207 478 241 478 c 0
 276 478 303 471 323 457 c 0
 344 442 357 423 365 400 c 1
 368 389 370 376 370 362 c 0
 370 348 368 335 365 320 c 0
 357 278 334 241 300 210 c 0
 267 180 225 164 174 164 c 0
EndSplineSet
EndChar
StartChar: endash
Encoding: 150 8211 119
Width: 871
VWidth: 2048
Flags: W
HStem: 274 54<15 931>
Fore
16 328 m 1
 942 328 l 1
 931 274 l 1
 4 274 l 1
 16 328 l 1
EndSplineSet
EndChar
StartChar: emdash
Encoding: 151 8212 120
Width: 1744
VWidth: 2048
Flags: W
HStem: 274 54<-37 1805>
Fore
-36 328 m 1
 1817 328 l 1
 1805 274 l 1
 -48 274 l 1
 -36 328 l 1
EndSplineSet
EndChar
StartChar: uni0E31.left
Encoding: 152 63248 121
Width: 0
Flags: W
HStem: 657 78<-136 -111> 828 65<-196 -180>
VStem: -315 73<763 777> -162 63<795 815>
Fore
-180 893 m 0
 -148 893 -126 883 -110 864 c 0
 -103 850 -99 834 -99 815 c 0
 -99 806 -99 796 -102 786 c 0
 -103 774 -107 766 -113 755 c 0
 -119 747 -122 741 -126 735 c 1
 -86 735 -46 745 -9 766 c 0
 30 783 68 821 106 879 c 1
 177 848 l 1
 160 809 132 774 99 747 c 0
 65 718 32 695 -9 680 c 0
 -49 666 -93 657 -136 657 c 0
 -151 657 -162 657 -170 658 c 0
 -215 664 -251 679 -280 700 c 0
 -303 716 -315 737 -315 763 c 0
 -315 770 -313 777 -312 786 c 0
 -304 818 -289 842 -265 864 c 0
 -244 883 -215 893 -180 893 c 0
-210 748 m 0
 -197 748 -188 753 -180 760 c 0
 -171 768 -165 779 -162 789 c 0
 -162 790 -162 793 -162 795 c 0
 -162 802 -164 809 -167 816 c 0
 -173 824 -181 828 -194 828 c 0
 -207 828 -218 824 -226 816 c 0
 -235 808 -239 799 -241 789 c 0
 -242 784 -242 782 -242 777 c 0
 -242 771 -241 766 -239 760 c 0
 -233 753 -223 748 -210 748 c 0
EndSplineSet
EndChar
StartChar: uni0E4D.left
Encoding: 153 63249 122
Width: 0
Flags: W
HStem: 658 68<-215 -200> 812 68<-185 -168>
VStem: -306 70<745 758> -148 68<780 799>
Fore
-168 880 m 0
 -133 880 -107 870 -94 847 c 0
 -84 834 -80 816 -80 799 c 0
 -80 790 -81 780 -83 770 c 0
 -88 741 -103 715 -129 692 c 0
 -152 670 -180 658 -215 658 c 0
 -249 658 -276 670 -291 692 c 0
 -300 708 -306 726 -306 745 c 0
 -306 753 -304 761 -303 770 c 0
 -297 799 -281 826 -258 847 c 0
 -235 869 -204 880 -168 880 c 0
-202 726 m 0
 -188 726 -177 731 -168 740 c 0
 -158 747 -152 758 -149 770 c 0
 -148 774 -148 777 -148 780 c 0
 -148 787 -151 795 -155 799 c 0
 -161 808 -170 812 -183 812 c 0
 -196 812 -206 809 -216 802 c 0
 -226 793 -232 782 -235 770 c 0
 -236 766 -236 763 -236 758 c 0
 -236 751 -235 744 -231 740 c 0
 -223 731 -215 726 -202 726 c 0
EndSplineSet
EndChar
StartChar: uni0E47.left
Encoding: 154 63250 123
Width: 0
Flags: W
HStem: 658 60<-164 -150> 737 74<-306 -281> 768 60<-143 -129> 841 65<-186 -159>
VStem: -120 62<744 767>
Fore
-164 658 m 0xb8
 -178 658 -194 663 -206 670 c 0
 -219 679 -229 689 -241 700 c 0
 -254 710 -262 721 -273 728 c 0
 -283 734 -294 737 -306 737 c 0
 -318 737 -326 729 -339 710 c 0
 -351 693 -358 673 -362 655 c 1
 -383 655 l 1
 -402 667 -418 689 -428 716 c 0
 -435 734 -439 751 -439 770 c 0
 -439 780 -438 792 -435 802 c 0
 -432 816 -428 829 -422 841 c 0
 -405 869 -386 886 -364 896 c 0
 -341 906 -313 911 -277 911 c 0
 -260 911 -246 911 -236 909 c 0
 -202 908 -177 906 -165 906 c 0
 -136 906 -115 911 -102 921 c 0
 -86 929 -75 948 -70 979 c 1
 6 979 l 1
 -4 929 -25 895 -54 873 c 0
 -83 853 -126 841 -184 841 c 0
 -212 841 -235 842 -251 844 c 0
 -286 844 -312 840 -328 831 c 0
 -344 822 -355 803 -361 774 c 1
 -358 782 -349 790 -336 798 c 0
 -323 806 -306 811 -281 811 c 0xd8
 -261 811 -246 808 -236 799 c 0
 -226 792 -220 784 -216 780 c 1
 -197 811 -170 828 -129 828 c 0
 -102 828 -81 819 -70 805 c 0
 -62 795 -58 782 -58 767 c 0
 -58 760 -59 753 -61 744 c 0
 -67 719 -80 697 -97 683 c 0
 -115 667 -138 658 -164 658 c 0xb8
-152 718 m 0
 -145 718 -136 721 -132 726 c 0
 -125 731 -122 735 -120 744 c 0
 -120 747 -119 750 -119 751 c 0
 -119 755 -120 758 -123 761 c 0
 -128 767 -133 768 -141 768 c 0xb8
 -149 768 -155 766 -162 760 c 0
 -167 755 -170 748 -171 744 c 0
 -171 741 -173 738 -173 735 c 0
 -173 732 -171 729 -170 726 c 0
 -164 721 -161 718 -152 718 c 0
EndSplineSet
EndChar
StartChar: uni0E48.left
Encoding: 155 63251 124
Width: 0
Flags: W
DStem: -78 1206 9 1206 -119 1014 -32 1014
Fore
-119 1014 m 1
 -78 1206 l 1
 9 1206 l 1
 -32 1014 l 1
 -119 1014 l 1
EndSplineSet
EndChar
StartChar: uni0E49.left
Encoding: 156 63252 125
Width: 0
Flags: W
HStem: 1150 58<-130 -116>
VStem: -220 58<1101 1118> -106 62<1121 1136>
Fore
-45 1116 m 0
 -54 1089 -61 1070 -70 1058 c 0
 -78 1047 -84 1038 -87 1037 c 1
 -86 1037 -78 1038 -65 1043 c 0
 -54 1045 -41 1050 -26 1058 c 0
 -12 1067 1 1076 12 1088 c 0
 25 1105 35 1121 41 1137 c 0
 46 1151 52 1173 58 1201 c 1
 133 1201 l 1
 112 1098 65 1030 -6 999 c 0
 -51 980 -97 972 -142 972 c 0
 -157 972 -168 973 -180 974 c 0
 -191 976 -199 976 -204 979 c 1
 -197 1006 l 1
 -191 1008 -187 1012 -177 1018 c 0
 -168 1022 -162 1030 -160 1037 c 1
 -161 1037 -171 1038 -184 1044 c 0
 -197 1048 -209 1058 -215 1073 c 0
 -219 1082 -220 1090 -220 1101 c 0
 -220 1108 -219 1115 -218 1124 c 0
 -213 1147 -202 1167 -181 1183 c 0
 -162 1199 -139 1208 -116 1208 c 0
 -87 1208 -65 1198 -55 1180 c 0
 -48 1166 -44 1150 -44 1134 c 0
 -44 1128 -44 1122 -45 1116 c 0
-142 1095 m 0
 -123 1095 -110 1105 -106 1122 c 0
 -106 1125 -106 1127 -106 1128 c 0
 -106 1134 -107 1138 -110 1143 c 0
 -113 1147 -120 1150 -129 1150 c 0
 -136 1150 -146 1147 -152 1143 c 0
 -158 1137 -161 1131 -162 1122 c 0
 -162 1118 l 0
 -162 1114 -161 1108 -158 1102 c 0
 -155 1098 -149 1095 -142 1095 c 0
EndSplineSet
EndChar
StartChar: uni0E4A.left
Encoding: 157 63253 126
Width: 0
Flags: W
HStem: 976 49<-232 -221> 1067 47<-215 -194> 1143 56<-195 -175>
VStem: -303 62<1046 1061> -197 53<1047 1063> -61 67<1111 1137> 52 68<1170 1186>
Fore
-232 976 m 0
 -260 979 -278 990 -290 1014 c 0
 -299 1028 -303 1044 -303 1061 c 0
 -303 1073 -302 1085 -299 1096 c 1
 -290 1127 -274 1151 -255 1170 c 0
 -238 1189 -212 1199 -184 1199 c 0
 -173 1199 -161 1198 -154 1195 c 0
 -132 1180 l 0
 -129 1174 -126 1172 -126 1172 c 1
 -126 1172 l 1
 -123 1176 -115 1182 -102 1189 c 0
 -90 1196 -75 1199 -61 1199 c 0
 -33 1199 -13 1192 -4 1174 c 0
 3 1164 6 1151 6 1137 c 0
 6 1128 4 1118 3 1108 c 0
 -1 1082 -14 1057 -30 1035 c 1
 -26 1037 -19 1043 -9 1050 c 0
 0 1057 10 1064 16 1073 c 0
 32 1095 45 1116 49 1140 c 0
 51 1148 52 1159 52 1170 c 0
 52 1174 52 1177 52 1182 c 1
 119 1202 l 1
 120 1198 120 1192 120 1186 c 0
 120 1177 119 1169 117 1160 c 0
 107 1114 88 1074 58 1044 c 0
 38 1021 13 1006 -16 998 c 0
 -45 990 -78 986 -116 986 c 1
 -116 992 -115 995 -115 999 c 0
 -115 1005 -113 1008 -113 1012 c 1
 -107 1018 -99 1025 -87 1037 c 0
 -77 1048 -71 1064 -64 1086 c 0
 -62 1095 -61 1102 -61 1111 c 0
 -61 1115 -62 1121 -62 1125 c 0
 -65 1135 -72 1140 -87 1140 c 0
 -97 1140 -106 1137 -113 1132 c 0
 -123 1127 -128 1124 -130 1119 c 1
 -130 1119 l 1
 -130 1121 -130 1122 -136 1125 c 0
 -141 1130 -148 1132 -154 1137 c 0
 -162 1140 -173 1143 -183 1143 c 0
 -207 1143 -222 1131 -228 1109 c 1
 -226 1111 -220 1111 -215 1112 c 0
 -209 1114 -203 1114 -194 1114 c 0
 -175 1114 -161 1108 -154 1095 c 0
 -146 1086 -144 1074 -144 1063 c 0
 -144 1056 -145 1048 -146 1041 c 0
 -151 1024 -161 1009 -177 996 c 0
 -194 983 -212 976 -232 976 c 0
-215 1067 m 0
 -229 1067 -238 1060 -241 1047 c 0
 -241 1044 -241 1043 -241 1040 c 0
 -241 1030 -235 1025 -223 1025 c 0
 -209 1025 -200 1032 -197 1047 c 0
 -197 1050 -197 1051 -197 1053 c 0
 -197 1063 -203 1067 -215 1067 c 0
EndSplineSet
EndChar
StartChar: uni0E4B.left
Encoding: 158 63254 127
Width: 0
Flags: W
HStem: 1056 75<-174 -106 -9 58>
Fore
-106 1056 m 1
 -188 1056 l 1
 -173 1131 l 1
 -90 1131 l 1
 -75 1202 l 1
 6 1202 l 1
 -9 1131 l 1
 74 1131 l 1
 58 1056 l 1
 -25 1056 l 1
 -41 985 l 1
 -122 985 l 1
 -106 1056 l 1
EndSplineSet
EndChar
StartChar: uni0E4C.left
Encoding: 159 63255 128
Width: 0
Flags: W
HStem: 928 55<-214 -204>
VStem: -300 74<1000 1011> -174 64<1011 1030>
Fore
-54 1101 m 0
 -94 1095 -123 1095 -142 1093 c 0
 -160 1092 -171 1092 -175 1092 c 0
 -151 1092 -135 1085 -123 1070 c 0
 -116 1058 -110 1045 -110 1030 c 0
 -110 1025 -110 1021 -112 1016 c 0
 -116 992 -129 970 -146 954 c 0
 -165 937 -186 928 -212 928 c 0
 -215 928 -219 928 -222 928 c 0
 -249 928 -271 938 -284 956 c 0
 -294 967 -300 983 -300 1002 c 0
 -300 1011 -299 1019 -297 1028 c 0
 -286 1082 -257 1119 -209 1138 c 0
 -187 1147 -160 1154 -125 1156 c 0
 -90 1157 -67 1161 -51 1167 c 0
 -33 1172 -25 1186 -20 1209 c 1
 48 1209 l 1
 42 1182 32 1157 14 1138 c 0
 -1 1119 -25 1105 -54 1101 c 0
-194 1037 m 0
 -212 1037 -222 1030 -226 1011 c 0
 -226 1008 -226 1005 -226 1003 c 0
 -226 990 -220 983 -206 983 c 0
 -187 983 -177 993 -174 1011 c 0
 -174 1014 -173 1016 -173 1019 c 0
 -173 1022 -174 1027 -175 1030 c 0
 -180 1034 -186 1037 -194 1037 c 0
EndSplineSet
EndChar
StartChar: uni0E01
Encoding: 161 3585 130
Width: 603
Flags: W
HStem: 0 21G<91 188 431 526> 499 71<394 425>
VStem: 515 98<410 429>
DStem: 149 270 248 277 91 0 188 0 510 378 609 387 431 0 526 0
Fore
226 392 m 1
 220 394 209 400 190 405 c 0
 174 409 154 415 130 416 c 1
 136 447 l 1
 142 452 151 461 162 471 c 0
 175 483 194 496 219 513 c 0
 242 528 274 542 309 554 c 0
 344 566 383 570 425 570 c 4
 470 570 506 564 535 551 c 0
 566 536 587 516 600 489 c 0
 609 471 613 452 613 429 c 0
 613 416 612 403 609 387 c 2
 526 0 l 1
 431 0 l 1
 510 378 l 2
 513 390 515 402 515 412 c 0
 515 435 508 455 493 468 c 0
 471 490 441 499 400 499 c 0
 354 499 304 483 254 455 c 1
 260 454 264 452 274 451 c 0
 286 450 297 444 312 439 c 0
 328 432 342 425 355 413 c 1
 345 367 l 1
 328 367 309 362 289 351 c 0
 270 339 255 315 248 277 c 2
 188 0 l 1
 91 0 l 1
 149 270 l 2
 155 302 165 326 175 344 c 0
 188 362 204 378 226 392 c 1
EndSplineSet
EndChar
StartChar: uni0E02
Encoding: 162 3586 131
Width: 590
Flags: W
HStem: 0 86<167 394> 316 67<196 212> 468 103<229 309>
VStem: 104 71<400 420> 264 71<438 458> 377 83<442 458>
DStem: 268 252 365 255 233 86 331 86 535 557 632 557 445 133 536 106
Fore
374 418 m 1
 376 428 377 435 377 444 c 0
 377 458 374 470 367 478 c 0
 355 490 342 496 325 499 c 1
 328 493 331 484 334 474 c 0
 335 470 335 464 335 458 c 0
 335 448 334 438 332 428 c 0
 323 394 307 368 284 348 c 0
 258 326 229 316 196 316 c 0
 162 316 138 328 122 349 c 0
 110 364 104 380 104 400 c 0
 104 409 104 418 107 428 c 0
 113 458 128 484 148 506 c 0
 170 528 194 544 222 555 c 0
 251 567 281 571 309 571 c 0
 362 571 405 557 429 528 c 0
 450 506 460 481 460 452 c 0
 460 444 458 435 457 425 c 0
 452 403 448 386 441 374 c 0
 432 361 422 348 410 335 c 0
 397 319 389 307 381 299 c 0
 374 287 370 274 365 255 c 2
 331 86 l 1
 392 86 l 2
 412 86 423 88 429 93 c 0
 436 100 441 113 445 133 c 2
 535 557 l 5
 632 557 l 1
 536 106 l 2
 526 62 510 35 486 22 c 0
 463 7 425 0 373 0 c 2
 149 0 l 1
 168 86 l 1
 233 86 l 1
 268 252 l 2
 273 273 278 289 287 302 c 0
 294 313 307 328 322 342 c 0
 336 357 347 368 354 377 c 0
 361 386 367 400 374 418 c 1
210 383 m 0
 225 383 236 389 246 396 c 0
 254 405 261 415 262 426 c 0
 264 431 264 435 264 438 c 0
 264 445 262 452 260 457 c 0
 252 465 244 468 229 468 c 0
 216 468 204 464 196 455 c 0
 184 447 180 438 177 426 c 0
 177 423 175 419 175 416 c 0
 175 409 178 402 183 396 c 0
 188 389 197 383 210 383 c 0
EndSplineSet
EndChar
StartChar: uni0E03
Encoding: 163 3587 132
Width: 652
Flags: W
HStem: 0 86<230 470> 242 65<200 219> 393 65<226 246>
VStem: 99 79<334 351> 265 70<364 378> 447 81<464 477>
DStem: 351 344 445 336 297 86 393 86 599 557 695 557 509 133 605 133
Fore
200 242 m 0
 157 242 129 255 113 283 c 0
 104 300 99 320 99 342 c 0
 99 357 100 371 104 387 c 0
 106 396 109 412 116 431 c 0
 126 463 144 487 167 508 c 0
 190 529 215 545 238 557 c 0
 262 568 283 574 296 574 c 1
 351 539 l 1
 428 574 l 1
 455 568 480 555 502 534 c 0
 519 518 528 499 528 477 c 0
 528 473 528 467 526 461 c 0
 522 442 513 426 503 415 c 0
 492 403 480 393 468 381 c 0
 457 370 450 354 445 336 c 2
 393 86 l 1
 455 86 l 2
 476 86 487 88 494 93 c 0
 500 100 505 113 509 133 c 2
 599 557 l 1
 695 557 l 1
 605 133 l 2
 594 86 577 51 558 30 c 0
 539 10 505 0 455 0 c 2
 212 0 l 1
 231 86 l 1
 297 86 l 1
 351 344 l 2
 361 392 384 423 423 441 c 1
 436 450 445 455 447 464 c 0
 447 468 l 0
 447 478 438 490 418 500 c 1
 335 464 l 1
 265 500 l 1
 246 496 232 489 219 477 c 0
 209 465 200 455 196 447 c 1
 199 450 204 452 212 454 c 0
 220 457 232 458 246 458 c 0
 268 458 287 454 300 444 c 0
 316 436 325 423 329 407 c 0
 332 399 335 389 335 378 c 0
 335 371 334 364 332 355 c 0
 328 323 310 294 287 274 c 0
 264 252 235 242 200 242 c 0
213 307 m 0
 228 307 239 313 246 320 c 0
 257 329 262 339 264 351 c 0
 265 355 265 360 265 364 c 0
 265 371 264 377 260 381 c 0
 255 390 246 393 232 393 c 0
 219 393 207 389 197 380 c 0
 188 373 181 362 178 351 c 0
 178 348 178 345 178 344 c 0
 178 335 180 328 184 320 c 0
 191 313 200 307 213 307 c 0
EndSplineSet
EndChar
StartChar: uni0E04
Encoding: 164 3588 133
Width: 598
Flags: W
HStem: 0 21G<129 226 426 521> 210 67<318 332> 364 67<349 364> 500 76<382 407>
VStem: 112 84<309 337> 384 68<326 349> 509 97<402 423>
DStem: 149 97 273 219 129 0 226 0 506 374 600 378 426 0 521 0
Fore
318 210 m 0
 312 210 302 212 291 213 c 0
 278 216 273 218 273 219 c 2
 226 0 l 1
 129 0 l 1
 149 97 l 2
 152 112 155 125 155 138 c 0
 155 146 154 155 152 164 c 0
 149 184 142 206 133 231 c 0
 122 255 119 278 115 300 c 0
 113 307 112 316 112 325 c 0
 112 339 115 354 119 373 c 0
 129 416 148 452 180 483 c 0
 209 515 244 538 284 552 c 0
 325 567 365 576 407 576 c 0
 448 576 484 568 519 554 c 0
 551 539 576 516 592 487 c 0
 600 468 606 447 606 423 c 0
 606 409 605 394 600 378 c 2
 521 0 l 1
 426 0 l 1
 506 374 l 2
 509 384 509 394 509 403 c 0
 509 429 500 451 481 467 c 0
 460 489 426 500 386 500 c 0
 344 500 306 489 270 465 c 0
 232 441 209 409 200 368 c 0
 197 354 196 339 196 326 c 0
 196 319 196 310 197 303 c 0
 200 286 202 277 203 277 c 1
 203 277 203 277 203 278 c 0
 209 307 225 341 251 376 c 0
 274 409 313 429 364 431 c 0
 396 431 420 420 438 400 c 0
 448 386 452 368 452 349 c 0
 452 341 452 331 450 320 c 0
 444 290 429 265 405 244 c 0
 380 223 351 212 318 210 c 0
332 277 m 0
 347 277 357 281 367 290 c 0
 376 299 380 307 383 320 c 0
 384 325 384 329 384 332 c 0
 384 339 383 347 380 352 c 0
 374 361 364 364 349 364 c 0
 336 364 326 358 315 351 c 0
 304 342 300 332 297 320 c 0
 296 318 296 313 296 310 c 0
 296 303 299 296 303 290 c 0
 309 281 319 277 332 277 c 0
EndSplineSet
EndChar
StartChar: uni0E05
Encoding: 165 3589 134
Width: 598
Flags: W
HStem: 0 21G<129 226 426 521> 210 67<318 332> 364 67<349 364>
VStem: 112 84<309 337> 384 68<326 349> 512 93<415 441>
DStem: 149 97 273 219 129 0 226 0 506 376 600 378 426 0 521 0
Fore
326 567 m 1
 405 531 l 1
 503 567 l 1
 534 558 557 542 574 521 c 0
 590 500 602 477 603 451 c 0
 605 441 605 429 605 419 c 0
 605 405 603 392 600 378 c 2
 521 0 l 1
 426 0 l 1
 506 376 l 2
 510 397 512 415 512 429 c 0
 512 434 512 436 512 441 c 0
 510 455 499 470 480 483 c 1
 387 452 l 1
 315 489 l 1
 283 477 260 463 238 441 c 0
 218 419 206 394 200 368 c 0
 197 354 196 339 196 326 c 0
 196 319 196 310 197 303 c 0
 200 286 202 277 203 277 c 1
 203 277 203 277 203 278 c 0
 209 307 225 341 251 376 c 0
 274 409 313 429 364 431 c 0
 396 431 420 420 438 400 c 0
 448 386 452 368 452 349 c 0
 452 341 452 331 450 320 c 0
 444 290 429 265 405 244 c 0
 380 223 351 212 318 210 c 0
 312 210 302 212 291 213 c 0
 278 216 273 218 273 219 c 2
 226 0 l 1
 129 0 l 1
 149 97 l 2
 152 112 155 125 155 138 c 0
 155 146 154 155 152 164 c 0
 149 184 142 206 133 231 c 0
 122 255 119 278 115 300 c 0
 113 307 112 316 112 325 c 0
 112 339 115 354 119 373 c 0
 141 468 210 532 326 567 c 1
332 277 m 0
 347 277 357 281 367 290 c 0
 376 299 380 307 383 320 c 0
 384 325 384 329 384 332 c 0
 384 339 383 347 380 352 c 0
 374 361 364 364 349 364 c 0
 336 364 326 358 315 351 c 0
 304 342 300 332 297 320 c 0
 296 318 296 313 296 310 c 0
 296 303 299 296 303 290 c 0
 309 281 319 277 332 277 c 0
EndSplineSet
EndChar
StartChar: uni0E06
Encoding: 166 3590 135
Width: 749
Flags: W
HStem: -12 74<268 279> 238 64<204 217> 389 63<233 249>
VStem: 102 79<327 341> 175 77<82 101> 267 72<345 371> 450 81<457 471>
DStem: 322 181 416 178 302 86 397 86 696 557 790 557 610 155 671 0
Fore
448 329 m 2xf6
 434 257 l 1
 457 254 481 249 506 238 c 0
 529 228 551 212 571 197 c 0
 592 181 603 167 610 155 c 1
 696 557 l 1
 790 557 l 1
 671 0 l 1
 577 0 l 1
 577 4 l 0
 577 13 573 30 564 55 c 0
 554 84 536 112 512 136 c 0
 489 161 457 174 416 178 c 1
 397 86 l 2
 392 58 376 35 354 16 c 0
 332 -1 304 -12 274 -12 c 0
 236 -12 209 1 193 26 c 0
 181 44 175 62 175 84 c 0xee
 175 94 175 104 178 115 c 0
 186 151 204 181 233 210 c 0
 262 238 296 254 338 257 c 1
 355 339 l 2
 365 387 389 418 428 436 c 0
 439 441 448 450 450 457 c 0
 450 461 l 0
 450 473 441 484 420 494 c 1
 338 458 l 1
 268 494 l 1
 251 492 236 483 222 470 c 0
 207 455 197 444 193 436 c 1
 196 439 204 442 213 445 c 0
 223 450 235 451 249 452 c 0
 281 452 306 442 320 423 c 0
 332 409 339 390 339 371 c 0
 339 364 338 357 336 349 c 0
 332 318 315 291 289 270 c 0
 264 249 235 238 204 238 c 0
 162 239 133 252 119 277 c 0
 107 294 102 316 102 339 c 0
 102 352 103 365 106 378 c 0
 110 399 116 413 119 425 c 0
 135 465 161 500 202 528 c 0
 241 554 273 567 299 567 c 1
 354 534 l 1
 432 567 l 1
 460 564 484 551 506 529 c 0
 522 512 531 493 531 471 c 0
 531 467 531 461 529 455 c 0
 526 442 522 431 516 420 c 0
 509 413 500 403 490 393 c 0
 477 381 470 374 464 365 c 0
 455 357 451 344 448 329 c 2xf6
255 77 m 0
 258 67 265 62 277 62 c 0
 290 62 297 71 302 86 c 2
 322 181 l 1
 306 180 291 173 277 160 c 0
 265 144 257 129 254 113 c 0
 252 107 252 103 252 97 c 0
 252 90 252 83 255 77 c 0
215 302 m 0
 228 302 239 306 248 315 c 0
 258 323 264 332 267 345 c 0
 267 349 268 354 268 357 c 0
 268 364 267 370 264 376 c 0
 257 383 248 389 233 389 c 0
 220 389 209 383 199 376 c 0
 190 367 184 357 183 345 c 0
 181 341 181 336 181 332 c 0xf6
 181 326 183 320 186 315 c 0
 193 306 202 302 215 302 c 0
EndSplineSet
EndChar
StartChar: uni0E07
Encoding: 167 3591 136
Width: 477
Flags: W
HStem: -16 81<297 311> 348 65<361 378> 500 67<391 407>
VStem: 270 69<432 447> 428 74<468 486>
DStem: 90 349 175 399 209 38 213 304 378 349 499 463 325 97 418 80
Fore
407 567 m 0
 439 567 467 557 483 538 c 0
 496 522 502 505 502 486 c 0
 502 478 500 470 499 463 c 2
 418 80 l 2
 410 49 396 26 374 10 c 0
 349 -9 325 -16 297 -16 c 0
 252 -16 222 1 209 38 c 2
 90 349 l 1
 175 399 l 1
 184 377 197 345 213 304 c 0
 229 264 245 218 264 167 c 0
 284 116 293 90 293 88 c 0
 297 74 304 65 309 65 c 0
 315 65 320 75 325 97 c 2
 378 349 l 1
 378 349 377 349 374 349 c 0
 371 348 365 348 361 348 c 0
 326 348 303 358 286 380 c 0
 276 396 270 413 270 432 c 0
 270 441 271 448 273 457 c 0
 278 487 294 513 318 534 c 0
 342 555 373 567 407 567 c 0
376 413 m 0
 390 413 400 418 407 426 c 0
 419 434 423 444 426 457 c 0
 428 461 428 464 428 468 c 0
 428 476 426 483 422 489 c 0
 418 496 407 500 393 500 c 0
 380 500 368 494 358 487 c 0
 349 478 344 468 341 457 c 0
 339 454 339 451 339 447 c 0
 339 439 342 432 345 426 c 0
 352 418 362 413 376 413 c 0
EndSplineSet
EndChar
StartChar: uni0E08
Encoding: 168 3592 137
Width: 564
Flags: W
HStem: -7 69<381 398> 167 68<228 244> 319 68<259 276> 490 77<364 389>
VStem: 141 68<251 266> 294 93<88 142> 476 98<407 429>
DStem: 473 380 568 383 410 91 510 112
Fore
510 112 m 2
 500 64 483 30 460 16 c 0
 439 1 413 -7 381 -7 c 0
 355 -7 336 0 322 13 c 0
 307 25 300 45 297 72 c 0
 296 90 294 115 294 142 c 0
 291 171 291 186 290 186 c 1
 289 181 280 178 273 174 c 0
 261 168 246 167 228 167 c 0
 196 168 168 178 155 200 c 0
 145 215 141 232 141 251 c 0
 141 258 141 268 144 277 c 0
 149 304 162 331 188 354 c 0
 210 376 242 387 276 387 c 0
 334 387 368 358 373 304 c 0
 383 177 387 104 387 88 c 0
 387 86 387 84 387 84 c 0
 387 68 390 62 394 62 c 0
 400 62 407 72 410 91 c 2
 473 380 l 2
 474 390 476 400 476 409 c 0
 476 434 468 451 454 464 c 0
 434 481 405 490 370 490 c 0
 302 490 236 458 175 399 c 1
 125 442 l 1
 193 526 281 567 389 567 c 0
 452 567 503 551 536 519 c 0
 561 497 574 467 574 429 c 0
 574 415 573 399 568 383 c 2
 510 112 l 2
242 235 m 0
 258 235 268 238 278 246 c 0
 286 254 293 265 296 277 c 0
 296 286 l 0
 296 294 294 302 291 307 c 0
 284 316 277 319 261 319 c 0
 246 319 235 315 228 306 c 0
 218 299 212 289 210 277 c 0
 209 273 209 268 209 264 c 0
 209 258 210 252 215 248 c 0
 222 239 229 235 242 235 c 0
EndSplineSet
EndChar
StartChar: uni0E09
Encoding: 169 3593 138
Width: 651
Flags: W
HStem: -12 71<516 551> 0 225<175.92 193> 157 68<170 186> 312 66<202 216> 493 77<401 426>
VStem: 80 71<244 258> 238 69<280 300> 442 100<55 71> 513 99<410 428> 593 67<139 150>
DStem: 468 184 564 184 445 78 542 80 510 381 606 383 483 254 579 254
Fore
216 378 m 0x3f40
 246 378 270 368 287 351 c 0
 302 336 307 319 307 300 c 0
 307 293 307 287 306 280 c 2
 278 148 l 1
 303 175 334 197 371 215 c 0
 407 232 445 246 483 254 c 1
 510 381 l 2
 512 392 513 402 513 410 c 0
 513 434 508 452 494 465 c 0
 477 484 445 493 402 493 c 0
 373 493 342 483 310 465 c 0
 278 447 249 426 223 400 c 1
 168 444 l 1
 202 481 239 512 286 536 c 0
 329 558 376 570 426 570 c 0
 494 570 544 554 576 521 c 0
 599 496 612 465 612 428 c 0x3e80
 612 413 609 399 606 383 c 2
 579 254 l 1
 610 248 634 231 647 204 c 0
 654 187 660 170 660 148 c 0
 660 136 658 123 654 110 c 0
 647 74 629 45 602 23 c 0
 577 0 548 -12 516 -12 c 0xbe40
 492 -12 474 -4 458 10 c 0
 448 20 442 36 442 55 c 0
 442 62 444 70 445 78 c 2
 468 184 l 1
 415 171 367 146 325 112 c 0
 283 77 257 39 242 0 c 1
 151 0 l 1x5f40
 186 161 l 1
 184 161 183 161 177 160 c 0
 175 157 173 157 170 157 c 0
 135 160 112 171 96 191 c 0
 86 207 80 223 80 244 c 0
 80 251 81 258 83 267 c 0
 90 297 106 323 128 344 c 0
 154 367 181 378 216 378 c 0x3f40
590 117 m 0
 592 126 593 133 593 141 c 0
 593 149 592 157 589 162 c 0
 583 174 574 180 564 184 c 1
 542 80 l 1
 542 71 l 0
 542 62 544 59 551 59 c 0x9f40
 555 61 560 64 567 68 c 0
 571 75 576 84 583 93 c 0
 586 102 589 110 590 117 c 0
186 225 m 0x5e
 200 225 212 229 222 238 c 0
 229 246 233 255 236 268 c 0
 238 274 238 278 238 284 c 0
 238 290 238 296 235 300 c 0
 228 307 219 312 204 312 c 0
 191 312 180 306 170 299 c 0
 161 290 155 280 152 268 c 0
 152 264 151 261 151 258 c 0
 151 251 152 245 157 239 c 0
 164 229 173 225 186 225 c 0x5e
EndSplineSet
EndChar
StartChar: uni0E0A
Encoding: 170 3594 139
Width: 601
Flags: W
HStem: 0 86<182 424> 315 68<216 234> 407 70<465 473>
VStem: 125 72<400 419> 284 73<439 458> 502 98<356 377>
DStem: 286 255 380 246 251 86 347 86 497 320 594 329 458 133 548 106
Fore
389 419 m 0
 392 428 392 436 392 444 c 0
 392 458 389 470 381 478 c 0
 371 493 358 500 345 502 c 1
 348 496 351 487 355 476 c 0
 357 470 357 464 357 458 c 0
 357 450 355 439 354 429 c 0
 347 396 331 368 306 348 c 0
 283 326 252 315 216 315 c 0
 181 315 158 326 141 348 c 0
 129 362 125 380 125 400 c 0
 125 409 125 419 128 429 c 0
 133 455 146 480 170 502 c 0
 190 522 215 539 242 551 c 0
 268 563 294 568 319 568 c 0
 360 568 396 560 422 542 c 0
 452 525 468 502 470 477 c 1
 483 477 506 484 539 502 c 0
 573 516 610 551 654 605 c 1
 712 560 l 1
 689 522 660 494 632 477 c 0
 603 458 581 447 568 442 c 1
 574 439 584 429 594 413 c 0
 599 405 600 393 600 377 c 0
 600 364 599 348 594 329 c 2
 548 106 l 2
 541 75 532 52 523 38 c 0
 512 23 499 13 481 9 c 0
 464 3 439 0 405 0 c 2
 164 0 l 1
 183 86 l 1
 251 86 l 1
 286 255 l 2
 290 274 297 289 304 300 c 0
 313 312 323 325 338 339 c 0
 351 352 360 364 370 374 c 0
 376 383 384 399 389 419 c 0
232 383 m 0
 245 383 257 389 265 396 c 0
 276 405 281 415 283 426 c 0
 284 431 284 435 284 439 c 0
 284 447 283 452 278 457 c 0
 273 465 264 468 251 468 c 0
 238 468 226 464 216 455 c 0
 206 447 202 438 199 426 c 0
 199 422 197 419 197 415 c 0
 197 407 199 402 203 396 c 0
 210 389 219 383 232 383 c 0
465 407 m 1
 460 387 454 370 447 361 c 0
 439 351 434 341 422 331 c 0
 412 319 405 307 399 297 c 0
 390 286 384 267 380 246 c 2
 347 86 l 1
 402 86 l 2
 423 86 436 88 444 93 c 0
 450 100 454 113 458 133 c 2
 497 320 l 2
 500 335 502 347 502 357 c 0
 502 373 499 383 492 390 c 0
 484 402 474 407 465 407 c 1
EndSplineSet
EndChar
StartChar: uni0E0B
Encoding: 171 3595 140
Width: 636
Flags: W
HStem: 0 86<217 457> 242 65<191 205> 393 65<216 238>
VStem: 90 78<330 351> 255 71<355 378> 538 99<354 380>
DStem: 323 264 415 246 286 86 381 86 534 320 629 329 494 133 583 106
Fore
420 574 m 1
 441 571 463 560 483 541 c 0
 503 521 513 500 513 477 c 1
 525 478 547 487 579 505 c 0
 610 521 645 554 687 605 c 1
 748 560 l 1
 725 522 697 494 670 477 c 0
 641 458 619 447 606 442 c 1
 612 439 621 429 631 413 c 0
 634 405 637 393 637 380 c 0
 637 365 634 349 629 329 c 2
 583 106 l 2
 573 62 560 33 542 20 c 0
 522 7 489 0 441 0 c 2
 199 0 l 1
 218 86 l 1
 286 86 l 1
 323 264 l 2
 326 281 334 297 341 307 c 0
 347 316 358 328 374 342 c 0
 389 355 399 367 407 377 c 0
 418 389 423 402 428 419 c 0
 432 434 434 445 434 455 c 0
 434 460 434 464 432 468 c 0
 429 480 422 490 407 500 c 1
 326 464 l 1
 257 500 l 1
 239 496 222 489 212 477 c 0
 200 465 193 455 187 447 c 1
 191 450 196 452 203 454 c 0
 210 457 222 458 238 458 c 0
 260 458 277 454 293 444 c 0
 306 436 316 423 322 407 c 0
 325 397 326 387 326 376 c 0
 326 370 326 362 325 355 c 0
 320 325 303 297 277 276 c 0
 254 254 225 242 191 242 c 0
 151 242 120 255 104 283 c 0
 94 302 90 322 90 347 c 0
 90 360 91 373 94 387 c 0
 96 396 100 412 106 431 c 0
 117 458 133 484 157 506 c 0
 178 528 204 545 229 557 c 0
 254 568 273 574 286 574 c 1
 342 539 l 1
 355 544 371 552 392 560 c 0
 410 568 420 574 420 574 c 1
500 407 m 1
 494 390 487 376 481 365 c 0
 474 354 465 344 457 335 c 0
 447 323 441 312 432 299 c 0
 425 286 419 267 415 246 c 2
 381 86 l 1
 436 86 l 2
 458 86 471 88 477 93 c 0
 484 100 490 113 494 133 c 2
 534 320 l 2
 536 334 538 345 538 354 c 0
 538 371 534 383 526 390 c 0
 518 402 508 407 500 407 c 1
203 307 m 0
 218 307 229 313 239 320 c 0
 246 329 252 339 254 351 c 0
 255 357 255 361 255 367 c 0
 255 373 255 377 252 381 c 0
 245 390 236 393 222 393 c 0
 209 393 197 389 187 380 c 0
 178 373 173 362 170 351 c 0
 170 347 168 344 168 339 c 0
 168 332 170 326 174 320 c 0
 181 313 190 307 203 307 c 0
EndSplineSet
EndChar
StartChar: uni0E0C
Encoding: 172 3596 141
Width: 783
Flags: W
HStem: -10 58<405 414> 139 61<228 241> 503 67<387 425>
VStem: 109 62<71 87> 264 61<107 119> 338 54<62 87> 487 93<432 450>
DStem: 484 419 577 405 441 209 535 203 728 557 824 557 637 130 705 0
Fore
506 65 m 2
 502 45 490 26 473 12 c 0
 455 -3 432 -10 405 -10 c 0
 377 -10 357 0 347 20 c 0
 341 32 338 46 338 62 c 0
 338 74 338 86 341 97 c 0
 347 125 360 149 376 168 c 0
 390 187 410 200 441 209 c 1
 484 419 l 2
 486 426 487 432 487 439 c 0
 487 455 480 470 467 480 c 0
 448 494 422 502 387 503 c 0
 373 503 349 500 320 492 c 0
 291 483 267 471 252 457 c 1
 262 455 277 452 299 444 c 0
 319 438 339 428 355 413 c 1
 345 367 l 1
 328 367 309 362 289 351 c 0
 270 339 255 315 248 277 c 2
 231 199 l 1
 232 200 232 200 233 200 c 0
 239 200 l 0
 260 200 278 194 293 186 c 0
 306 175 316 162 320 146 c 0
 323 138 325 128 325 119 c 0
 325 112 323 104 322 96 c 0
 318 77 312 61 300 45 c 0
 287 28 271 14 255 4 c 0
 236 -4 216 -10 196 -10 c 0
 162 -10 138 0 123 22 c 0
 115 35 109 51 109 71 c 0
 109 80 110 88 112 97 c 2
 149 270 l 2
 155 302 165 326 175 344 c 0
 188 362 204 378 226 392 c 1
 220 394 209 400 190 405 c 0
 174 409 155 415 130 416 c 1
 136 447 l 1
 155 468 188 493 236 525 c 0
 284 555 348 570 425 570 c 0
 461 570 490 566 512 554 c 0
 534 542 552 529 561 513 c 0
 571 494 579 477 579 458 c 0
 580 450 580 441 580 434 c 0
 580 423 580 413 577 405 c 2
 535 203 l 1
 554 199 570 190 584 178 c 0
 600 167 613 160 622 151 c 0
 631 142 635 136 637 130 c 1
 728 557 l 1
 824 557 l 1
 705 0 l 1
 609 0 l 1
 606 17 597 42 584 72 c 0
 568 102 548 122 519 129 c 1
 506 65 l 2
209 51 m 0
 216 51 226 52 236 58 c 0
 242 62 249 67 254 74 c 0
 258 80 261 87 262 96 c 0
 264 100 264 104 264 107 c 0
 264 116 262 122 258 128 c 0
 252 136 242 139 228 139 c 0
 213 139 203 135 191 126 c 0
 181 117 175 106 173 96 c 0
 171 93 171 90 171 87 c 0
 171 78 174 71 180 65 c 0
 186 55 194 51 209 51 c 0
423 55 m 1
 442 146 l 1
 426 144 416 138 409 129 c 0
 403 122 397 109 393 90 c 0
 392 86 392 81 392 78 c 0
 392 71 393 65 396 61 c 0
 400 52 405 48 412 48 c 0
 416 48 419 51 423 55 c 1
EndSplineSet
EndChar
StartChar: uni0E0D
Encoding: 173 3597 142
Width: 783
Flags: W
HStem: -86 61<407 422> -10 61<196 211> 0 86<360 602> 139 61<228 241> 503 67<387 425>
VStem: 109 62<71 87> 264 61<107 119> 448 58<-120 -103> 487 93<432 450>
DStem: 484 419 577 405 415 86 510 86 728 557 824 557 638 133 728 106
Fore
824 557 m 1xbe80
 728 106 l 2
 721 75 712 52 700 38 c 0
 687 23 671 13 652 9 c 0
 632 3 605 0 570 0 c 2
 342 0 l 1
 361 86 l 1
 415 86 l 1xbe80
 484 419 l 2
 486 426 487 432 487 439 c 0
 487 455 480 470 467 480 c 0
 448 494 422 502 387 503 c 0
 373 503 349 500 320 492 c 0
 291 483 267 471 252 457 c 1
 262 455 277 452 299 444 c 0
 319 438 339 428 355 413 c 1
 345 367 l 1
 328 367 309 362 289 351 c 0
 270 339 255 315 248 277 c 2
 231 199 l 1
 232 200 232 200 233 200 c 0
 239 200 l 0
 260 200 278 194 293 186 c 0
 306 175 316 162 320 146 c 0
 323 138 325 128 325 119 c 0
 325 112 323 104 322 96 c 0
 318 77 312 61 300 45 c 0
 287 28 271 14 255 4 c 0
 236 -4 216 -10 196 -10 c 0xde80
 162 -10 138 0 123 22 c 0
 115 35 109 51 109 71 c 0
 109 80 110 88 112 97 c 2
 149 270 l 2
 155 302 165 326 175 344 c 0
 188 362 204 378 226 392 c 1
 220 394 209 400 190 405 c 0
 174 409 154 415 130 416 c 1
 136 447 l 1
 155 468 188 493 236 525 c 0
 284 555 348 570 425 570 c 0
 461 570 490 566 512 554 c 0
 534 542 552 529 561 513 c 0
 571 494 579 477 579 458 c 0
 580 450 580 441 580 434 c 0
 580 423 580 413 577 405 c 2
 510 86 l 1
 589 86 l 2
 608 86 619 88 625 93 c 0
 628 99 632 112 638 133 c 2
 728 557 l 1
 824 557 l 1xbe80
474 -188 m 1
 496 -188 518 -178 544 -160 c 0
 568 -138 587 -96 602 -30 c 1
 696 -30 l 1
 683 -91 663 -139 632 -175 c 0
 603 -212 571 -236 538 -249 c 0
 503 -264 470 -270 435 -270 c 0
 406 -270 383 -267 364 -260 c 0
 329 -246 307 -229 297 -209 c 0
 291 -196 289 -180 289 -164 c 0
 289 -152 290 -141 293 -129 c 0
 299 -100 316 -75 339 -55 c 0
 361 -35 389 -25 422 -25 c 0
 457 -25 481 -35 494 -55 c 0
 502 -70 506 -86 506 -103 c 0x9f
 506 -112 505 -122 503 -130 c 0
 497 -155 489 -175 474 -188 c 1
390 -174 m 0
 405 -174 418 -168 428 -161 c 0
 438 -152 444 -141 447 -129 c 0
 448 -126 448 -123 448 -119 c 0
 448 -112 445 -104 442 -99 c 0
 435 -90 423 -86 409 -86 c 0
 396 -86 384 -90 374 -99 c 0
 364 -106 358 -117 355 -129 c 0
 355 -132 354 -135 354 -136 c 0
 354 -146 358 -154 361 -161 c 0
 368 -168 377 -174 390 -174 c 0
209 51 m 0xde
 216 51 226 52 236 58 c 0
 242 62 249 67 254 74 c 0
 258 80 261 87 262 96 c 0
 264 100 264 104 264 107 c 0
 264 116 262 122 258 128 c 0
 252 136 242 139 228 139 c 0
 213 139 203 135 191 126 c 0
 181 117 175 106 173 96 c 0
 171 93 171 90 171 87 c 0
 171 78 174 71 180 65 c 0
 186 55 194 51 209 51 c 0xde
EndSplineSet
Substitution: 0 65534 'ndsc' uni0E0D.descless
Substitution: 0 65534 'G000' uni0E0D.descless
EndChar
StartChar: uni0E0E
Encoding: 174 3598 143
Width: 658
Flags: W
HStem: -267 80<156 174> -104 79<206 222> 146 63<163 180> 499 71<453 478>
VStem: 42 65<72 91> 568 99<409 426>
DStem: 564 378 663 387 455 -138 523 -267
AnchorPoint: "BelowBase" 502.969 -314.65 basechar 0
Fore
378 -77 m 1
 397 -88 416 -99 428 -110 c 0
 441 -123 450 -133 455 -138 c 1
 564 378 l 2
 566 389 568 400 568 409 c 0
 568 433 560 453 545 468 c 0
 525 489 494 499 455 499 c 0
 434 499 407 494 381 487 c 0
 355 480 332 470 309 455 c 1
 319 454 334 451 354 444 c 0
 373 439 392 428 409 413 c 1
 399 367 l 1
 383 367 365 362 344 351 c 0
 325 339 309 315 302 277 c 2
 264 100 l 2
 257 67 241 41 219 22 c 0
 197 0 170 -10 132 -12 c 1
 99 -10 72 0 58 22 c 0
 48 36 42 53 42 72 c 0
 42 80 43 88 45 97 c 0
 52 128 68 154 91 175 c 0
 115 197 145 209 180 209 c 0
 183 209 186 209 187 209 c 0
 187 206 187 206 190 206 c 1
 204 270 l 2
 210 302 220 326 232 344 c 0
 244 362 260 378 281 392 c 1
 274 394 262 400 245 405 c 0
 228 409 207 415 184 416 c 1
 190 447 l 1
 196 452 204 461 216 471 c 0
 229 483 248 496 273 513 c 0
 297 528 328 542 361 554 c 0
 397 566 436 570 478 570 c 0
 522 570 558 564 589 550 c 0
 621 536 641 515 654 487 c 0
 662 469 667 448 667 426 c 0
 667 414 665 401 663 387 c 2
 523 -267 l 5
 428 -267 l 1
 413 -238 397 -213 378 -194 c 0
 358 -177 345 -164 335 -157 c 1
 318 -187 293 -213 261 -235 c 0
 229 -254 195 -267 156 -267 c 0
 154 -267 151 -267 149 -267 c 0
 119 -267 94 -254 75 -231 c 0
 62 -216 56 -197 56 -176 c 0
 56 -166 57 -156 59 -146 c 0
 68 -109 87 -80 116 -59 c 0
 145 -38 181 -26 220 -25 c 0
 248 -25 277 -30 309 -42 c 1
 310 -38 315 -28 322 -16 c 0
 326 -4 332 10 341 30 c 1
 418 13 l 1
 413 -1 405 -20 397 -38 c 0
 390 -55 384 -68 378 -77 c 1
145 51 m 0
 160 51 173 55 183 65 c 0
 193 75 200 87 202 99 c 0
 203 104 204 110 204 115 c 0
 204 122 202 128 200 133 c 0
 193 141 180 146 165 146 c 0
 149 146 139 141 129 133 c 0
 117 123 110 112 107 99 c 0
 107 96 107 93 107 91 c 0
 107 82 109 73 115 65 c 0
 120 55 129 51 145 51 c 0
204 -180 m 0
 225 -173 238 -162 248 -149 c 0
 260 -138 265 -128 270 -119 c 1
 251 -110 229 -104 206 -104 c 0
 187 -104 170 -110 160 -117 c 0
 146 -126 138 -138 135 -151 c 0
 134 -152 134 -153 134 -154 c 0
 134 -157 135 -161 136 -165 c 0
 138 -180 149 -187 174 -187 c 0
 187 -187 197 -186 204 -180 c 0
EndSplineSet
EndChar
StartChar: uni0E0F
Encoding: 175 3599 144
Width: 658
Flags: W
HStem: -268 69<125 146> -126 68<160 178> 146 63<157 180> 499 71<452 478>
VStem: 42 60<72 90> 46 70<-185 -167> 568 99<409 426>
DStem: 564 378 663 387 454 -141 523 -267
AnchorPoint: "BelowBase" 502.969 -314.65 basechar 0
Fore
410 -84 m 1xf6
 454 -141 l 1
 564 378 l 2
 566 389 568 400 568 409 c 0
 568 433 560 453 545 468 c 0
 525 489 494 499 455 499 c 0
 434 499 407 494 381 487 c 0
 355 480 332 470 309 455 c 1
 319 454 334 451 354 444 c 0
 373 439 392 428 409 413 c 1
 399 367 l 1
 383 367 365 362 344 351 c 0
 325 339 309 315 302 277 c 2
 264 100 l 2
 257 67 241 41 219 22 c 0
 197 0 170 -10 132 -12 c 1
 99 -10 72 0 58 22 c 0
 48 36 42 53 42 72 c 0xfa
 42 80 43 88 45 97 c 0
 52 128 68 154 91 175 c 0
 115 197 145 209 180 209 c 0
 183 209 186 209 187 209 c 0
 187 206 187 206 190 206 c 1
 204 270 l 2
 210 302 220 326 232 344 c 0
 244 362 260 378 281 392 c 1
 274 394 262 400 245 405 c 0
 228 409 207 415 184 416 c 1
 190 447 l 1
 196 452 204 461 216 471 c 0
 229 483 248 496 273 513 c 0
 297 528 328 542 361 554 c 0
 397 566 436 570 478 570 c 0
 522 570 558 564 589 550 c 0
 621 536 641 515 654 487 c 0
 662 469 667 448 667 426 c 0
 667 414 665 401 663 387 c 2
 523 -267 l 1
 434 -267 l 1
 384 -187 l 1
 291 -267 l 1
 286 -251 280 -236 271 -222 c 0
 264 -206 258 -199 254 -193 c 1
 246 -204 232 -222 212 -239 c 0
 188 -260 161 -268 125 -268 c 0
 97 -268 74 -260 61 -238 c 0
 50 -223 46 -206 46 -185 c 0
 46 -175 47 -163 49 -151 c 1
 59 -122 77 -99 100 -81 c 0
 125 -65 151 -58 178 -58 c 0
 206 -58 232 -65 251 -80 c 1
 257 -72 264 -58 274 -36 c 0
 284 -16 293 4 299 28 c 1
 367 16 l 1
 341 -54 318 -102 302 -126 c 1
 303 -128 307 -133 312 -138 c 0
 315 -142 319 -149 322 -155 c 1
 336 -144 355 -129 378 -112 c 0
 399 -93 409 -86 410 -84 c 1xf6
145 51 m 0
 161 52 174 58 181 67 c 0
 190 75 196 86 197 99 c 0
 198 104 199 109 199 114 c 0
 199 121 198 127 194 133 c 0
 187 141 174 146 157 146 c 0
 142 144 130 139 120 130 c 0
 112 122 104 112 103 100 c 0
 102 96 102 93 102 90 c 0
 102 80 105 72 112 65 c 1
 116 55 128 51 145 51 c 0
165 -193 m 0
 175 -188 187 -178 196 -167 c 0
 203 -155 207 -151 207 -149 c 1
 207 -149 l 1
 193 -135 178 -126 162 -126 c 0
 145 -126 128 -135 119 -152 c 1
 117 -160 116 -166 116 -172 c 0xf6
 116 -190 126 -199 144 -199 c 0
 151 -199 158 -197 165 -193 c 0
EndSplineSet
EndChar
StartChar: uni0E10
Encoding: 176 3600 145
Width: 497
Flags: W
HStem: -313 58<0 17> -210 56<281 294> -194 55<29 44> -80 57<307 322> 0 21G<310 412> 135 67<193 211> 287 68<226 239> 457 75<503 519> 500 70<320 346>
VStem: -71 59<-242 -233> 103 71<219 233> 204 61<-138 -128> 339 58<-117 -91> 381 97<324 348>
Fore
310 0 m 1x9ef4
 310 28 306 62 299 106 c 0
 291 149 286 171 284 171 c 0
 277 165 268 157 254 148 c 0
 238 139 218 135 193 135 c 0
 158 135 132 146 119 167 c 0
 109 183 103 199 103 219 c 0
 103 226 104 235 106 244 c 0
 112 274 128 300 152 320 c 0
 175 342 204 354 239 355 c 0
 270 355 296 349 312 338 c 0
 326 325 334 303 339 274 c 0x9ef8
 342 261 347 244 351 225 c 0
 355 204 357 194 357 193 c 2
 374 270 l 2
 378 294 381 313 381 326 c 0
 381 335 l 0
 378 348 374 357 365 362 c 0
 357 367 341 373 313 380 c 0
 277 390 242 400 204 406 c 0
 167 413 138 418 119 419 c 1
 128 455 l 1
 148 477 168 496 190 515 c 0
 215 532 239 547 264 555 c 0
 287 566 315 570 344 570 c 0x9ef4
 374 570 407 564 444 552 c 0
 480 539 505 532 519 532 c 0
 538 532 560 538 584 547 c 0
 586 547 586 538 587 519 c 0
 587 502 586 484 584 471 c 1
 552 463 525 457 503 457 c 0x9f74
 489 457 476 458 465 461 c 0
 454 464 438 470 416 478 c 0
 393 487 377 492 365 494 c 0
 354 499 341 500 328 500 c 0
 312 500 299 496 283 490 c 0
 267 483 257 477 254 471 c 1
 267 470 287 467 316 463 c 0
 345 457 365 451 380 447 c 0
 434 431 467 413 474 389 c 0
 477 377 478 364 478 348 c 0
 478 328 476 303 470 274 c 2
 412 0 l 1
 310 0 l 1x9ef4
260 -246 m 1
 290 -228 l 1
 293 -209 l 1
 291 -210 286 -210 281 -210 c 0
 252 -210 232 -200 218 -181 c 0
 209 -170 204 -154 204 -138 c 0
 204 -130 206 -123 207 -116 c 0
 213 -91 226 -68 249 -51 c 0
 268 -33 294 -23 322 -23 c 0
 349 -23 370 -30 383 -49 c 0
 393 -61 397 -75 397 -91 c 0
 397 -99 397 -104 396 -112 c 2
 374 -210 l 2xde78
 371 -226 364 -239 351 -249 c 0
 339 -261 325 -270 309 -278 c 0
 293 -287 273 -299 249 -310 c 1
 193 -274 l 1
 129 -307 l 1
 94 -264 l 1
 74 -296 42 -313 0 -313 c 0
 -4 -313 l 0
 -29 -313 -46 -302 -59 -286 c 0
 -67 -273 -71 -258 -71 -242 c 0
 -71 -235 -70 -228 -68 -219 c 0
 -64 -197 -49 -177 -26 -162 c 0
 -6 -148 19 -139 44 -139 c 0xbe78
 67 -139 84 -148 100 -162 c 1
 103 -154 109 -141 117 -119 c 0
 126 -99 132 -74 138 -46 c 1
 200 -46 l 1
 194 -77 186 -106 174 -135 c 0
 164 -162 149 -188 135 -210 c 1xde78
 155 -236 l 2
 158 -236 165 -231 181 -223 c 0
 199 -215 206 -210 206 -209 c 1
 260 -246 l 1
30 -194 m 0xbe70
 19 -194 9 -199 3 -204 c 0
 -4 -212 -9 -219 -10 -228 c 0
 -10 -231 -12 -233 -12 -235 c 0
 -12 -249 -1 -255 17 -255 c 0
 28 -255 38 -251 49 -241 c 0
 57 -232 64 -225 67 -218 c 1
 65 -213 59 -209 55 -203 c 0
 48 -199 41 -194 30 -194 c 0xbe70
294 -154 m 0xde78
 306 -154 316 -151 323 -142 c 0
 332 -136 336 -128 339 -117 c 0
 339 -116 339 -113 339 -110 c 0
 339 -104 338 -99 335 -91 c 0
 331 -84 322 -80 310 -80 c 0
 299 -80 289 -84 283 -91 c 0
 273 -100 268 -109 267 -117 c 0
 265 -120 265 -125 265 -128 c 0
 265 -133 267 -138 271 -142 c 0
 274 -151 283 -154 294 -154 c 0xde78
209 202 m 0
 223 202 233 206 244 215 c 0
 252 223 258 232 261 244 c 0
 261 252 l 0
 261 260 260 267 257 274 c 0
 249 281 241 287 226 287 c 0
 212 287 200 281 193 274 c 0
 183 265 177 255 175 244 c 0
 174 239 174 236 174 233 c 0
 174 226 175 220 180 215 c 0
 186 206 196 202 209 202 c 0
EndSplineSet
Substitution: 0 65534 'ndsc' uni0E10.descless
Substitution: 0 65534 'G000' uni0E10.descless
EndChar
StartChar: uni0E11
Encoding: 177 3601 146
Width: 767
Flags: W
HStem: 0 21G<267 357 594 690> 242 65<188 204> 393 65<214 235> 484 76<677 693>
VStem: 87 80<335 351> 254 69<355 376> 435 78<463 477> 692 97<466 484>
DStem: 339 344 435 339 267 0 412 229 557 465 648 463 412 229 357 0 684 420 782 428 594 0 690 0
Fore
435 339 m 2
 412 229 l 1
 557 465 l 2
 580 500 599 525 615 539 c 0
 631 554 657 560 693 560 c 0
 744 560 774 550 782 526 c 0
 786 515 789 500 789 484 c 0
 789 467 786 450 782 428 c 2
 690 0 l 1
 594 0 l 1
 684 420 l 2
 689 447 692 464 692 471 c 0
 692 480 686 483 679 484 c 0
 670 484 663 481 657 477 c 0
 652 471 650 467 648 463 c 2
 357 0 l 1
 267 0 l 1
 339 344 l 2
 349 392 373 423 412 441 c 1
 425 450 434 455 435 464 c 0
 435 468 l 0
 435 478 425 489 406 500 c 1
 323 464 l 1
 254 500 l 1
 235 496 220 489 207 477 c 0
 197 465 188 455 184 447 c 1
 187 450 193 452 200 454 c 0
 209 457 220 458 235 458 c 0
 257 458 276 454 289 444 c 0
 304 436 315 423 319 407 c 0
 322 397 323 387 323 376 c 0
 323 368 322 362 322 355 c 0
 316 325 300 297 274 276 c 0
 251 254 222 242 188 242 c 0
 148 242 117 255 102 281 c 0
 93 297 87 318 87 341 c 0
 87 355 88 370 93 386 c 0
 97 406 102 420 104 431 c 0
 115 458 132 484 155 508 c 0
 178 529 202 545 228 557 c 0
 249 568 270 574 284 574 c 1
 339 539 l 1
 416 574 l 1
 444 568 468 555 489 534 c 0
 505 518 513 499 513 477 c 0
 513 473 513 467 512 461 c 0
 508 447 505 438 499 429 c 0
 493 423 484 415 474 405 c 0
 464 394 457 386 448 377 c 0
 442 368 438 355 435 339 c 2
202 307 m 0
 216 307 228 313 236 320 c 0
 245 329 251 339 252 351 c 0
 254 355 254 361 254 365 c 0
 254 371 252 377 249 381 c 0
 244 390 235 393 220 393 c 0
 207 393 196 389 186 380 c 0
 177 373 170 362 167 351 c 0
 167 348 167 345 167 344 c 0
 167 335 168 328 173 320 c 0
 180 313 188 307 202 307 c 0
EndSplineSet
EndChar
StartChar: uni0E12
Encoding: 178 3602 147
Width: 810
Flags: W
HStem: -10 58<432 442> 364 67<352 368>
VStem: 103 84<297 320> 138 78<116 149> 231 71<296 312> 364 55<64 79> 389 69<331 345> 513 93<421 438>
DStem: 508 392 599 378 470 209 563 203 754 557 850 557 663 130 731 0
Fore
213 116 m 1xd9
 228 130 242 148 257 165 c 0
 268 180 284 197 299 213 c 1
 274 215 258 226 244 248 c 0
 235 261 231 278 231 296 c 0
 231 304 232 315 233 323 c 0
 241 354 255 378 283 400 c 0
 307 420 335 431 368 431 c 0
 403 431 428 420 441 402 c 0
 451 386 458 367 458 345 c 0
 458 338 457 329 455 320 c 0
 450 286 431 252 405 225 c 2
 206 0 l 1
 123 0 l 1
 135 49 138 88 138 116 c 0
 138 129 l 0xdb
 136 130 132 149 123 180 c 0
 113 212 106 242 104 273 c 0
 103 281 103 290 103 299 c 0
 103 319 106 341 112 365 c 0
 122 412 151 454 194 492 c 0
 238 529 280 555 323 567 c 1
 405 529 l 1
 502 568 l 1
 552 541 583 515 596 489 c 0
 602 476 606 458 606 436 c 0
 606 419 603 400 599 378 c 2
 563 203 l 1
 589 197 609 186 628 168 c 0
 645 152 657 139 663 130 c 1
 754 557 l 1
 850 557 l 1
 731 0 l 1
 634 0 l 1
 632 17 624 42 610 72 c 0
 597 102 577 122 547 129 c 1
 534 65 l 2
 529 45 518 26 499 12 c 0
 481 -3 461 -10 432 -10 c 0
 405 -10 386 0 374 20 c 0
 368 32 364 46 364 64 c 0xed
 364 74 365 86 368 97 c 0
 374 125 387 149 403 168 c 0
 418 187 438 200 470 209 c 1
 508 392 l 2
 510 407 513 420 513 432 c 0
 513 444 510 452 509 458 c 0
 503 471 494 483 481 492 c 1
 389 458 l 1
 307 492 l 1
 242 461 203 416 191 362 c 0
 188 349 187 335 187 320 c 0xeb
 187 289 193 252 206 210 c 0
 212 187 213 167 216 149 c 0
 216 133 215 122 213 116 c 1xd9
450 55 m 1
 468 146 l 1
 444 142 428 125 420 90 c 0
 419 86 419 81 419 77 c 0xcd
 419 71 420 65 422 61 c 0
 428 52 434 48 438 48 c 0
 442 48 447 51 450 55 c 1
336 277 m 0
 351 277 361 281 370 290 c 0
 380 299 384 307 387 320 c 0
 389 325 389 328 389 332 c 0xcb
 389 339 387 347 383 352 c 0
 378 361 368 364 354 364 c 0
 341 364 331 358 320 351 c 0
 310 342 306 332 303 320 c 0
 302 318 302 313 302 310 c 0
 302 303 304 296 309 290 c 0
 313 281 323 277 336 277 c 0
EndSplineSet
MinimumDistance: x42,28 
EndChar
StartChar: uni0E13
Encoding: 179 3603 148
Width: 809
Flags: W
HStem: -10 61<196 211> 139 61<228 241> 503 67<387 425>
VStem: 109 62<71 87> 264 61<107 119> 487 93<432 450> 622 99<54 70> 773 67<136 154>
DStem: 484 419 577 405 396 0 529 174 648 184 744 184 625 78 722 80 728 557 824 557 663 254 758 254
Fore
396 0 m 1
 484 419 l 2
 486 426 487 432 487 439 c 0
 487 455 480 470 467 480 c 0
 448 494 422 502 387 503 c 0
 373 503 349 500 320 492 c 0
 291 483 267 471 252 457 c 1
 262 455 277 452 299 444 c 0
 319 438 339 428 355 413 c 1
 345 367 l 1
 328 367 309 362 289 351 c 0
 270 339 255 315 248 277 c 2
 231 199 l 1
 232 200 232 200 233 200 c 0
 239 200 l 0
 260 200 278 194 293 186 c 0
 306 175 316 162 320 146 c 0
 323 138 325 128 325 119 c 0
 325 112 323 104 322 96 c 0
 318 77 312 61 300 45 c 0
 287 28 271 14 255 4 c 0
 236 -4 216 -10 196 -10 c 0
 162 -10 138 0 123 22 c 0
 115 35 109 51 109 71 c 0
 109 80 110 88 112 97 c 2
 149 270 l 2
 155 302 165 326 175 344 c 0
 188 362 204 378 226 392 c 1
 220 394 209 400 190 405 c 0
 174 409 155 415 130 416 c 1
 136 447 l 1
 155 468 188 493 236 525 c 0
 284 555 348 570 425 570 c 0
 461 570 490 566 512 554 c 0
 534 542 552 529 561 513 c 0
 571 494 579 477 579 458 c 0
 580 450 580 441 580 434 c 0
 580 423 580 413 577 405 c 2
 529 174 l 1
 547 191 570 209 597 225 c 0
 625 241 647 251 663 254 c 1
 728 557 l 1
 824 557 l 1
 758 254 l 1
 792 248 815 231 828 204 c 0
 835 188 840 173 840 154 c 0
 840 141 837 126 834 110 c 0
 826 74 809 45 783 23 c 0
 757 0 728 -12 697 -12 c 0
 673 -12 652 -4 637 10 c 0
 628 20 622 35 622 54 c 0
 622 61 624 70 625 78 c 2
 648 184 l 1
 615 171 581 146 552 112 c 0
 523 77 502 41 489 0 c 1
 396 0 l 1
209 51 m 0
 216 51 226 52 236 58 c 0
 242 62 249 67 254 74 c 0
 258 80 261 87 262 96 c 0
 264 100 264 104 264 107 c 0
 264 116 262 122 258 128 c 0
 252 136 242 139 228 139 c 0
 213 139 203 135 191 126 c 0
 181 117 175 106 173 96 c 0
 171 93 171 90 171 87 c 0
 171 78 174 71 180 65 c 0
 186 55 194 51 209 51 c 0
770 117 m 0
 771 125 773 130 773 136 c 0
 773 146 770 154 767 161 c 0
 760 173 753 180 744 184 c 1
 722 80 l 2
 721 75 721 71 721 70 c 0
 721 62 724 59 729 59 c 0
 737 61 747 67 753 78 c 0
 761 90 767 103 770 117 c 0
EndSplineSet
EndChar
StartChar: uni0E14
Encoding: 180 3604 149
Width: 597
Flags: W
HStem: 0 21G<123 206 425 519> 362 67<352 368> 489 81<377 402>
VStem: 106 82<298 321> 138 78<116 149> 231 71<294 311> 387 71<319 342> 510 93<398 422>
DStem: 508 387 599 378 425 0 519 0
Fore
402 570 m 0xf7
 481 568 538 551 570 513 c 0
 593 486 603 455 603 420 c 0
 603 407 602 393 599 378 c 2
 519 0 l 1
 425 0 l 1
 508 387 l 2
 509 394 510 402 510 409 c 0
 510 432 500 450 481 464 c 0
 457 480 428 489 387 489 c 0
 344 489 302 476 262 452 c 0
 225 428 200 396 191 354 c 0
 188 344 188 332 188 319 c 0xf7
 188 290 194 255 206 210 c 0
 212 187 213 167 216 149 c 0
 216 133 215 122 213 116 c 1
 228 130 242 148 257 164 c 0
 270 178 283 194 299 212 c 1
 274 213 258 225 244 246 c 0
 235 260 231 277 231 294 c 0
 231 303 232 312 233 320 c 0
 241 352 255 377 281 399 c 0
 306 419 335 429 368 429 c 0
 403 429 426 419 441 400 c 0
 451 384 458 365 458 342 c 0
 458 335 457 328 455 319 c 0
 448 281 431 251 405 223 c 2
 206 0 l 1
 123 0 l 1
 135 49 138 88 138 116 c 0
 138 129 l 0xef
 138 135 132 151 123 180 c 0
 116 212 110 241 107 273 c 0
 106 281 106 291 106 300 c 0
 106 320 109 342 113 365 c 0
 122 400 139 431 167 463 c 0
 193 493 226 519 268 541 c 0
 309 560 354 570 402 570 c 0xf7
336 277 m 0
 351 277 361 281 370 290 c 0
 380 299 384 307 387 319 c 0
 387 322 389 326 389 329 c 0
 389 338 386 345 381 351 c 0
 378 358 368 362 354 362 c 0
 341 362 329 357 320 349 c 0
 310 341 304 331 303 319 c 0
 302 315 302 312 302 309 c 0
 302 302 304 296 309 290 c 0
 313 281 323 277 336 277 c 0
EndSplineSet
EndChar
StartChar: uni0E15
Encoding: 181 3605 150
Width: 597
Flags: W
HStem: 0 21G<123 206 425 519> 364 67<352 368>
VStem: 103 84<297 320> 138 78<116 149> 231 71<296 312> 389 69<331 345> 513 93<429 438>
DStem: 508 392 599 378 425 0 519 0
Fore
519 0 m 1xee
 425 0 l 1
 508 392 l 2
 510 407 513 420 513 432 c 0
 513 444 510 452 509 458 c 0
 503 471 494 483 481 492 c 1
 389 458 l 1
 307 492 l 1
 242 461 203 416 191 362 c 0
 188 349 187 335 187 320 c 0xee
 187 289 193 252 206 210 c 0
 212 187 213 167 216 149 c 0
 216 133 215 122 213 116 c 1
 228 130 242 148 257 165 c 0
 268 180 284 197 299 213 c 1
 274 215 258 226 244 248 c 0
 235 261 231 278 231 296 c 0
 231 304 232 315 233 323 c 0
 241 354 255 378 283 400 c 0
 307 420 335 431 368 431 c 0
 403 431 428 420 441 402 c 0
 451 386 458 367 458 345 c 0
 458 338 457 329 455 320 c 0
 450 286 431 252 405 225 c 2
 206 0 l 1
 123 0 l 1
 135 49 138 88 138 116 c 0
 138 129 l 0xde
 136 130 132 149 123 180 c 0
 113 212 106 242 104 273 c 0
 103 281 103 290 103 299 c 0
 103 319 106 341 112 365 c 0
 122 412 151 454 194 492 c 0
 238 529 280 555 323 567 c 1
 405 529 l 1
 502 568 l 1
 552 541 583 515 596 489 c 0
 602 476 606 458 606 436 c 0
 606 419 603 400 599 378 c 2
 519 0 l 1xee
336 277 m 0
 351 277 361 281 370 290 c 0
 380 299 384 307 387 320 c 0
 389 325 389 328 389 332 c 0
 389 339 387 347 383 352 c 0
 378 361 368 364 354 364 c 0
 341 364 331 358 320 351 c 0
 310 342 306 332 303 320 c 0
 302 318 302 313 302 310 c 0
 302 303 304 296 309 290 c 0
 313 281 323 277 336 277 c 0
EndSplineSet
EndChar
StartChar: uni0E16
Encoding: 182 3606 151
Width: 603
Flags: W
HStem: -10 62<200 222> 148 62<233 245.02> 499 71<397 425>
VStem: 110 70<74 88> 276 62<112 123> 515 98<410 429>
DStem: 510 378 609 387 431 0 526 0
Fore
233 210 m 1
 246 210 l 2
 281 210 306 199 320 177 c 0
 332 160 338 142 338 123 c 0
 338 116 336 107 335 100 c 0
 328 71 313 45 287 23 c 0
 264 1 235 -10 200 -10 c 0
 167 -10 142 1 128 23 c 0
 116 39 110 55 110 74 c 0
 110 83 112 91 113 100 c 2
 149 270 l 2
 155 302 165 326 175 344 c 0
 188 362 204 378 226 392 c 1
 220 394 209 400 190 405 c 0
 174 409 154 415 130 416 c 1
 136 447 l 1
 142 452 151 461 162 471 c 0
 175 483 194 496 219 513 c 0
 242 528 274 542 309 554 c 0
 344 566 383 570 425 570 c 0
 470 570 506 564 535 551 c 0
 566 536 587 516 600 489 c 0
 609 471 613 452 613 429 c 0
 613 416 612 403 609 387 c 2
 526 0 l 1
 431 0 l 1
 510 378 l 2
 513 390 515 402 515 412 c 0
 515 435 508 455 493 468 c 0
 471 490 441 499 400 499 c 0
 354 499 304 483 254 455 c 1
 260 454 264 452 274 451 c 0
 286 450 297 444 312 439 c 0
 328 432 342 425 355 413 c 1
 345 367 l 1
 328 367 309 362 289 351 c 0
 270 339 255 315 248 277 c 2
 233 210 l 1
222 52 m 0
 235 54 245 59 255 67 c 0
 265 75 273 87 274 99 c 0
 276 103 276 107 276 112 c 0
 276 120 274 128 270 135 c 0
 262 142 251 148 233 148 c 0
 218 146 207 141 200 133 c 0
 188 125 184 113 181 100 c 0
 180 96 180 93 180 88 c 0
 180 81 183 74 187 67 c 0
 193 58 204 52 222 52 c 0
EndSplineSet
EndChar
StartChar: uni0E17
Encoding: 183 3607 152
Width: 655
Flags: W
HStem: 0 21G<157 248 484 580> 348 65<196 230> 484 76<566 583> 500 67<243 260>
VStem: 123 70<435 445> 280 72<465 480> 581 98<467 486>
DStem: 231 349 349 454 157 0 302 229 448 465 538 463 302 229 248 0 574 420 671 428 484 0 580 0
Fore
157 0 m 1xee
 231 349 l 1
 225 348 213 348 196 348 c 0
 167 351 148 364 136 386 c 0
 128 400 123 416 123 435 c 0
 123 442 125 450 126 458 c 0
 133 489 148 515 174 536 c 0
 196 557 225 567 260 567 c 0xde
 296 567 320 555 336 534 c 0
 347 519 352 500 352 480 c 0
 352 471 351 463 349 454 c 2
 302 229 l 1
 448 465 l 2
 471 502 489 526 505 541 c 0
 521 554 547 560 583 560 c 0
 635 560 667 550 671 526 c 0
 676 515 679 502 679 486 c 0
 679 468 676 450 671 428 c 2
 580 0 l 1
 484 0 l 1
 574 420 l 2
 579 445 581 464 581 471 c 0
 581 480 577 483 568 484 c 0
 560 484 554 481 548 477 c 0
 542 471 539 467 538 463 c 2
 248 0 l 1
 157 0 l 1xee
228 413 m 0
 242 413 252 418 261 426 c 0
 271 434 276 444 278 457 c 0
 280 461 280 465 280 468 c 0
 280 476 278 483 276 489 c 0
 270 496 260 500 245 500 c 0
 232 500 220 494 212 487 c 0
 202 478 197 468 194 457 c 0
 193 452 193 450 193 445 c 0
 193 438 194 431 199 426 c 0
 204 418 215 413 228 413 c 0
EndSplineSet
EndChar
StartChar: uni0E18
Encoding: 184 3608 153
Width: 519
Flags: W
HStem: 0 86<70 341> 383 67<173 223> 458 73<518 533> 499 69<325 349>
VStem: 409 97<317 329>
DStem: 196 345 290 345 141 86 235 86 403 274 499 273 374 133 464 106
Fore
223 450 m 1xd8
 229 450 233 450 238 451 c 0
 245 451 258 451 280 451 c 0
 376 451 444 432 483 396 c 0
 497 381 506 360 506 329 c 0
 506 312 503 293 499 273 c 2
 464 106 l 2
 454 62 439 33 422 20 c 0
 405 7 370 0 320 0 c 2
 52 0 l 1
 71 86 l 1
 141 86 l 1
 196 345 l 1
 290 345 l 1
 235 86 l 1
 320 86 l 2
 342 86 354 88 360 93 c 0
 365 100 370 113 374 133 c 2
 403 274 l 2
 407 291 409 307 409 319 c 0
 407 331 400 342 389 354 c 0
 378 364 352 370 310 376 c 0
 268 380 222 383 173 383 c 0
 142 383 120 383 106 381 c 1
 117 439 l 1
 146 474 178 503 218 529 c 0
 257 555 302 568 349 568 c 0xd8
 384 568 419 563 457 551 c 0
 493 538 518 531 529 531 c 0
 547 531 570 536 593 547 c 1
 600 477 l 1
 570 465 542 458 518 458 c 0xe8
 497 458 467 465 428 478 c 0
 386 492 354 499 325 499 c 0
 299 499 277 492 258 480 c 0
 242 468 231 457 223 450 c 1xd8
EndSplineSet
EndChar
StartChar: uni0E19
Encoding: 185 3609 154
Width: 646
Flags: W
HStem: -12 71<516 551> 351 65<210 226> 503 67<240 258>
VStem: 122 71<436 449> 278 70<461 492> 442 100<55 71> 593 67<139 150>
DStem: 226 352 347 471 151 0 277 142 468 184 564 184 445 78 542 80 548 557 644 557 483 254 579 254
Fore
548 557 m 1
 644 557 l 1
 579 254 l 1
 610 248 634 231 647 204 c 0
 654 187 660 170 660 148 c 0
 660 136 658 123 654 110 c 0
 647 74 629 45 602 23 c 0
 577 0 548 -12 516 -12 c 0
 492 -12 474 -4 458 10 c 0
 448 20 442 36 442 55 c 0
 442 62 444 70 445 78 c 2
 468 184 l 1
 423 171 378 144 335 106 c 0
 289 68 258 33 242 0 c 1
 151 0 l 1
 226 352 l 1
 225 352 223 352 219 352 c 0
 216 351 213 351 210 351 c 0
 175 351 152 362 138 386 c 0
 128 400 122 418 122 436 c 0
 122 444 123 452 125 461 c 0
 130 490 146 516 170 538 c 0
 194 558 223 570 258 570 c 0
 289 570 310 563 329 544 c 0
 342 529 348 512 348 492 c 0
 348 486 348 478 347 471 c 2
 277 142 l 1
 303 171 334 193 373 213 c 0
 410 231 447 246 483 254 c 1
 548 557 l 1
226 416 m 0
 241 416 252 420 262 429 c 0
 270 438 274 447 278 461 c 0
 278 465 280 468 280 473 c 0
 280 480 278 486 276 492 c 0
 268 500 260 503 245 503 c 0
 232 503 220 499 210 490 c 0
 202 481 196 471 194 461 c 0
 193 457 193 451 193 447 c 0
 193 441 194 435 197 429 c 0
 204 420 213 416 226 416 c 0
590 117 m 0
 592 126 593 133 593 141 c 0
 593 149 592 157 589 162 c 0
 583 174 574 180 564 184 c 1
 542 80 l 1
 542 71 l 0
 542 62 544 59 551 59 c 0
 555 61 560 64 567 68 c 0
 571 75 576 84 583 93 c 0
 586 102 589 110 590 117 c 0
EndSplineSet
EndChar
StartChar: uni0E1A
Encoding: 186 3610 155
Width: 620
Flags: W
HStem: 0 86<86 421> 348 65<178 214> 500 67<227 244>
VStem: 107 68<435 447> 264 72<463 478>
DStem: 215 349 334 454 160 86 255 86 564 557 661 557 474 133 566 109
Fore
160 86 m 1
 215 349 l 1
 209 348 197 348 178 348 c 0
 151 351 130 364 120 386 c 0
 112 400 107 416 107 435 c 0
 107 442 109 450 110 458 c 0
 115 477 120 494 133 513 c 0
 146 529 160 542 180 552 c 0
 197 563 219 567 244 567 c 0
 280 567 304 555 319 534 c 0
 331 519 336 500 336 478 c 0
 336 471 335 463 334 454 c 2
 255 86 l 1
 413 86 l 2
 435 86 450 88 458 96 c 0
 464 100 470 113 474 133 c 2
 564 557 l 1
 661 557 l 1
 566 109 l 2
 557 65 539 38 512 23 c 0
 484 9 445 0 394 0 c 2
 68 0 l 1
 87 86 l 1
 160 86 l 1
212 413 m 0
 225 413 235 418 244 426 c 0
 255 434 260 444 262 457 c 0
 264 461 264 464 264 468 c 0
 264 476 262 483 258 489 c 0
 252 496 242 500 229 500 c 0
 216 500 204 494 194 487 c 0
 186 478 180 468 177 457 c 0
 175 454 175 451 175 447 c 0
 175 439 178 432 181 426 c 0
 188 418 199 413 212 413 c 0
EndSplineSet
EndChar
StartChar: uni0E1B
Encoding: 187 3611 156
Width: 620
Flags: W
HStem: 0 86<86 421> 348 65<178 214> 500 67<227 244>
VStem: 108 68<434 454> 264 72<463 479>
DStem: 215 349 334 454 160 86 255 86 610 774 708 774 474 133 566 109
AnchorPoint: "AboveBase" 544.692 652.5 basechar 0
Fore
160 86 m 1
 215 349 l 1
 209 348 197 348 178 348 c 0
 151 351 130 364 120 386 c 0
 112 400 108 416 108 434 c 0
 108 442 108 450 110 458 c 0
 115 477 120 494 133 513 c 0
 146 529 160 542 180 552 c 0
 197 563 219 567 244 567 c 0
 280 567 304 555 319 534 c 0
 330 519 336 500 336 479 c 0
 336 471 335 462 334 454 c 2
 255 86 l 1
 413 86 l 2
 435 86 450 88 458 96 c 0
 464 100 470 113 474 133 c 2
 610 774 l 1
 708 774 l 1
 566 109 l 2
 557 65 539 38 512 23 c 0
 484 9 445 0 394 0 c 2
 68 0 l 1
 87 86 l 1
 160 86 l 1
212 413 m 0
 225 413 235 418 244 426 c 0
 255 434 260 444 262 457 c 0
 263 461 264 464 264 468 c 0
 264 476 262 483 258 489 c 0
 252 496 242 500 229 500 c 0
 216 500 204 494 194 487 c 0
 186 478 180 468 177 457 c 0
 176 454 176 450 176 447 c 0
 176 439 178 432 181 426 c 0
 188 418 199 413 212 413 c 0
EndSplineSet
EndChar
StartChar: uni0E1C
Encoding: 188 3612 157
Width: 611
Flags: W
HStem: 0 21G<78 168 441 534> 348 65<270.345 285> 500 67<295 312>
VStem: 334 68<467 486>
DStem: 175 454 248 349 78 0 215 188 376 325 351 219 215 188 222 103 558 557 652 557 480 188 534 0
Fore
168 0 m 1
 78 0 l 1
 175 454 l 2
 181 484 197 513 222 534 c 0
 245 555 276 567 312 567 c 0
 336 567 357 563 371 552 c 0
 383 542 394 529 399 513 c 0
 400 505 402 494 402 486 c 0
 402 477 400 467 399 458 c 0
 393 431 380 406 360 386 c 0
 338 364 312 351 284 348 c 0
 265 348 254 348 248 349 c 1
 215 188 l 1
 376 325 l 1
 480 188 l 1
 558 557 l 1
 652 557 l 1
 534 0 l 1
 441 0 l 1
 444 16 445 29 445 42 c 0
 445 67 439 87 429 103 c 2
 351 219 l 1
 222 103 l 2
 196 80 178 46 168 0 c 1
297 500 m 0
 284 500 273 494 264 487 c 0
 254 478 249 468 246 457 c 0
 245 452 245 450 245 445 c 0
 245 438 246 431 251 426 c 0
 257 418 267 413 280 413 c 0
 293 413 303 418 313 426 c 0
 323 434 329 444 332 457 c 0
 334 460 334 463 334 467 c 0
 334 474 331 483 328 489 c 0
 320 496 310 500 297 500 c 0
EndSplineSet
EndChar
StartChar: uni0E1D
Encoding: 189 3613 158
Width: 611
Flags: W
HStem: 0 21G<78 168 441 534> 348 65<270.345 285> 500 67<295 312>
VStem: 333 69<466 486>
DStem: 175 454 248 349 78 0 215 188 376 325 351 219 215 188 222 103 605 774 699 774 480 188 534 0
AnchorPoint: "AboveBase" 535.992 652.5 basechar 0
Fore
168 0 m 1
 78 0 l 1
 175 454 l 2
 181 484 197 513 222 534 c 0
 245 555 276 567 312 567 c 0
 336 567 357 563 371 552 c 0
 383 542 394 529 399 513 c 0
 401 504 402 495 402 486 c 0
 402 477 401 468 399 458 c 0
 393 431 380 406 360 386 c 0
 338 364 312 351 284 348 c 0
 265 348 254 348 248 349 c 1
 215 188 l 1
 376 325 l 1
 480 188 l 1
 605 774 l 1
 699 774 l 1
 534 0 l 1
 441 0 l 1
 444 15 446 29 446 42 c 0
 446 67 440 87 429 103 c 2
 351 219 l 1
 222 103 l 2
 196 80 178 46 168 0 c 1
297 500 m 0
 284 500 273 494 264 487 c 0
 254 478 249 468 246 457 c 0
 246 453 245 449 245 445 c 0
 245 438 247 431 251 426 c 0
 257 418 267 413 280 413 c 0
 293 413 303 418 313 426 c 0
 323 434 329 444 332 457 c 0
 333 460 333 463 333 466 c 0
 333 475 331 482 328 489 c 0
 320 496 310 500 297 500 c 0
EndSplineSet
EndChar
StartChar: uni0E1E
Encoding: 190 3614 159
Width: 696
Flags: W
HStem: 0 21G<136 229 522 618> 348 65<175 209> 500 67<223 239>
VStem: 104 69<432 445> 261 71<466 481>
DStem: 210 349 329 454 136 0 286 255 452 355 493 544 525 75 576 255 493 544 452 355 286 255 258 75 641 557 737 557 576 255 618 0
Fore
286 255 m 1
 493 544 l 1
 576 255 l 1
 641 557 l 1
 737 557 l 1
 618 0 l 1
 522 0 l 1
 523 9 525 20 526 36 c 0
 526 42 528 48 528 54 c 0
 528 61 526 68 525 75 c 2
 452 355 l 1
 258 75 l 2
 251 64 245 51 239 36 c 0
 235 20 232 9 229 0 c 1
 136 0 l 1
 210 349 l 1
 204 348 193 348 175 348 c 0
 148 351 128 364 117 386 c 0
 109 399 104 415 104 432 c 0
 104 441 106 450 107 458 c 0
 112 477 117 494 130 513 c 0
 142 529 157 542 177 552 c 0
 194 563 216 567 239 567 c 0
 276 567 302 555 316 534 c 0
 328 519 332 502 332 481 c 0
 332 473 331 463 329 454 c 2
 286 255 l 1
207 413 m 0
 222 413 231 418 241 426 c 0
 252 434 257 444 260 457 c 0
 261 461 261 464 261 468 c 0
 261 476 260 483 255 489 c 0
 248 496 239 500 225 500 c 0
 212 500 202 494 191 487 c 0
 181 478 177 468 174 457 c 0
 173 452 173 450 173 445 c 0
 173 438 174 431 178 426 c 0
 186 418 194 413 207 413 c 0
EndSplineSet
EndChar
StartChar: uni0E1F
Encoding: 191 3615 160
Width: 696
Flags: W
HStem: 0 21G<136 229 522 618> 348 65<175 209> 500 67<223 239>
VStem: 104 69<432 447> 261 71<466 481>
DStem: 210 349 329 454 136 0 286 255 452 355 493 544 525 75 576 255 493 544 452 355 286 255 258 75 687 774 783 774 576 255 618 0
AnchorPoint: "AboveBase" 620.093 652.5 basechar 0
Fore
286 255 m 1
 493 544 l 1
 576 255 l 1
 687 774 l 1
 783 774 l 1
 618 0 l 1
 522 0 l 1
 523 9 525 20 526 36 c 0
 527 42 527 48 527 54 c 0
 527 61 527 69 525 75 c 2
 452 355 l 1
 258 75 l 2
 251 64 245 51 239 36 c 0
 235 20 232 9 229 0 c 1
 136 0 l 1
 210 349 l 1
 204 348 193 348 175 348 c 0
 148 351 128 364 117 386 c 0
 109 399 104 415 104 432 c 0
 104 441 105 449 107 458 c 0
 112 477 117 494 130 513 c 0
 142 529 157 542 177 552 c 0
 194 563 216 567 239 567 c 0
 276 567 302 555 316 534 c 0
 327 520 332 501 332 481 c 0
 332 473 331 463 329 454 c 2
 286 255 l 1
207 413 m 0
 222 413 231 418 241 426 c 0
 252 434 257 444 260 457 c 0
 261 461 261 464 261 468 c 0
 261 476 259 483 255 489 c 0
 248 496 239 500 225 500 c 0
 212 500 202 494 191 487 c 0
 181 478 177 468 174 457 c 0
 173 453 173 449 173 445 c 0
 173 438 174 431 178 426 c 0
 186 418 194 413 207 413 c 0
EndSplineSet
EndChar
StartChar: uni0E20
Encoding: 192 3616 161
Width: 655
Flags: W
HStem: 0 21G<481 577> 146 63<159 175> 499 71<449 476>
VStem: 39 65<71 91> 566 98<405 425>
DStem: 561 378 660 387 481 0 577 0
Fore
175 209 m 0
 180 209 183 209 184 209 c 0
 184 206 184 206 186 206 c 1
 200 270 l 2
 206 302 218 326 228 344 c 0
 241 364 257 380 276 392 c 1
 270 394 258 400 239 405 c 0
 223 409 203 415 180 416 c 1
 186 447 l 1
 193 452 202 461 213 471 c 0
 226 483 245 496 270 513 c 0
 293 528 325 542 358 554 c 0
 394 566 434 570 476 570 c 0
 518 570 554 564 586 550 c 0
 618 536 638 515 650 487 c 0
 660 468 664 448 664 425 c 0
 664 413 663 400 660 387 c 2
 577 0 l 1
 481 0 l 1
 561 378 l 2
 564 390 566 402 566 412 c 0
 566 435 558 455 544 468 c 0
 522 490 492 499 451 499 c 0
 431 499 405 494 378 487 c 0
 352 480 329 470 306 455 c 1
 315 454 331 451 349 444 c 0
 370 439 389 428 406 413 c 1
 396 367 l 1
 380 367 362 362 341 351 c 0
 322 339 306 315 299 277 c 2
 261 100 l 2
 254 67 238 41 216 22 c 0
 193 0 165 -10 128 -12 c 1
 96 -10 68 0 55 22 c 0
 44 36 39 52 39 71 c 0
 39 78 41 88 42 97 c 0
 49 128 64 154 88 175 c 0
 110 197 142 209 175 209 c 0
141 51 m 0
 157 51 171 55 181 65 c 0
 191 74 197 86 199 99 c 0
 200 104 200 109 200 113 c 0
 200 135 187 146 161 146 c 0
 146 146 135 141 126 133 c 0
 115 123 107 112 104 99 c 0
 104 96 104 93 104 91 c 0
 104 81 106 72 112 65 c 0
 116 55 126 51 141 51 c 0
EndSplineSet
EndChar
StartChar: uni0E21
Encoding: 193 3617 162
Width: 630
Flags: W
HStem: -12 73<164 170> 348 65<225 239> 500 67<255 271>
VStem: 65 73<82 94> 135 69<434 447> 291 71<468 489>
DStem: 203 184 297 178 181 80 278 86 576 557 671 557 489 151 552 0
Fore
576 557 m 1xf4
 671 557 l 1
 552 0 l 1
 461 0 l 1
 460 20 452 42 441 68 c 0
 428 96 407 117 383 139 c 0
 360 161 331 174 297 178 c 1
 278 86 l 2
 271 54 257 29 235 14 c 0
 215 -1 190 -12 168 -12 c 0
 167 -12 164 -12 162 -12 c 0
 128 -12 100 1 83 23 c 0
 72 39 65 59 65 83 c 0xf4
 65 91 67 100 68 110 c 0
 74 151 94 186 122 213 c 0
 151 241 183 255 219 257 c 1
 238 349 l 1
 233 349 l 0
 231 348 228 348 225 348 c 0
 190 348 167 358 152 380 c 0
 141 396 135 413 135 434 c 0xec
 135 441 136 448 138 457 c 0
 145 489 160 515 183 536 c 0
 207 557 236 567 271 567 c 0
 300 567 325 557 342 539 c 0
 355 525 362 508 362 489 c 0
 362 481 361 476 360 468 c 2
 313 255 l 1
 368 248 412 232 439 209 c 0
 465 186 481 165 489 151 c 1
 576 557 l 1xf4
239 413 m 0
 252 413 262 418 271 426 c 0
 283 434 287 444 290 457 c 0
 291 461 291 464 291 468 c 0
 291 476 290 483 286 489 c 0
 280 496 270 500 257 500 c 0
 244 500 232 494 222 487 c 0
 213 478 209 468 206 457 c 0
 204 452 204 448 204 445 c 0xec
 204 438 206 431 209 426 c 0
 216 418 226 413 239 413 c 0
203 184 m 1
 188 181 175 175 164 164 c 0
 154 152 145 136 141 117 c 0
 139 109 138 100 138 94 c 0xf4
 138 72 146 62 164 61 c 0
 173 61 178 67 181 80 c 2
 203 184 l 1
EndSplineSet
EndChar
StartChar: uni0E22
Encoding: 194 3618 163
Width: 584
Flags: W
HStem: 0 86<193 399> 357 66<293 311> 502 66<324 338>
VStem: 149 80<366 375> 360 65<471 487>
DStem: 528 557 625 557 438 133 529 106
Fore
213 267 m 1
 188 276 173 293 161 319 c 0
 154 335 149 354 149 373 c 0
 149 384 151 394 154 406 c 0
 158 429 167 451 178 468 c 0
 197 502 220 526 249 544 c 0
 276 560 307 568 338 568 c 0
 370 568 394 558 407 539 c 0
 419 523 425 506 425 487 c 0
 425 480 423 473 422 464 c 0
 416 434 400 409 377 389 c 0
 355 367 326 357 293 357 c 0
 277 357 262 362 249 368 c 1
 235 373 229 377 229 378 c 1
 229 378 229 378 231 378 c 1
 231 376 229 373 229 370 c 0
 229 351 241 336 262 323 c 0
 290 307 318 302 347 300 c 1
 332 229 l 1
 291 229 262 222 242 204 c 0
 222 190 209 167 203 136 c 2
 193 86 l 1
 377 86 l 2
 399 86 413 88 422 96 c 0
 428 100 434 113 438 133 c 2
 528 557 l 1
 625 557 l 1
 529 106 l 2
 519 62 506 33 487 20 c 0
 468 7 434 0 387 0 c 2
 78 0 l 1
 107 136 l 2
 115 168 126 194 142 215 c 0
 158 235 171 248 184 255 c 0
 197 262 209 265 213 267 c 1
309 423 m 0
 322 423 332 426 342 434 c 0
 349 442 355 451 358 463 c 0
 360 465 360 468 360 471 c 0
 360 478 357 484 354 490 c 0
 348 499 339 502 326 502 c 0
 313 502 303 499 294 490 c 0
 284 481 278 471 277 463 c 0
 276 460 276 457 276 454 c 0
 276 447 278 441 283 436 c 0
 289 428 296 423 309 423 c 0
EndSplineSet
EndChar
StartChar: uni0E23
Encoding: 195 3619 164
Width: 508
Flags: W
HStem: -7 68<315 331> 146 69<348 361> 464 72<515 535> 503 71<317 341>
VStem: 225 69<80 93> 399 98<310 329>
Fore
490 276 m 2xdc
 455 106 l 2
 448 74 431 48 406 26 c 0
 378 4 348 -7 315 -7 c 0
 280 -7 255 4 242 26 c 0
 231 42 225 59 225 80 c 0
 225 87 226 94 228 103 c 0
 235 133 249 160 274 180 c 0
 299 202 326 213 361 215 c 0
 370 215 376 215 381 213 c 1
 394 276 l 2
 397 289 399 300 399 310 c 0
 399 319 l 0
 397 331 390 344 378 355 c 0
 370 364 354 370 328 377 c 0
 300 381 267 387 222 392 c 0
 181 394 139 396 102 396 c 1
 112 447 l 1
 139 481 170 512 210 536 c 0xec
 246 560 290 574 341 574 c 0xdc
 376 574 412 567 450 555 c 0
 489 542 515 536 529 536 c 0
 548 536 570 541 594 552 c 1
 602 481 l 1
 570 470 542 464 515 464 c 0xec
 490 464 458 470 418 483 c 0
 376 496 344 503 318 503 c 0
 291 503 270 499 254 487 c 0
 239 476 228 467 222 458 c 1
 347 458 431 439 473 399 c 0
 489 383 497 360 497 329 c 0
 497 313 494 296 490 276 c 2xdc
331 61 m 0
 344 61 354 64 365 72 c 0
 374 80 380 91 383 103 c 0
 384 106 384 110 384 113 c 0
 384 122 381 129 380 135 c 0
 373 142 362 146 348 146 c 0
 334 146 323 141 315 133 c 0
 303 125 299 115 296 103 c 0
 294 99 294 96 294 93 c 0
 294 86 297 78 302 74 c 0
 307 65 318 61 331 61 c 0
EndSplineSet
EndChar
StartChar: uni0E24
Encoding: 196 3620 165
Width: 603
Flags: W
HStem: -10 62<200 215> 148 62<233 245.018> 499 71<397 425>
VStem: 110 65<74 91> 273 65<112 123> 515 98<410 429>
DStem: 510 378 609 387 368 -290 464 -290
Fore
233 210 m 1
 246 210 l 2
 281 210 306 199 320 177 c 0
 332 160 338 142 338 123 c 0
 338 116 336 107 335 100 c 0
 328 71 313 45 287 23 c 0
 264 1 235 -10 200 -10 c 0
 167 -10 142 1 128 23 c 0
 116 39 110 55 110 74 c 0
 110 83 112 91 113 100 c 2
 149 270 l 2
 155 302 165 326 175 344 c 0
 188 362 204 378 226 392 c 1
 220 394 209 400 190 405 c 0
 174 409 154 415 130 416 c 1
 136 447 l 1
 142 452 151 461 162 471 c 0
 175 483 194 496 219 513 c 0
 242 528 274 542 309 554 c 0
 344 566 383 570 425 570 c 0
 470 570 506 564 535 551 c 0
 566 536 587 516 600 489 c 0
 609 471 613 452 613 429 c 0
 613 416 612 403 609 387 c 2
 464 -290 l 1
 368 -290 l 1
 510 378 l 2
 513 390 515 402 515 412 c 0
 515 435 508 455 493 468 c 0
 471 490 441 499 400 499 c 0
 354 499 304 483 254 455 c 1
 260 454 264 452 274 451 c 0
 286 450 297 444 312 439 c 0
 328 432 342 425 355 413 c 1
 345 367 l 1
 328 367 309 362 289 351 c 0
 270 339 255 315 248 277 c 2
 233 210 l 1
213 52 m 0
 228 52 242 58 252 67 c 0
 262 75 268 87 271 100 c 0
 273 104 273 109 273 113 c 0
 273 135 260 148 233 148 c 0
 219 148 206 142 197 135 c 0
 187 125 180 113 177 100 c 0
 175 97 175 94 175 91 c 0
 175 83 178 74 183 67 c 0
 190 58 199 52 213 52 c 0
EndSplineSet
EndChar
StartChar: uni0E25
Encoding: 197 3621 166
Width: 580
Flags: W
HStem: -12 66<196 210> 141 68<227 244> 326 73<283 302> 496 72<365 389>
VStem: 100 75<78 91> 262 70<112 128> 490 99<407 425>
DStem: 487 381 584 383 458 248 503 0
Fore
196 -12 m 0
 162 -12 139 -1 122 17 c 0
 107 35 100 55 100 78 c 0
 100 81 100 86 100 88 c 0
 104 126 116 175 128 232 c 1
 144 280 165 319 196 351 c 0
 225 381 260 399 300 399 c 0
 303 399 304 399 307 399 c 0
 348 399 377 387 399 367 c 0
 423 345 436 323 445 294 c 0
 452 267 458 252 458 248 c 1
 487 381 l 2
 489 392 490 402 490 410 c 0
 490 434 483 452 468 467 c 0
 448 487 418 496 373 496 c 0
 335 496 303 489 271 470 c 0
 238 452 213 431 191 409 c 1
 148 457 l 1
 171 487 206 512 248 534 c 0
 289 555 335 568 387 568 c 0
 455 568 509 552 547 519 c 0
 574 494 589 463 589 423 c 0
 589 410 587 397 584 383 c 2
 503 0 l 1
 406 0 l 1
 406 6 406 13 406 19 c 0
 406 49 403 84 400 126 c 0
 394 177 384 225 367 265 c 0
 348 304 325 326 294 326 c 0
 293 326 293 326 291 326 c 0
 249 325 219 281 203 203 c 1
 207 204 212 204 219 206 c 0
 226 209 235 209 244 209 c 0
 276 206 303 197 316 178 c 0
 326 165 332 148 332 128 c 0
 332 120 331 110 329 102 c 0
 325 68 307 42 283 22 c 0
 261 0 231 -10 196 -12 c 0
210 54 m 0
 225 54 236 59 245 67 c 0
 254 75 260 86 261 99 c 0
 262 103 262 109 262 113 c 0
 262 119 261 125 258 129 c 0
 252 138 244 141 229 141 c 0
 215 141 203 136 194 128 c 0
 184 119 178 110 175 99 c 0
 175 96 175 93 175 91 c 0
 175 83 177 75 181 68 c 0
 188 59 197 54 210 54 c 0
EndSplineSet
EndChar
StartChar: uni0E26
Encoding: 198 3622 167
Width: 655
Flags: W
HStem: 146 63<159 175> 499 71<449 476>
VStem: 39 65<71 91> 566 98<405 425>
DStem: 561 378 660 387 419 -290 515 -290
Fore
175 209 m 0
 180 209 183 209 184 209 c 0
 184 206 184 206 186 206 c 1
 200 270 l 2
 206 302 218 326 228 344 c 0
 241 364 257 380 276 392 c 1
 270 394 258 400 239 405 c 0
 223 409 203 415 180 416 c 1
 186 447 l 1
 193 452 202 461 213 471 c 0
 226 483 245 496 270 513 c 0
 293 528 325 542 358 554 c 0
 394 566 434 570 476 570 c 0
 518 570 554 564 586 550 c 0
 618 536 638 515 650 487 c 0
 660 468 664 448 664 425 c 0
 664 413 663 400 660 387 c 2
 515 -290 l 1
 419 -290 l 1
 561 378 l 2
 564 390 566 402 566 412 c 0
 566 435 558 455 544 468 c 0
 522 490 492 499 451 499 c 0
 431 499 405 494 378 487 c 0
 352 480 329 470 306 455 c 1
 315 454 331 451 349 444 c 0
 370 439 389 428 406 413 c 1
 396 367 l 1
 380 367 362 362 341 351 c 0
 322 339 306 315 299 277 c 2
 261 100 l 2
 254 67 238 41 216 22 c 0
 193 0 165 -10 128 -12 c 1
 96 -10 68 0 55 22 c 0
 44 36 39 52 39 71 c 0
 39 78 41 88 42 97 c 0
 49 128 64 154 88 175 c 0
 110 197 142 209 175 209 c 0
141 51 m 0
 157 51 171 55 181 65 c 0
 191 74 197 86 199 99 c 0
 200 104 200 109 200 113 c 0
 200 135 187 146 161 146 c 0
 146 146 135 141 126 133 c 0
 115 123 107 112 104 99 c 0
 104 96 104 93 104 91 c 0
 104 81 106 72 112 65 c 0
 116 55 126 51 141 51 c 0
EndSplineSet
EndChar
StartChar: uni0E27
Encoding: 199 3623 168
Width: 523
Flags: W
HStem: -12 66<332 347> 141 68<363 380> 492 78<317 345>
VStem: 241 69<71 88> 435 96<410 426>
DStem: 431 378 526 380 394 206 467 102
Fore
380 209 m 0
 386 209 390 209 394 206 c 1
 431 378 l 2
 434 390 435 402 435 412 c 0
 435 435 428 452 413 464 c 0
 393 481 364 492 326 492 c 0
 322 492 l 0
 258 492 202 460 145 396 c 1
 90 447 l 1
 119 481 155 512 199 536 c 0
 241 558 289 570 345 570 c 0
 415 570 467 554 499 519 c 0
 521 494 531 464 531 426 c 0
 531 412 529 397 526 380 c 2
 467 102 l 2
 460 71 445 42 419 22 c 0
 393 0 364 -12 332 -12 c 0
 297 -12 273 0 257 22 c 0
 246 35 241 52 241 71 c 0
 241 81 242 93 245 103 c 0
 252 133 270 157 293 178 c 0
 318 199 347 209 380 209 c 0
347 54 m 0
 361 54 371 59 381 67 c 0
 390 75 396 86 397 99 c 0
 399 103 399 109 399 113 c 0
 399 119 397 125 394 129 c 0
 387 138 380 141 365 141 c 0
 349 141 339 136 331 128 c 0
 319 119 315 110 312 99 c 0
 312 96 310 91 310 88 c 0
 310 81 313 74 318 68 c 0
 325 59 332 54 347 54 c 0
EndSplineSet
EndChar
StartChar: uni0E28
Encoding: 200 3624 169
Width: 598
Flags: W
HStem: 0 21G<129 226 426 521> 210 67<318 332> 364 68<347 364> 499 77<374 400>
VStem: 110 84<325 342> 384 68<330 345>
DStem: 149 97 273 219 129 0 226 0 502 355 600 378 426 0 521 0
Fore
567 518 m 0
 568 518 576 526 589 542 c 0
 600 558 613 577 622 597 c 1
 696 560 l 1
 686 538 671 515 651 493 c 0
 632 470 618 454 603 444 c 1
 605 439 606 432 606 423 c 0
 606 422 606 419 606 418 c 0
 606 407 603 396 600 378 c 2
 521 0 l 1
 426 0 l 1
 502 355 l 1
 508 381 l 1
 487 370 470 364 452 358 c 1
 452 357 452 352 452 345 c 0
 452 339 451 331 450 320 c 0
 442 290 426 264 403 242 c 0
 383 222 351 212 318 210 c 0
 312 210 302 212 291 213 c 0
 278 216 273 218 273 219 c 2
 226 0 l 1
 129 0 l 1
 149 97 l 2
 152 112 155 126 155 139 c 0
 155 148 154 155 152 164 c 0
 149 184 142 206 133 232 c 0
 123 260 117 281 113 302 c 0
 112 309 110 316 110 325 c 0
 110 339 113 354 117 373 c 0
 128 416 149 454 178 483 c 0
 206 513 241 536 281 551 c 0
 320 566 360 574 400 576 c 0
 423 576 447 574 468 568 c 0
 490 564 509 555 528 545 c 0
 547 536 558 526 567 518 c 0
425 413 m 1
 436 413 447 418 464 428 c 0
 476 436 487 444 496 450 c 1
 486 465 470 478 448 487 c 0
 425 494 403 499 374 499 c 0
 336 496 300 484 265 461 c 0
 229 436 206 406 197 368 c 0
 196 360 194 351 194 342 c 0
 194 331 196 319 199 306 c 0
 200 287 202 277 203 277 c 1
 203 277 203 277 203 278 c 0
 207 303 223 336 248 374 c 0
 271 412 309 431 364 432 c 0
 383 432 397 431 406 426 c 0
 416 420 420 416 425 413 c 1
332 277 m 0
 347 277 357 281 367 290 c 0
 376 299 380 307 383 320 c 0
 384 325 384 329 384 332 c 0
 384 339 383 347 380 352 c 0
 374 361 364 364 349 364 c 0
 336 364 326 358 315 351 c 0
 304 342 300 332 297 320 c 0
 296 318 296 313 296 310 c 0
 296 303 299 296 303 290 c 0
 309 281 319 277 332 277 c 0
EndSplineSet
EndChar
StartChar: uni0E29
Encoding: 201 3625 170
Width: 633
Flags: W
HStem: 0 86<99 433> 190 61<477 502> 344 50<427 441> 348 65<193 227> 500 67<240 257>
VStem: 120 68<435 447> 277 72<466 481> 457 53<313 329>
DStem: 228 349 347 454 173 86 268 86 580 557 674 557 515 252 616 287
Fore
766 403 m 1xef
 760 373 748 344 734 320 c 0
 719 297 703 278 686 264 c 0
 670 249 652 238 637 229 c 0
 619 222 605 215 600 212 c 1
 579 109 l 2
 570 65 552 38 525 23 c 0
 500 9 461 0 407 0 c 2
 81 0 l 1
 100 86 l 1
 173 86 l 1
 228 349 l 1
 222 348 210 348 193 348 c 0xdf
 165 351 145 364 135 386 c 0
 126 400 120 416 120 435 c 0
 120 442 122 450 123 458 c 0
 130 489 145 515 170 536 c 0
 193 557 222 567 257 567 c 0
 294 567 320 557 334 536 c 0
 344 521 349 503 349 481 c 0
 349 473 348 464 347 454 c 2
 268 86 l 1
 431 86 l 2
 451 86 465 88 473 96 c 0
 478 100 486 113 490 133 c 2
 502 190 l 1
 441 190 397 199 373 213 c 1
 354 228 342 239 336 251 c 0
 334 258 331 268 331 280 c 0
 331 289 332 297 334 307 c 0
 338 329 349 349 368 367 c 0
 387 386 410 394 441 394 c 0
 465 394 486 387 497 373 c 0
 505 360 510 345 510 329 c 0
 510 323 510 319 509 313 c 0
 505 287 493 265 477 251 c 1
 497 251 509 251 515 252 c 1
 580 557 l 1
 674 557 l 1
 616 287 l 1
 647 302 670 339 683 403 c 1
 766 403 l 1xef
416 280 m 0
 428 280 436 283 444 290 c 0
 451 297 455 304 457 313 c 0
 457 315 457 316 457 319 c 0
 457 325 455 331 451 336 c 0
 448 341 439 344 429 344 c 0xef
 420 344 412 341 406 335 c 0
 397 328 393 320 392 313 c 0
 392 312 392 309 392 307 c 0
 392 302 393 297 397 290 c 0
 399 283 405 280 416 280 c 0
225 413 m 0xdf
 239 413 249 418 258 426 c 0
 268 434 273 444 276 457 c 0
 277 461 277 465 277 468 c 0
 277 476 276 483 273 489 c 0
 267 496 257 500 242 500 c 0
 229 500 218 494 207 487 c 0
 199 478 193 468 190 457 c 0
 188 454 188 451 188 447 c 0
 188 439 191 432 194 426 c 0
 202 418 212 413 225 413 c 0xdf
EndSplineSet
EndChar
StartChar: uni0E2A
Encoding: 202 3626 171
Width: 580
Flags: W
HStem: -12 66<196 210> 141 68<227 244> 326 73<283 302> 496 72<365 389>
VStem: 100 75<78 91> 262 70<112 128>
Fore
210 54 m 0
 225 54 236 59 245 67 c 0
 254 75 260 86 261 99 c 0
 262 103 262 109 262 113 c 0
 262 119 261 125 258 129 c 0
 252 138 244 141 229 141 c 0
 215 141 203 136 194 128 c 0
 184 119 178 110 175 99 c 0
 175 96 175 93 175 91 c 0
 175 83 177 75 181 68 c 0
 188 59 197 54 210 54 c 0
465 461 m 1
 447 484 418 496 373 496 c 0
 335 496 303 489 271 470 c 0
 238 452 213 431 191 409 c 1
 148 457 l 1
 171 487 206 512 248 534 c 0
 289 555 335 568 387 568 c 0
 438 568 483 558 519 538 c 0
 522 538 535 554 558 584 c 0
 580 616 593 632 597 632 c 0
 600 631 612 625 629 613 c 0
 645 602 657 593 661 587 c 1
 654 579 637 560 613 534 c 0
 589 506 576 492 574 487 c 1
 584 476 590 461 590 444 c 0
 592 439 592 435 592 431 c 0
 592 418 589 400 584 383 c 2
 503 0 l 1
 406 0 l 1
 406 6 406 13 406 19 c 0
 406 49 403 84 400 126 c 0
 394 177 384 225 367 265 c 0
 348 304 325 326 294 326 c 0
 293 326 293 326 291 326 c 0
 249 325 219 281 203 203 c 1
 207 204 212 204 219 206 c 0
 226 209 235 209 244 209 c 0
 276 206 303 197 316 178 c 0
 326 165 332 148 332 128 c 0
 332 120 331 110 329 102 c 0
 325 68 307 42 283 22 c 0
 261 0 231 -10 196 -12 c 0
 162 -12 139 -1 122 17 c 0
 107 35 100 55 100 78 c 0
 100 81 100 86 100 88 c 0
 104 126 116 175 128 232 c 1
 144 280 165 319 196 351 c 0
 225 381 260 399 300 399 c 0
 309 399 l 0
 349 399 377 389 397 376 c 0
 399 376 410 390 431 418 c 0
 451 445 464 461 465 461 c 1
489 405 m 1
 484 394 474 381 461 365 c 0
 447 349 439 339 439 338 c 0
 447 325 451 310 454 291 c 0
 457 274 458 260 458 248 c 1
 464 274 470 300 474 326 c 0
 480 352 484 378 489 405 c 1
EndSplineSet
EndChar
StartChar: uni0E2B
Encoding: 203 3627 172
Width: 632
Flags: W
HStem: 0 21G<133 226 457 554> 348 65<173 207> 500 67<218 235 552 573>
VStem: 99 69<435 447> 255 73<468 483> 431 69<432 448> 518 98<298 316> 589 68<467 487>
DStem: 207 349 325 454 133 0 281 255 513 264 610 264 457 0 554 0
Fore
281 255 m 1xfe
 312 290 342 318 374 339 c 0
 406 361 429 374 445 381 c 1
 435 396 431 413 431 432 c 0
 431 441 432 450 434 458 c 0
 441 492 455 518 480 539 c 0
 505 558 535 568 573 568 c 0
 605 568 631 558 644 538 c 0
 652 523 657 506 657 487 c 0xfd
 657 478 657 468 654 458 c 0
 645 418 625 389 593 368 c 1
 599 367 605 357 612 342 c 0
 615 335 616 326 616 316 c 0
 616 302 615 284 610 264 c 2
 554 0 l 1
 457 0 l 1
 513 264 l 2
 516 278 518 291 518 300 c 0
 518 309 516 315 515 318 c 0
 510 326 506 331 500 331 c 1
 432 299 373 252 322 191 c 0
 271 130 242 74 231 22 c 2
 226 0 l 1
 133 0 l 1
 207 349 l 1
 202 348 190 348 173 348 c 0
 145 351 125 364 113 386 c 0
 104 400 99 416 99 435 c 0
 99 442 100 450 102 458 c 0
 109 489 123 515 149 536 c 0
 171 557 200 567 235 567 c 0
 273 567 299 557 315 536 c 0
 323 521 328 503 328 483 c 0
 328 473 326 464 325 454 c 2
 281 255 l 1xfe
535 415 m 0
 551 415 560 419 570 428 c 0
 580 436 584 445 587 458 c 0
 589 463 589 467 589 471 c 0
 589 478 587 484 583 490 c 0
 577 499 570 502 554 502 c 0
 541 502 531 496 521 489 c 0
 509 480 505 470 502 458 c 0
 500 454 500 451 500 448 c 0
 500 441 503 434 508 428 c 0
 513 419 522 415 535 415 c 0
203 413 m 0
 218 413 228 418 236 426 c 0
 246 434 251 444 254 457 c 0
 255 461 255 465 255 468 c 0
 255 476 254 483 251 489 c 0
 245 496 235 500 220 500 c 0
 207 500 196 494 187 487 c 0
 177 478 173 468 170 457 c 0
 168 452 168 450 168 445 c 0
 168 438 170 431 174 426 c 0
 180 418 190 413 203 413 c 0
EndSplineSet
EndChar
StartChar: uni0E2C
Encoding: 204 3628 173
Width: 698
Flags: W
HStem: 0 21G<141 232 526 621> 348 65<178 214> 444 65<621 631> 500 67<227 244> 583 65<643 660>
VStem: 108 68<434 454> 264 72<463 479> 533 70<525 540> 677 67<557 567>
DStem: 215 349 334 454 141 0 287 242 621 444 719 465 577 242 621 0
AnchorPoint: "AboveBase" 622.992 652.5 basechar 0
Fore
719 465 m 1xef80
 621 0 l 1
 526 0 l 1
 528 9 529 20 529 36 c 0
 530 45 531 53 531 60 c 0
 531 65 530 70 529 75 c 2
 450 325 l 1
 264 75 l 2
 257 67 251 54 245 36 c 0
 239 20 233 9 232 0 c 1
 141 0 l 1
 215 349 l 1
 209 348 197 348 178 348 c 0
 151 351 130 364 120 386 c 0
 112 400 108 416 108 434 c 0
 108 442 108 450 110 458 c 0
 115 477 120 494 133 513 c 0
 146 529 160 542 180 552 c 0
 197 563 219 567 244 567 c 0xdf80
 280 567 304 555 319 534 c 0
 330 519 336 500 336 479 c 0
 336 471 335 462 334 454 c 2
 287 242 l 1
 484 490 l 1
 577 242 l 1
 621 444 l 1
 589 444 567 454 552 474 c 0
 539 487 533 505 533 525 c 0
 533 532 534 538 535 545 c 0
 541 576 557 600 579 619 c 0
 602 639 629 648 660 648 c 0
 700 648 725 638 734 615 c 0
 742 592 744 574 744 558 c 1
 761 570 777 593 792 628 c 1
 857 594 l 1
 848 571 835 551 816 532 c 0
 798 515 779 499 760 487 c 0
 744 476 728 467 719 465 c 1xef80
631 509 m 0xef80
 642 509 651 513 660 521 c 1
 668 528 674 536 676 547 c 0
 677 550 677 554 677 557 c 0
 677 563 676 569 673 574 c 0
 667 580 657 583 645 583 c 0
 635 583 626 580 618 574 c 0
 610 566 606 557 603 547 c 0
 603 544 603 542 603 540 c 0
 603 533 604 527 606 521 c 0
 613 513 622 509 631 509 c 0xef80
212 413 m 0
 225 413 235 418 244 426 c 0
 255 434 260 444 262 457 c 0
 263 461 264 464 264 468 c 0
 264 476 262 483 258 489 c 0
 252 496 242 500 229 500 c 0xdf80
 216 500 204 494 194 487 c 0
 186 478 180 468 177 457 c 0
 176 454 176 450 176 447 c 0
 176 439 178 432 181 426 c 0
 188 418 199 413 212 413 c 0
EndSplineSet
EndChar
StartChar: uni0E2D
Encoding: 205 3629 174
Width: 587
Flags: W
HStem: 0 86<220 399> 173 66<229 247> 325 67<262 276> 493 77<363 394>
VStem: 94 106<58 107> 299 69<296 312> 497 99<409 428>
DStem: 493 378 590 380 442 133 532 110
Fore
212 174 m 1
 203 133 l 2
 200 122 200 113 200 107 c 0
 200 102 200 97 202 96 c 0
 206 88 219 86 241 86 c 2
 381 86 l 2
 402 86 418 88 425 96 c 0
 431 100 438 113 442 133 c 2
 493 378 l 2
 496 390 497 400 497 409 c 0
 497 464 454 492 371 493 c 0
 341 493 309 487 280 474 c 0
 248 458 220 441 197 418 c 1
 146 467 l 1
 171 494 207 519 249 541 c 0
 291 560 338 570 392 570 c 0
 470 570 523 554 557 521 c 0
 583 497 596 465 596 428 c 0
 596 413 593 397 590 380 c 2
 532 110 l 2
 523 65 510 38 489 23 c 0
 470 9 438 0 390 0 c 2
 199 0 l 2
 165 0 141 3 126 9 c 0
 109 13 100 23 97 38 c 0
 96 44 94 49 94 58 c 0
 94 71 97 87 102 106 c 2
 136 274 l 2
 144 306 160 335 186 357 c 0
 212 380 242 392 276 392 c 0
 300 392 322 387 335 376 c 0
 351 365 361 352 364 336 c 0
 367 328 368 320 368 312 c 0
 368 303 367 293 364 283 c 0
 358 254 342 228 319 204 c 0
 294 184 264 173 229 173 c 0
 225 173 222 173 219 174 c 0
 216 174 213 174 212 174 c 1
245 239 m 0
 261 239 271 244 281 252 c 0
 290 261 296 270 297 281 c 0
 299 286 299 291 299 296 c 0
 299 302 297 307 294 313 c 0
 287 320 280 325 264 325 c 0
 251 325 241 319 231 312 c 0
 219 303 215 293 212 281 c 0
 212 278 210 274 210 271 c 0
 210 264 213 258 218 252 c 0
 225 244 232 239 245 239 c 0
EndSplineSet
EndChar
StartChar: uni0E2E
Encoding: 206 3630 175
Width: 587
Flags: W
HStem: 0 86<208 399> 139 67<213 233> 281 68<247 267> 373 59<345 378> 512 67<353 390>
VStem: 158 78<450 464> 280 68<244 267>
DStem: 499 402 605 450 442 133 532 110
Fore
693 528 m 1
 666 499 638 471 605 450 c 1
 532 110 l 2
 523 65 510 38 489 23 c 0
 470 9 438 0 390 0 c 2
 199 0 l 2
 165 0 141 3 126 9 c 0
 109 13 100 22 96 36 c 0
 94 41 94 46 94 54 c 0
 94 67 96 84 100 103 c 2
 128 229 l 2
 135 264 151 291 175 315 c 0
 200 338 229 349 267 349 c 0
 297 349 320 339 334 319 c 0
 344 304 348 286 348 267 c 0
 348 260 348 254 347 246 c 0
 341 218 328 191 304 171 c 0
 283 149 254 139 222 138 c 0
 219 138 216 138 213 139 c 0
 207 139 204 139 204 141 c 1
 199 115 l 2
 197 107 196 100 196 96 c 0
 196 93 197 90 199 88 c 0
 204 87 218 86 241 86 c 2
 383 86 l 2
 405 86 419 88 425 96 c 0
 431 100 438 113 442 133 c 2
 499 402 l 1
 492 396 476 392 450 383 c 0
 423 376 386 373 332 373 c 0
 281 373 236 380 202 394 c 0
 173 406 158 425 158 450 c 0
 158 454 158 460 160 465 c 0
 165 489 178 508 203 526 c 0
 228 544 255 557 286 566 c 0
 315 574 347 579 376 579 c 0
 434 579 477 570 508 555 c 0
 539 541 557 528 567 518 c 1
 577 526 600 547 639 584 c 1
 693 528 l 1
233 206 m 0
 245 206 257 210 264 218 c 0
 273 226 277 235 280 244 c 0
 280 246 280 248 280 251 c 0
 280 258 278 264 276 270 c 0
 271 278 261 281 249 281 c 0
 238 281 228 278 220 273 c 0
 212 264 206 255 204 244 c 0
 203 241 203 238 203 235 c 0
 203 229 206 223 210 218 c 0
 216 210 222 206 233 206 c 0
345 432 m 0
 348 432 352 432 355 432 c 0
 392 432 425 438 448 445 c 0
 476 455 490 463 490 465 c 1
 487 474 476 481 455 493 c 0
 436 505 406 512 364 512 c 0
 338 512 310 508 281 500 c 0
 254 492 239 481 236 468 c 0
 236 464 l 0
 236 445 274 434 345 432 c 0
EndSplineSet
EndChar
StartChar: uni0E2F
Encoding: 207 3631 176
Width: 556
Flags: W
HStem: 236 84<289 328> 348 65<260 278> 500 68<288 306>
VStem: 328 68<466 478>
DStem: 450 313 597 557 420 180 516 174
Fore
145 429 m 1
 173 521 225 567 306 568 c 0
 325 568 344 564 358 554 c 0
 376 544 386 531 390 513 c 0
 394 500 396 489 396 476 c 0
 396 470 396 464 394 457 c 0
 387 426 373 400 347 378 c 0
 322 357 293 348 260 348 c 0
 254 348 249 348 245 349 c 0
 239 349 236 349 233 349 c 1
 236 331 268 320 328 320 c 1
 362 326 399 352 432 396 c 0
 467 441 490 494 505 557 c 1
 597 557 l 1
 516 174 l 2
 503 116 481 74 450 46 c 0
 416 17 361 -4 284 -23 c 1
 280 52 l 1
 320 65 348 77 367 86 c 0
 384 93 396 104 402 116 c 0
 409 129 415 151 420 180 c 2
 450 313 l 1
 438 293 415 276 384 261 c 0
 354 244 320 236 289 236 c 0
 280 236 267 238 252 239 c 0
 210 249 181 270 161 304 c 0
 146 328 139 354 139 381 c 0
 139 397 142 412 145 429 c 1
276 413 m 0
 289 413 299 418 307 426 c 0
 319 434 323 444 326 457 c 0
 328 461 328 464 328 468 c 0
 328 476 326 483 322 489 c 0
 316 496 306 500 293 500 c 0
 280 500 268 494 258 487 c 0
 249 478 244 468 241 457 c 0
 239 454 239 451 239 447 c 0
 239 439 242 432 245 426 c 0
 252 418 262 413 276 413 c 0
EndSplineSet
EndChar
StartChar: uni0E30
Encoding: 208 3632 177
Width: 439
Flags: W
HStem: 0 80<157 178> 161 67<169 186> 329 78<226 248> 490 67<242 257>
VStem: 54 69<96 112> 120 73<423 439> 204 70<122 145> 276 68<456 474>
Fore
186 228 m 0xfb
 219 228 244 218 258 199 c 0
 270 183 274 165 274 145 c 0
 274 138 274 130 273 123 c 0
 271 116 267 109 264 100 c 0
 260 90 258 84 255 78 c 1
 270 80 287 90 312 109 c 0
 334 126 352 164 365 222 c 1
 457 222 l 1
 441 152 412 99 370 59 c 0
 325 20 262 0 178 0 c 0
 139 0 107 12 83 33 c 0
 64 49 54 70 54 96 c 0
 54 104 55 113 57 122 c 0
 62 152 78 178 102 199 c 0
 123 218 151 228 186 228 c 0xfb
257 557 m 0
 290 557 315 547 328 528 c 0
 339 512 344 494 344 474 c 0
 344 467 344 460 342 451 c 0
 341 444 336 436 334 428 c 0
 329 418 328 412 326 406 c 1
 326 406 l 1
 329 406 338 409 351 415 c 0
 367 423 383 438 399 458 c 0
 415 480 426 509 435 550 c 1
 526 550 l 1
 516 503 502 464 480 432 c 0
 460 402 429 376 390 357 c 0
 352 339 306 329 248 329 c 0
 210 329 178 341 152 362 c 0
 132 378 120 399 120 423 c 0xf7
 120 432 122 441 125 450 c 0
 130 480 148 506 171 528 c 0
 193 547 222 557 257 557 c 0
157 80 m 0
 170 80 181 86 188 93 c 0
 197 102 202 110 204 122 c 0
 204 125 206 128 206 130 c 0
 206 138 204 144 200 149 c 0
 196 157 187 161 174 161 c 0
 161 161 149 157 142 149 c 0
 132 141 126 130 125 122 c 0
 123 117 123 115 123 112 c 0xfb
 123 104 126 99 130 93 c 0
 135 86 144 80 157 80 c 0
226 407 m 0
 238 407 249 413 258 420 c 0
 267 429 271 438 274 450 c 0
 276 454 276 457 276 460 c 0
 276 467 274 473 270 478 c 0
 265 487 257 490 244 490 c 0
 232 490 220 487 212 478 c 0
 202 470 197 461 194 450 c 0
 193 447 193 444 193 439 c 0xf7
 193 434 196 426 200 420 c 0
 206 413 215 407 226 407 c 0
EndSplineSet
EndChar
StartChar: uni0E31
Encoding: 209 3633 178
Width: 0
Flags: W
HStem: 660 75<-20 13> 831 67<-78 -65>
AnchorPoint: "AboveMark" 90.7158 965.7 basemark 0
AnchorPoint: "AboveBase" 92.293 652.5 mark 0
Fore
-65 898 m 0
 -33 898 -12 886 3 867 c 0
 16 845 19 821 13 790 c 0
 10 780 7 770 0 760 c 0
 -4 751 -9 744 -12 740 c 1
 -10 740 -7 740 -3 737 c 0
 3 735 7 735 13 735 c 0
 41 735 71 745 109 767 c 0
 145 786 183 824 218 880 c 1
 293 853 l 1
 273 812 246 779 215 751 c 0
 181 722 146 700 104 683 c 0
 64 668 23 660 -20 660 c 0
 -36 660 -48 660 -57 663 c 0
 -99 667 -135 682 -164 703 c 0
 -194 724 -204 753 -196 790 c 0
 -190 821 -174 847 -152 867 c 0
 -129 887 -100 899 -65 898 c 0
-96 753 m 0
 -84 753 -74 755 -64 764 c 0
 -55 771 -51 780 -48 792 c 0
 -45 803 -46 811 -52 819 c 0
 -59 828 -67 831 -78 831 c 0
 -90 831 -102 828 -112 819 c 0
 -119 811 -123 803 -126 792 c 0
 -129 780 -128 771 -123 764 c 0
 -116 755 -107 753 -96 753 c 0
EndSplineSet
EndChar
StartChar: uni0E32
Encoding: 210 3634 179
Width: 484
Flags: W
HStem: 0 21G<312 406> 499 75<310 336>
VStem: 402 95<431 457>
DStem: 399 406 492 405 312 0 406 0
Fore
100 423 m 1
 117 458 145 493 184 526 c 0
 222 557 273 574 336 574 c 0
 405 571 451 557 476 529 c 0
 490 512 497 487 497 457 c 0
 497 441 496 423 492 405 c 2
 406 0 l 1
 312 0 l 1
 399 406 l 2
 400 415 402 423 402 431 c 0
 402 476 371 499 310 499 c 0
 254 499 209 465 177 400 c 1
 100 423 l 1
EndSplineSet
EndChar
StartChar: uni0E33
Encoding: 211 3635 180
Width: 484
Flags: W
HStem: 0 21G<312 406> 499 75<310 336> 658 68<-32 -15> 812 68<-1 14>
VStem: -120 69<742 759> 38 66<780 796> 402 95<431 457>
DStem: 399 406 492 405 312 0 406 0
Fore
100 423 m 1
 117 458 145 493 184 526 c 0
 222 557 273 574 336 574 c 0
 405 571 451 557 476 529 c 0
 490 512 497 487 497 457 c 0
 497 441 496 423 492 405 c 2
 406 0 l 1
 312 0 l 1
 399 406 l 2
 400 415 402 423 402 431 c 0
 402 476 371 499 310 499 c 0
 254 499 209 465 177 400 c 1
 100 423 l 1
14 880 m 0
 49 880 75 870 88 848 c 0
 99 834 104 816 104 796 c 0
 104 789 103 779 102 770 c 0
 94 740 80 713 55 692 c 0
 30 670 3 658 -32 658 c 0
 -65 658 -90 670 -106 692 c 0
 -116 706 -120 724 -120 742 c 0
 -120 751 -120 760 -117 770 c 0
 -110 802 -97 828 -72 848 c 0
 -49 870 -19 880 14 880 c 0
-17 726 m 0
 -3 726 7 731 17 740 c 0
 28 747 33 758 36 770 c 0
 38 774 38 777 38 782 c 0
 38 789 36 796 32 802 c 0
 25 809 16 812 1 812 c 0
 -13 812 -22 809 -30 802 c 0
 -42 793 -46 782 -49 770 c 0
 -51 766 -51 761 -51 757 c 0
 -51 750 -49 744 -45 740 c 0
 -39 731 -32 726 -17 726 c 0
EndSplineSet
MultipleSubs: 0 1 'ccmp' uni0E4D uni0E32
EndChar
StartChar: uni0E34
Encoding: 212 3636 181
Width: 0
Flags: W
HStem: 705 68<-194 -164.231> 824 66<-97 -72>
AnchorPoint: "AboveMark" 84.916 965.7 basemark 0
AnchorPoint: "AboveBase" 77.793 652.5 mark 0
Fore
-72 890 m 4
 -33 887 0 877 23 857 c 4
 45 840 61 816 70 792 c 4
 77 767 83 741 81 713 c 4
 81 684 81 664 81 652 c 5
 65 657 44 666 10 676 c 4
 -23 683 -62 692 -104 697 c 4
 -135 703 -171 705 -212 705 c 4
 -242 705 -271 703 -296 702 c 4
 -320 700 -339 697 -349 696 c 5
 -336 732 -316 766 -290 795 c 4
 -261 822 -231 845 -191 864 c 4
 -154 882 -113 890 -72 890 c 4
-87 824 m 5
 -117 824 -145 819 -170 808 c 4
 -194 796 -212 784 -220 770 c 5
 -215 771 -207 771 -194 773 c 4
 -183 773 -170 773 -155 773 c 4
 -139 773 -122 771 -97 770 c 4
 -67 767 -39 761 -23 757 c 4
 -4 751 7 745 13 742 c 5
 -1 790 -35 818 -87 824 c 5
EndSplineSet
EndChar
StartChar: uni0E35
Encoding: 213 3637 182
Width: 0
Flags: W
HStem: 708 69<-223 -160>
DStem: 41 953 125 953 19 854 75 726
AnchorPoint: "AboveMark" 84.916 965.7 basemark 0
AnchorPoint: "AboveBase" 60.3936 652.5 mark 0
Fore
-88 893 m 0
 -57 893 -32 884 -16 877 c 0
 1 867 13 858 19 854 c 1
 41 953 l 5
 125 953 l 1
 75 726 l 1
 80 726 81 702 81 652 c 1
 62 657 36 667 -3 679 c 0
 -41 690 -81 696 -117 702 c 0
 -146 706 -183 708 -223 708 c 0
 -248 708 -268 708 -284 706 c 0
 -335 702 l 0
 -351 700 -361 700 -362 700 c 1
 -351 735 -331 768 -303 798 c 0
 -276 828 -244 850 -206 867 c 0
 -168 884 -129 895 -88 893 c 0
-103 828 m 1
 -130 828 -157 822 -183 811 c 0
 -207 799 -226 786 -233 771 c 1
 -229 773 -220 773 -207 774 c 0
 -196 777 -181 777 -160 777 c 0
 -148 777 -132 774 -112 773 c 0
 -87 770 -70 767 -51 764 c 0
 -36 758 -23 755 -13 751 c 0
 -4 747 0 745 0 745 c 1
 0 745 l 1
 -14 793 -48 819 -103 828 c 1
EndSplineSet
EndChar
StartChar: uni0E36
Encoding: 214 3638 183
Width: 0
Flags: W
HStem: 708 69<-206 -173.123> 828 65<-111 -86> 898 63<37 54>
AnchorPoint: "AboveMark" 51.5654 965.7 basemark 0
AnchorPoint: "AboveBase" 77.793 652.5 mark 0
Fore
128 880 m 1
 117 831 96 799 65 784 c 1
 68 774 72 758 77 737 c 0
 83 715 84 686 81 652 c 1
 64 657 36 667 -3 679 c 0
 -41 690 -81 696 -116 702 c 0
 -146 706 -183 708 -223 708 c 0
 -248 708 -268 708 -284 706 c 0
 -303 705 -318 703 -334 702 c 0
 -348 700 -358 700 -361 700 c 1
 -347 735 -326 768 -300 798 c 0
 -274 828 -242 850 -204 867 c 0
 -167 884 -128 893 -86 893 c 0
 -81 893 -74 893 -67 892 c 0
 -58 890 -55 890 -57 887 c 0
 -30 937 7 961 54 961 c 0
 80 961 99 956 113 941 c 0
 125 925 130 905 128 880 c 1
-102 828 m 1
 -130 828 -157 822 -183 811 c 0
 -209 799 -223 789 -233 773 c 1
 -226 774 -219 774 -206 777 c 0
 -194 777 -181 777 -167 777 c 0
 -155 777 -135 774 -110 773 c 0
 -80 770 -55 766 -36 760 c 0
 -16 754 -4 748 0 745 c 1
 -14 793 -49 819 -102 828 c 1
25 841 m 4
 33 841 42 844 48 850 c 0
 52 856 58 861 61 870 c 0
 62 877 61 883 57 887 c 0
 54 895 46 898 38 898 c 0
 20 898 7 887 4 870 c 0
 0 850 7 841 25 841 c 4
EndSplineSet
EndChar
StartChar: uni0E37
Encoding: 215 3639 184
Width: 0
Flags: W
HStem: 708 69<-223 -160> 828 65<-107 -84>
DStem: 44 953 125 953 22 850 75 726
AnchorPoint: "AboveMark" 29.8154 965.7 basemark 0
AnchorPoint: "AboveBase" 60.3936 652.5 mark 0
Fore
22 850 m 1
 44 953 l 1
 125 953 l 1
 75 726 l 1
 80 726 81 702 81 652 c 1
 62 657 36 667 -3 679 c 0
 -41 690 -81 696 -117 702 c 0
 -146 706 -183 708 -223 708 c 0
 -248 708 -268 708 -284 706 c 0
 -335 702 l 0
 -351 700 -361 700 -362 700 c 1
 -328 779 -283 831 -233 856 c 0
 -184 880 -133 893 -84 893 c 5
 -71 953 l 5
 6 953 l 1
 -12 873 l 1
 -9 871 -3 870 3 866 c 0
 10 860 14 856 22 850 c 1
-103 828 m 1
 -130 828 -157 822 -183 811 c 0
 -207 799 -226 786 -233 771 c 1
 -229 773 -220 773 -207 774 c 0
 -196 777 -181 777 -160 777 c 0
 -148 777 -132 774 -112 773 c 0
 -87 770 -70 767 -51 764 c 0
 -36 758 -23 755 -13 751 c 0
 -4 747 0 745 0 745 c 1
 0 745 l 1
 -14 793 -48 819 -103 828 c 1
EndSplineSet
EndChar
StartChar: uni0E38
Encoding: 216 3640 185
Width: 0
Flags: W
HStem: -287 68<-267 -228> -133 68<-220 -202>
DStem: -228 -286 -113 -167 -254 -409 -165 -409
AnchorPoint: "BelowBase" -92.1699 -65.25 mark 0
Fore
-165 -409 m 1
 -254 -409 l 1
 -228 -286 l 1
 -236 -287 -249 -287 -267 -287 c 0
 -287 -286 -302 -278 -313 -267 c 0
 -326 -255 -332 -242 -338 -226 c 0
 -342 -212 -341 -194 -338 -177 c 0
 -332 -148 -316 -122 -291 -100 c 0
 -267 -77 -238 -65 -202 -65 c 4
 -183 -65 -165 -68 -151 -77 c 0
 -136 -86 -125 -99 -120 -113 c 0
 -112 -129 -110 -148 -113 -167 c 2
 -165 -409 l 1
-235 -219 m 0
 -222 -219 -209 -215 -199 -206 c 0
 -190 -199 -184 -188 -181 -177 c 0
 -178 -165 -181 -154 -186 -146 c 0
 -193 -138 -203 -133 -218 -133 c 0
 -232 -133 -242 -138 -252 -146 c 0
 -262 -154 -267 -165 -270 -177 c 0
 -273 -188 -271 -199 -265 -206 c 0
 -258 -215 -248 -219 -235 -219 c 0
EndSplineSet
EndChar
StartChar: uni0E39
Encoding: 217 3641 186
Width: 0
Flags: W
HStem: -419 80<-281 -264> -287 68<-406 -374> -130 65<-359 -341>
DStem: -183 -74 -94 -74 -233 -313 -148 -326
AnchorPoint: "BelowBase" -92.1699 -65.25 mark 0
Fore
-381 -326 m 2
 -373 -286 l 1
 -378 -287 -390 -287 -406 -287 c 0
 -426 -286 -441 -278 -452 -267 c 0
 -465 -255 -471 -242 -477 -226 c 0
 -481 -212 -480 -194 -477 -177 c 0
 -471 -148 -455 -122 -431 -100 c 0
 -406 -77 -377 -65 -341 -65 c 0
 -313 -65 -289 -75 -271 -93 c 0
 -252 -112 -246 -136 -252 -167 c 2
 -284 -312 l 2
 -287 -329 -283 -339 -264 -339 c 0
 -248 -339 -236 -331 -233 -313 c 2
 -183 -74 l 1
 -94 -74 l 5
 -148 -326 l 2
 -154 -354 -170 -377 -199 -393 c 0
 -226 -412 -254 -419 -281 -419 c 0
 -310 -419 -336 -412 -358 -393 c 0
 -378 -377 -387 -354 -381 -326 c 2
-374 -219 m 0
 -360 -219 -348 -215 -338 -204 c 0
 -329 -197 -322 -187 -320 -175 c 0
 -318 -164 -320 -154 -325 -144 c 0
 -332 -136 -341 -130 -355 -130 c 0
 -370 -130 -381 -136 -392 -144 c 0
 -402 -154 -407 -164 -410 -175 c 0
 -412 -187 -410 -197 -405 -204 c 0
 -397 -215 -389 -219 -374 -219 c 0
EndSplineSet
EndChar
StartChar: uni0E3A
Encoding: 218 3642 187
Width: 0
Flags: W
AnchorPoint: "BelowBase" -92.1699 -65.25 mark 0
Fore
-152 -91 m 0
 -141 -91 -132 -96 -125 -100 c 0
 -117 -104 -112 -112 -110 -122 c 0
 -106 -129 -106 -139 -109 -149 c 0
 -112 -164 -119 -177 -132 -188 c 0
 -144 -200 -158 -204 -177 -204 c 0
 -194 -204 -206 -200 -215 -188 c 0
 -223 -177 -225 -164 -222 -149 c 0
 -219 -135 -210 -119 -197 -109 c 0
 -184 -97 -170 -91 -152 -91 c 0
EndSplineSet
EndChar
StartChar: dottedcircle
Encoding: 221 9676 188
Width: 620
Flags: W
HStem: -13 72<320 336> 23 73<181 197> 33 74<457 473> 113 74<104 119> 125 72<557 573> 252 73<619 635> 258 76<99 115> 384 74<612 628> 392 72<168 184> 474 73<539 554> 480 75<287 303> 513 76<431 447>
Fore
171 442 m 6
289 534 m 6
180 75 m 6
103 165 m 6
458 86 m 6
558 177 m 6
613 439 m 6
539 525 m 6
621 306 m 6
99 312 m 6
432 567 m 6
184 464 m 4,11,12
 206 464 219 448 215 428 c 4,13,14
 210 407 190 392 168 392 c 4,15,16
 148 392 136 407 141 428 c 4,17,18
 145 448 164 464 184 464 c 4,11,12
177 428 m 4,19,-1
 177 428 l 4,20,-1
 177 428 l 4,21,-1
 177 428 l 4,22,-1
 177 428 l 4,19,-1
303 555 m 4,23,24
 325 555 338 538 334 518 c 4,25,26
 329 497 309 480 287 480 c 4,27,28
 267 480 255 497 260 518 c 4,29,30
 264 538 283 555 303 555 c 4,23,24
296 518 m 4,31,-1
 296 518 l 4,32,-1
 296 518 l 4,33,-1
 296 518 l 4,34,-1
 296 518 l 4,31,-1
197 96 m 4,35,36
 216 96 231 80 226 59 c 4,37,38
 222 39 200 23 181 23 c 4,39,40
 160 23 148 39 152 59 c 4,41,42
 157 80 175 96 197 96 c 4,35,36
190 59 m 4,43,-1
 190 59 l 4,44,-1
 190 59 l 4,45,-1
 190 59 l 4,46,-1
 190 59 l 4,43,-1
119 187 m 4,47,48
 139 187 152 171 148 149 c 4,49,50
 144 128 125 113 104 113 c 4,51,52
 83 113 71 128 75 149 c 4,53,54
 80 171 97 187 119 187 c 4,47,48
112 149 m 4,55,-1
 112 149 l 4,56,-1
 112 149 l 4,57,-1
 112 149 l 4,58,-1
 112 149 l 4,55,-1
473 107 m 4,59,60
 494 107 506 91 502 70 c 4,61,62
 497 49 478 33 457 33 c 4,63,64
 436 33 423 49 428 70 c 4,65,66
 432 91 452 107 473 107 c 4,59,60
464 70 m 4,67,-1
 464 70 l 4,68,-1
 464 70 l 4,69,-1
 464 70 l 4,70,-1
 464 70 l 4,67,-1
573 197 m 4,71,72
 594 197 606 183 602 161 c 4,73,74
 597 141 579 125 557 125 c 4,75,76
 536 125 526 141 531 161 c 4,77,78
 535 183 552 197 573 197 c 4,71,72
566 161 m 4,79,-1
 566 161 l 4,80,-1
 566 161 l 4,81,-1
 566 161 l 4,82,-1
 566 161 l 4,79,-1
628 458 m 4,83,84
 650 458 661 442 657 422 c 4,85,86
 652 402 634 384 612 384 c 4,87,88
 592 384 581 402 586 422 c 4,89,90
 590 442 608 458 628 458 c 4,83,84
621 422 m 4,91,-1
 621 422 l 4,92,-1
 621 422 l 4,93,-1
 621 422 l 4,94,-1
 621 422 l 4,91,-1
554 547 m 4,95,96
 576 547 589 531 584 509 c 4,97,98
 580 490 561 474 539 474 c 4,99,100
 519 474 506 490 510 509 c 4,101,102
 515 531 534 547 554 547 c 4,95,96
547 509 m 4,103,-1
 547 509 l 4,104,-1
 547 509 l 4,105,-1
 547 509 l 4,106,-1
 547 509 l 4,103,-1
635 325 m 4,107,108
 657 325 668 310 666 290 c 4,109,110
 660 268 641 252 619 252 c 4,111,112
 600 252 586 268 592 290 c 4,113,114
 594 310 616 325 635 325 c 4,107,108
628 290 m 4,115,-1
 628 290 l 4,116,-1
 628 290 l 4,117,-1
 628 290 l 4,118,-1
 628 290 l 4,115,-1
115 334 m 4,119,120
 135 334 146 316 142 294 c 4,121,122
 138 276 119 258 99 258 c 4,123,124
 78 258 65 276 70 294 c 4,125,126
 74 316 94 334 115 334 c 4,119,120
106 294 m 4,127,-1
 106 294 l 4,128,-1
 106 294 l 4,129,-1
 106 294 l 4,130,-1
 106 294 l 4,127,-1
336 59 m 4,131,132
 358 59 370 44 365 23 c 4,133,134
 361 1 342 -13 320 -13 c 4,135,136
 300 -13 287 1 291 23 c 4,137,138
 296 44 316 59 336 59 c 4,131,132
328 23 m 4,139,-1
 328 23 l 4,140,-1
 328 23 l 4,141,-1
 328 23 l 4,142,-1
 328 23 l 4,139,-1
447 589 m 4,143,144
 468 589 481 571 477 552 c 4,145,146
 473 531 452 513 431 513 c 4,147,148
 410 513 399 531 403 552 c 4,149,150
 407 571 426 589 447 589 c 4,143,144
439 552 m 4,151,-1
 439 552 l 4,152,-1
 439 552 l 4,153,-1
 439 552 l 4,154,-1
 439 552 l 4,151,-1
EndSplineSet
EndChar
StartChar: uni0E3F
Encoding: 223 3647 189
Width: 671
Flags: W
HStem: 0 116<241 414> 291 116<303 445 303 465> 564 116<222 502 222 517>
VStem: 532 134<219 238> 574 136<501 526>
DStem: 222 680 336 564 77 0 303 407 222 680 278 291 77 0 241 116 461 745 529 754 290 -58 355 -58
Fore
77 0 m 1xf0
 222 680 l 1
 523 680 l 2
 548 680 576 676 608 667 c 0
 637 658 660 645 674 628 c 1
 690 613 702 596 706 581 c 0
 709 576 709 563 710 544 c 0
 710 526 l 0
 710 515 710 506 710 502 c 0xe8
 705 477 695 454 679 429 c 0
 663 405 641 381 615 362 c 1
 632 348 647 326 655 302 c 0
 663 281 667 260 667 236 c 0
 667 231 666 225 666 219 c 1
 657 180 647 148 628 119 c 0
 610 91 589 67 560 46 c 0
 515 14 457 0 383 0 c 2
 77 0 l 1xf0
461 745 m 1
 529 754 l 1
 355 -58 l 1
 290 -58 l 1
 461 745 l 1
278 291 m 1
 241 116 l 1
 405 116 l 2
 432 116 458 122 483 133 c 0
 506 144 523 171 529 212 c 0
 532 222 532 231 532 238 c 0xf0
 532 255 526 268 515 276 c 0
 500 287 477 291 445 291 c 2
 278 291 l 1
336 564 m 1
 303 407 l 1
 463 407 l 2
 492 407 516 415 535 429 c 0
 555 444 567 463 571 484 c 0
 573 493 574 500 574 508 c 0xe8
 574 545 550 564 502 564 c 2
 336 564 l 1
EndSplineSet
EndChar
StartChar: uni0E40
Encoding: 224 3648 190
Width: 307
Flags: W
HStem: -7 68<187 205> 146 69<219 228>
VStem: 99 68<77 96> 255 68<106 130>
DStem: 197 557 293 557 102 106 219 215
Fore
187 -7 m 0
 152 -7 128 4 112 26 c 0
 103 41 99 58 99 77 c 0
 99 86 99 96 102 106 c 2
 197 557 l 1
 293 557 l 1
 219 215 l 1
 233 215 l 2
 270 215 296 202 309 184 c 0
 319 170 323 152 323 130 c 0
 323 123 323 115 322 106 c 0
 315 75 300 48 276 26 c 0
 251 3 222 -7 187 -7 c 0
203 61 m 0
 216 61 226 64 238 72 c 0
 246 80 251 91 254 103 c 0
 255 107 255 112 255 116 c 0
 255 123 254 129 252 135 c 0
 245 142 235 146 220 146 c 0
 207 146 196 141 186 133 c 0
 175 125 171 115 168 103 c 0
 167 100 167 97 167 94 c 0
 167 87 170 80 175 74 c 0
 181 65 190 61 203 61 c 0
EndSplineSet
EndChar
StartChar: uni0E41
Encoding: 225 3649 191
Width: 569
Flags: W
HStem: -7 68<187 205 451 467> 146 69<219 228 483 494.44>
VStem: 99 68<77 96> 255 68<106 130> 362 67<78 96> 518 69<106 123>
DStem: 197 557 293 557 102 106 219 215 461 557 557 557 365 106 483 215
Fore
187 -7 m 0
 152 -7 128 4 112 26 c 0
 103 41 99 58 99 77 c 0
 99 86 99 96 102 106 c 2
 197 557 l 1
 293 557 l 1
 219 215 l 1
 233 215 l 2
 270 215 296 202 309 184 c 0
 319 170 323 152 323 130 c 0
 323 123 323 115 322 106 c 0
 315 75 300 48 276 26 c 0
 251 3 222 -7 187 -7 c 0
451 -7 m 0
 416 -7 392 4 378 26 c 0
 367 41 362 58 362 78 c 0
 362 87 362 96 365 106 c 2
 461 557 l 1
 557 557 l 1
 483 215 l 1
 497 215 l 2
 532 215 557 202 570 181 c 0
 581 167 587 146 587 123 c 0
 587 117 586 112 586 106 c 0
 579 75 563 48 538 26 c 0
 515 4 486 -7 451 -7 c 0
203 61 m 0
 216 61 226 64 238 72 c 0
 246 80 251 91 254 103 c 0
 255 107 255 112 255 116 c 0
 255 123 254 129 252 135 c 0
 245 142 235 146 220 146 c 0
 207 146 196 141 186 133 c 0
 175 125 171 115 168 103 c 0
 167 100 167 97 167 94 c 0
 167 87 170 80 175 74 c 0
 181 65 190 61 203 61 c 0
465 61 m 0
 480 61 490 64 499 72 c 0
 509 80 513 91 516 103 c 0
 518 107 518 110 518 115 c 0
 518 122 516 129 512 135 c 0
 508 142 497 146 483 146 c 0
 468 146 458 141 450 133 c 0
 439 125 434 115 431 103 c 0
 429 100 429 97 429 94 c 0
 429 86 432 80 436 74 c 0
 444 65 452 61 465 61 c 0
EndSplineSet
EndChar
StartChar: uni0E42
Encoding: 226 3650 192
Width: 385
Flags: W
HStem: -7 71<252 269> 142 73<284 295.153> 886 83<487 503> 931 80<339 361>
VStem: 164 71<77 95> 316 73<111 132>
DStem: 304 755 399 753 167 106 284 215
Fore
399 753 m 2xdc
 284 215 l 1
 299 215 l 2
 335 215 361 202 376 181 c 0
 384 168 389 151 389 132 c 0
 389 123 389 115 387 106 c 0
 380 75 364 48 342 26 c 0
 318 4 287 -7 252 -7 c 0
 218 -7 193 4 178 26 c 0
 168 41 164 58 164 77 c 0
 164 86 164 96 167 106 c 2
 304 755 l 2
 309 779 310 795 312 805 c 0
 310 815 306 822 300 831 c 0
 291 840 278 847 260 857 c 0
 239 867 203 883 155 906 c 1
 161 915 175 925 196 941 c 0
 213 956 236 972 270 987 c 0
 300 1003 329 1011 361 1011 c 0xdc
 380 1011 394 1009 405 1006 c 0
 413 1000 428 995 450 985 c 0
 473 973 489 969 503 969 c 0
 521 969 539 976 564 992 c 1
 583 919 l 1
 548 898 516 886 487 886 c 0xec
 465 886 441 893 415 906 c 0
 387 919 371 925 362 928 c 0
 351 929 345 931 339 931 c 0
 332 931 325 929 320 928 c 0
 313 924 312 922 310 921 c 1
 345 902 370 886 384 877 c 0
 396 866 403 853 406 834 c 0
 407 828 407 822 407 815 c 0
 407 799 405 777 399 753 c 2xdc
267 64 m 0
 280 64 291 67 299 75 c 0
 307 84 312 91 315 103 c 0
 316 107 316 110 316 113 c 0
 316 120 315 126 310 130 c 0
 306 139 297 142 284 142 c 0
 273 142 261 139 254 130 c 0
 244 123 239 115 236 103 c 0
 235 99 235 96 235 93 c 0
 235 87 238 81 242 75 c 0
 246 67 255 64 267 64 c 0
EndSplineSet
EndChar
StartChar: uni0E43
Encoding: 227 3651 193
Width: 385
Flags: W
HStem: -7 71<254 270> 142 71<286 295.882> 745 66<209 217> 942 74<301 319>
VStem: 132 65<825 829> 164 72<78 95> 245 65<837 860> 318 72<106 129> 335 94<904 924>
DStem: 328 869 425 867 167 106 286 213
Fore
425 867 m 2xfa80
 286 213 l 1
 300 213 l 2
 335 213 360 200 376 181 c 0
 386 167 390 149 390 129 c 0
 390 122 390 113 389 106 c 0
 381 75 365 48 344 26 c 0
 319 4 289 -7 254 -7 c 0
 218 -7 193 4 178 26 c 0
 168 41 164 58 164 78 c 0xf7
 164 87 164 96 167 106 c 2
 328 869 l 2
 332 886 335 902 335 914 c 0
 335 916 335 921 334 924 c 0
 332 935 322 942 302 942 c 0
 286 942 274 941 267 935 c 0
 260 931 255 925 251 922 c 1
 276 922 293 915 302 896 c 0
 307 886 310 874 310 860 c 0
 310 850 309 837 306 824 c 1
 290 771 258 745 210 745 c 0
 188 745 173 751 158 760 c 0
 142 770 133 783 133 802 c 0
 133 809 132 818 132 825 c 0
 132 835 133 847 135 856 c 0
 145 899 168 937 203 969 c 0
 236 999 276 1016 319 1016 c 0
 364 1016 394 1003 412 974 c 0
 423 957 429 935 429 911 c 0
 429 896 428 883 425 867 c 2xfa80
268 64 m 0
 280 64 291 67 302 75 c 0
 309 84 313 91 316 103 c 0
 318 107 318 110 318 115 c 0
 318 120 316 126 313 130 c 0
 306 139 297 142 286 142 c 0
 274 142 264 139 255 130 c 0
 245 123 241 115 238 103 c 0
 236 99 236 96 236 93 c 0
 236 87 239 81 244 75 c 0
 249 67 257 64 268 64 c 0
226 864 m 0
 220 864 213 860 207 856 c 0
 203 850 200 844 199 837 c 0
 199 834 197 832 197 829 c 0xfa
 197 825 199 822 200 819 c 0
 203 815 209 811 215 811 c 0
 232 811 241 819 245 837 c 0
 245 840 246 844 246 847 c 0
 246 858 241 864 226 864 c 0
EndSplineSet
EndChar
StartChar: uni0E44
Encoding: 228 3652 194
Width: 439
Flags: W
HStem: -7 71<306 323> 142 73<339 352>
VStem: 220 70<77 96> 373 71<110 129>
DStem: 191 921 268 960 203 728 277 811 358 970 384 866 277 811 306 713 384 866 494 944 223 106 339 215
Fore
384 866 m 1
 306 713 l 2
 291 684 271 670 245 670 c 0
 231 670 220 676 213 683 c 0
 209 693 203 708 203 728 c 2
 191 921 l 2
 190 941 183 954 167 961 c 1
 232 1016 l 1
 255 1006 265 987 268 960 c 1
 277 811 l 1
 358 970 l 1
 373 999 402 1014 438 1014 c 0
 458 1014 474 1008 486 996 c 0
 493 989 497 979 497 966 c 0
 497 958 496 951 494 944 c 2
 339 215 l 1
 352 215 l 2
 389 215 416 202 429 184 c 0
 439 168 444 151 444 129 c 0
 444 122 444 113 442 106 c 0
 435 75 419 48 396 26 c 0
 371 4 341 -7 306 -7 c 0
 273 -7 248 4 233 26 c 0
 225 41 220 58 220 77 c 0
 220 86 220 96 223 106 c 2
 384 866 l 1
323 64 m 0
 336 64 347 67 355 75 c 0
 362 84 368 91 371 103 c 0
 373 106 373 109 373 112 c 0
 373 119 370 125 367 130 c 0
 361 139 354 142 341 142 c 0
 328 142 316 139 307 130 c 0
 300 123 294 115 291 103 c 0
 290 100 290 97 290 94 c 0
 290 87 293 81 296 75 c 0
 302 67 310 64 323 64 c 0
EndSplineSet
EndChar
StartChar: uni0E45
Encoding: 229 3653 195
Width: 484
Flags: W
HStem: 499 75<310 336>
VStem: 402 95<431 457>
DStem: 399 406 492 405 249 -290 344 -290
Fore
100 423 m 1
 117 458 145 493 184 526 c 0
 222 557 273 574 336 574 c 0
 405 571 451 557 476 529 c 0
 490 512 497 487 497 457 c 0
 497 441 496 423 492 405 c 2
 344 -290 l 1
 249 -290 l 1
 399 406 l 2
 400 415 402 423 402 431 c 0
 402 476 371 499 310 499 c 0
 254 499 209 465 177 400 c 1
 100 423 l 1
EndSplineSet
EndChar
StartChar: uni0E46
Encoding: 230 3654 196
Width: 645
Flags: W
HStem: 228 69<348 364> 355 71<372 390>
VStem: 235 104<322 349> 399 72<326 355> 561 97<442 454>
DStem: 555 393 652 403 465 -25 561 -30
Fore
396 484 m 1
 377 477 362 464 351 447 c 0
 341 432 335 419 331 412 c 1
 336 413 342 416 354 420 c 0
 362 425 376 426 390 426 c 0
 420 426 444 418 460 400 c 0
 467 387 471 373 471 355 c 0
 471 347 470 338 468 329 c 0
 463 302 450 277 429 257 c 0
 406 238 378 228 348 228 c 0
 309 229 278 244 258 273 c 0
 244 293 235 319 235 349 c 0
 235 360 236 371 238 383 c 0
 248 428 271 468 306 505 c 0
 339 539 376 560 418 568 c 1
 429 563 444 554 460 545 c 0
 476 536 484 531 484 528 c 0
 484 528 l 1
 557 568 l 1
 602 560 631 541 647 513 c 0
 654 496 658 477 658 454 c 0
 658 438 655 420 652 403 c 2
 561 -30 l 2
 550 -84 523 -125 480 -154 c 0
 436 -184 386 -203 329 -213 c 1
 322 -129 l 1
 326 -128 344 -122 374 -113 c 0
 403 -104 423 -96 438 -81 c 0
 452 -71 461 -51 465 -25 c 2
 555 393 l 2
 558 415 561 432 561 444 c 0
 561 447 561 450 561 451 c 0
 560 464 552 476 539 484 c 1
 467 444 l 1
 467 444 l 1
 467 444 458 450 439 458 c 0
 423 470 407 478 396 484 c 1
364 297 m 0
 371 297 380 300 386 306 c 0
 393 312 397 318 399 326 c 0
 399 329 400 334 400 336 c 0
 400 341 399 345 397 348 c 0
 393 352 386 355 376 355 c 0
 365 355 357 352 351 348 c 0
 345 342 341 335 339 326 c 0
 339 322 l 0
 339 316 341 310 344 306 c 0
 347 300 355 297 364 297 c 0
EndSplineSet
EndChar
StartChar: uni0E47
Encoding: 231 3655 197
Width: 0
Flags: W
HStem: 655 63<-28 -12> 740 76<-175 -151> 771 61<-5 10> 845 71<-51 -23>
AnchorPoint: "AboveBase" 60.3936 652.5 mark 0
AnchorPoint: "AboveMark" -142.607 652.5 mark 0
Fore
-28 655 m 0xb0
 -45 655 -58 660 -70 668 c 0
 -83 677 -94 686 -107 700 c 0
 -123 715 -135 724 -144 731 c 0
 -151 735 -162 740 -175 740 c 0
 -187 740 -199 729 -212 710 c 0
 -223 692 -232 671 -235 652 c 1
 -257 652 l 1
 -280 664 -296 684 -306 716 c 0
 -319 744 -320 773 -313 803 c 0
 -310 821 -304 835 -297 847 c 0
 -280 874 -257 895 -232 906 c 0
 -207 918 -177 922 -136 922 c 0
 -129 922 -122 922 -117 922 c 0
 -112 922 -107 922 -103 921 c 0
 -72 918 -48 916 -25 916 c 0
 3 916 25 921 38 931 c 0
 54 942 65 961 71 992 c 1
 151 992 l 1
 141 938 119 903 88 880 c 0
 59 858 13 845 -49 845 c 0
 -80 845 -102 847 -120 848 c 0
 -158 848 -184 844 -202 835 c 0
 -218 826 -229 806 -235 779 c 1
 -232 784 -223 793 -209 803 c 0
 -196 811 -177 816 -151 816 c 0xd0
 -129 816 -113 812 -103 805 c 0
 -91 796 -84 789 -81 783 c 1
 -62 816 -33 832 10 832 c 0
 38 832 59 824 70 808 c 0
 81 793 86 771 80 745 c 4
 75 721 62 700 42 682 c 0
 22 664 -1 655 -28 655 c 0xb0
-14 718 m 0
 3 718 14 728 17 745 c 0
 20 754 19 760 14 766 c 0
 12 770 4 771 -3 771 c 0xb0
 -12 771 -20 768 -26 764 c 0
 -32 758 -35 753 -36 745 c 0
 -39 728 -33 718 -14 718 c 0
EndSplineSet
EndChar
StartChar: uni0E48
Encoding: 232 3656 198
Width: 0
Flags: W
DStem: 93 1206 178 1206 52 1014 138 1014
AnchorPoint: "AboveMark" 83.4658 965.7 mark 0
Fore
52 1014 m 1
 93 1206 l 1
 178 1206 l 1
 138 1014 l 1
 52 1014 l 1
EndSplineSet
Substitution: 0 65534 'loww' uni0E48.low
Substitution: 0 65534 'amni' uni0E4D
EndChar
StartChar: uni0E49
Encoding: 233 3657 199
Width: 0
Flags: W
HStem: 1150 58<26 41>
AnchorPoint: "AboveMark" 73.3154 965.7 mark 0
Fore
110 1116 m 0
 102 1088 94 1070 87 1058 c 0
 80 1047 72 1038 68 1037 c 1
 71 1037 80 1038 93 1043 c 0
 104 1045 117 1050 132 1058 c 0
 145 1067 157 1076 167 1088 c 0
 183 1106 193 1122 197 1137 c 0
 203 1151 209 1173 215 1201 c 1
 293 1201 l 1
 271 1099 223 1031 149 999 c 0
 106 980 58 972 14 972 c 0
 0 972 -14 973 -25 974 c 0
 -36 976 -44 976 -48 979 c 1
 -41 1006 l 1
 -36 1008 -29 1012 -22 1018 c 0
 -13 1022 -7 1030 -4 1037 c 1
 -6 1037 -16 1038 -29 1044 c 0
 -42 1048 -52 1057 -59 1072 c 0
 -67 1086 -67 1102 -62 1124 c 0
 -58 1147 -45 1167 -26 1183 c 0
 -7 1199 16 1208 41 1208 c 0
 68 1208 90 1198 100 1180 c 0
 110 1160 115 1138 110 1116 c 0
14 1095 m 0
 22 1095 32 1098 38 1102 c 0
 44 1108 46 1114 49 1122 c 0
 51 1131 49 1137 44 1143 c 0
 41 1147 35 1150 28 1150 c 0
 9 1150 -4 1140 -7 1122 c 0
 -9 1116 -6 1109 -3 1102 c 0
 1 1098 6 1095 14 1095 c 0
EndSplineSet
Substitution: 0 65534 'loww' uni0E49.low
Substitution: 0 65534 'amni' uni0E4D
EndChar
StartChar: uni0E4A
Encoding: 234 3658 200
Width: 0
Flags: W
HStem: 967 47<-121 -110> 1057 48<-103 -83> 1132 57<-84 -63 25 49>
AnchorPoint: "AboveMark" -28.1846 965.7 mark 0
Fore
-120 967 m 0
 -148 967 -168 979 -180 1003 c 0
 -193 1028 -196 1056 -188 1086 c 0
 -181 1116 -165 1140 -146 1160 c 0
 -126 1180 -102 1189 -74 1189 c 0
 -55 1189 -41 1186 -32 1180 c 0
 -25 1172 -19 1167 -17 1161 c 1
 -13 1167 -3 1172 10 1180 c 0
 22 1186 35 1189 49 1189 c 0
 77 1189 96 1182 107 1164 c 0
 117 1147 120 1124 115 1096 c 0
 110 1076 104 1063 100 1057 c 0
 96 1048 87 1038 78 1025 c 1
 84 1028 90 1032 99 1038 c 0
 109 1044 119 1051 126 1063 c 0
 142 1088 155 1111 161 1132 c 0
 164 1144 165 1157 164 1170 c 1
 231 1193 l 1
 233 1177 231 1163 228 1148 c 0
 219 1105 197 1064 170 1034 c 0
 148 1011 126 996 97 990 c 0
 68 982 32 976 -6 976 c 5
 -4 982 -3 986 -3 990 c 0
 -1 993 -1 996 -1 1000 c 1
 4 1006 13 1014 23 1025 c 0
 33 1038 44 1056 48 1074 c 0
 51 1092 51 1105 49 1114 c 0
 48 1124 39 1130 25 1130 c 0
 13 1130 3 1127 -1 1122 c 0
 -10 1118 -16 1112 -19 1109 c 1
 -19 1109 l 1
 -19 1111 -25 1114 -35 1121 c 0
 -42 1130 -57 1132 -71 1132 c 0
 -96 1132 -112 1121 -117 1099 c 1
 -116 1101 -112 1101 -106 1102 c 0
 -102 1105 -94 1105 -83 1105 c 0
 -64 1102 -49 1096 -42 1083 c 0
 -33 1069 -32 1051 -36 1031 c 0
 -39 1014 -51 999 -65 986 c 0
 -83 973 -102 967 -120 967 c 0
-103 1057 m 0
 -117 1057 -128 1050 -130 1035 c 0
 -133 1021 -126 1014 -112 1014 c 0
 -97 1014 -88 1021 -86 1035 c 0
 -83 1050 -88 1057 -103 1057 c 0
EndSplineSet
Substitution: 0 65534 'loww' uni0E4A.low
Substitution: 0 65534 'amni' uni0E4D
EndChar
StartChar: uni0E4B
Encoding: 235 3659 201
Width: 0
Flags: W
HStem: 1056 75<-2 64 162 228>
AnchorPoint: "AboveMark" 84.916 965.7 mark 0
Fore
64 1056 m 1
 -17 1056 l 1
 -1 1131 l 1
 80 1131 l 1
 94 1202 l 1
 177 1202 l 1
 162 1131 l 1
 244 1131 l 1
 228 1056 l 5
 146 1056 l 1
 130 985 l 1
 48 985 l 1
 64 1056 l 1
EndSplineSet
Substitution: 0 65534 'loww' uni0E4B.low
Substitution: 0 65534 'amni' uni0E4D
EndChar
StartChar: uni0E4C
Encoding: 236 3660 202
Width: 0
Flags: W
HStem: 928 55<-45 -37>
AnchorPoint: "AboveMark" -50.6973 928 mark 0
Fore
112 1101 m 0
 70 1095 42 1095 26 1093 c 0
 7 1092 -4 1092 -9 1092 c 0
 16 1092 32 1085 44 1070 c 0
 54 1056 58 1037 54 1016 c 0
 49 992 38 972 19 956 c 0
 0 937 -20 928 -45 928 c 4
 -78 925 -103 937 -116 956 c 0
 -132 973 -138 996 -130 1028 c 0
 -119 1082 -90 1119 -44 1138 c 0
 -22 1147 6 1154 41 1156 c 0
 75 1157 99 1161 115 1167 c 0
 132 1172 141 1186 145 1209 c 1
 215 1209 l 1
 209 1182 197 1157 180 1138 c 0
 164 1119 142 1105 112 1101 c 0
-28 1037 m 0
 -45 1037 -57 1030 -61 1011 c 0
 -64 993 -57 983 -39 983 c 0
 -30 983 -22 986 -17 992 c 0
 -12 996 -9 1003 -7 1011 c 0
 -6 1019 -6 1024 -9 1030 c 0
 -12 1034 -19 1037 -28 1037 c 0
EndSplineSet
Substitution: 0 65534 'loww' uni0E4C.low
EndChar
StartChar: uni0E4D
Encoding: 237 3661 203
Width: 0
Flags: W
HStem: 658 68<-51 -36> 812 68<-21 -4>
AnchorPoint: "AboveMark" -52.707 652.5 mark 0
AnchorPoint: "AboveMark" 13.8652 965.7 basemark 0
AnchorPoint: "AboveBase" 60.3936 652.5 mark 0
Fore
-4 880 m 0
 30 880 55 869 70 847 c 0
 84 826 88 799 83 770 c 0
 77 741 61 715 35 692 c 0
 12 670 -16 658 -51 658 c 0
 -86 658 -112 670 -128 692 c 0
 -141 715 -145 741 -139 770 c 0
 -133 799 -117 826 -94 847 c 0
 -70 869 -39 880 -4 880 c 0
-38 726 m 0
 -25 726 -13 731 -4 740 c 0
 6 747 12 758 14 770 c 0
 17 782 16 792 9 799 c 0
 3 808 -6 812 -19 812 c 0
 -32 812 -42 809 -52 802 c 0
 -62 793 -68 782 -71 770 c 0
 -74 758 -72 747 -67 740 c 0
 -59 731 -51 726 -38 726 c 0
EndSplineSet
Substitution: 0 65534 'G005' uni0E48
Substitution: 0 65534 'G004' uni0E49
Substitution: 0 65534 'G003' uni0E4A
Substitution: 0 65534 'G002' uni0E4B
EndChar
StartChar: uni0E4E
Encoding: 238 3662 204
Width: 0
VWidth: 2048
Flags: W
HStem: 735 64<-142 -106> 902 90<-76 -52> 1003 82<102 118>
AnchorPoint: "AboveBase" 60.3936 652.5 mark 0
Fore
190 956 m 1
 180 958 l 2
 174 961 170 966 167 970 c 0
 161 980 155 987 149 993 c 0
 139 999 128 1003 113 1003 c 0
 99 1003 84 998 72 990 c 0
 58 980 48 963 44 944 c 0
 42 932 44 919 49 905 c 0
 52 902 52 893 49 882 c 0
 48 874 42 869 32 861 c 0
 25 856 17 854 10 854 c 0
 0 854 -10 860 -14 873 c 0
 -20 886 -26 893 -36 896 c 0
 -41 899 -52 902 -68 902 c 0
 -83 902 -96 896 -109 887 c 0
 -120 879 -129 864 -133 847 c 0
 -136 832 -132 822 -129 815 c 0
 -122 805 -116 799 -106 799 c 0
 -93 799 -81 803 -72 808 c 1
 -52 826 l 1
 -28 815 l 1
 -42 773 l 1
 -70 748 -104 735 -142 735 c 0
 -175 735 -203 747 -218 770 c 0
 -235 792 -238 819 -231 853 c 1
 -222 883 l 1
 -220 884 l 1
 -218 895 -210 906 -200 918 c 0
 -183 941 -162 957 -138 972 c 0
 -115 985 -90 992 -64 992 c 0
 -51 992 -36 990 -22 985 c 1
 -16 1012 -1 1035 23 1056 c 0
 49 1074 77 1085 104 1085 c 0
 129 1085 151 1080 168 1072 c 0
 188 1061 202 1048 212 1028 c 0
 215 1024 216 1016 218 1003 c 0
 222 995 222 986 220 980 c 0
 216 963 206 956 190 956 c 1
EndSplineSet
EndChar
